SplineFontDB: 3.0
FontName: NATS
FullName: NATS
FamilyName: NATS
Weight: Book
Copyright: This font is copyright of SiliconAndhra, USA.
Version: 0.30 October 27, 2012
ItalicAngle: 0
UnderlinePosition: -770
UnderlineWidth: 60
Ascent: 776
Descent: 194
InvalidEm: 0
sfntRevision: 0x00004ccc
LayerCount: 2
Layer: 0 1 "Back" 1
Layer: 1 1 "Fore" 0
XUID: [1021 73 2087734359 2183894]
FSType: 0
OS2Version: 2
OS2_WeightWidthSlopeOnly: 0
OS2_UseTypoMetrics: 1
CreationTime: 1185454961
ModificationTime: 1348924474
PfmFamily: 81
TTFWeight: 400
TTFWidth: 5
LineGap: 20
VLineGap: 0
Panose: 0 0 0 0 0 0 0 0 0 0
OS2TypoAscent: 800
OS2TypoAOffset: 0
OS2TypoDescent: -250
OS2TypoDOffset: 0
OS2TypoLinegap: 20
OS2WinAscent: 800
OS2WinAOffset: 0
OS2WinDescent: 750
OS2WinDOffset: 0
HheadAscent: 800
HheadAOffset: 0
HheadDescent: -635
HheadDOffset: 0
OS2SubXSize: 800
OS2SubYSize: 650
OS2SubXOff: 0
OS2SubYOff: 179
OS2SupXSize: 875
OS2SupYSize: 812
OS2SupXOff: 0
OS2SupYOff: 600
OS2StrikeYSize: 62
OS2StrikeYPos: 323
OS2CapHeight: 0
OS2XHeight: 0
OS2Vendor: '    '
OS2CodePages: 00000001.00000000
OS2UnicodeRanges: 80208003.00000000.00000000.00000000
Lookup: 4 0 0 "'nukt' Nukta Forms in Telugu lookup 0" { "'nukt' Nukta Forms in Telugu lookup 0 subtable"  } ['nukt' ('telu' <'dflt' > ) ]
Lookup: 4 0 0 "'akhn' Akhand in Telugu lookup 1" { "'akhn' Akhand in Telugu lookup 1 subtable"  } ['akhn' ('telu' <'dflt' > ) ]
Lookup: 4 0 0 "'blwf' Below Base Forms in Telugu lookup 2" { "'blwf' Below Base Forms in Telugu lookup 2 subtable"  } ['blwf' ('telu' <'dflt' > ) ]
Lookup: 4 0 0 "'blws' Below Base Substitutions in Telugu lookup 3" { "'blws' Below Base Substitutions in Telugu lookup 3 subtable"  } ['blws' ('telu' <'dflt' > ) ]

StartChar: .notdef
Encoding: 65536 -1 0
Width: 532
GlyphClass: 2
Flags: W
LayerCount: 2
Back
Fore
SplineSet
506 345 m 1,0,-1
 464 314 l 1,1,2
 443 350 443 350 408 371 c 1,3,-1
 438 416 l 1,4,5
 481 387 481 387 506 345 c 1,0,-1
366 448 m 1,6,-1
 358 395 l 1,7,8
 339 399 339 399 320 399 c 0,9,10
 299 399 299 399 281 395 c 1,11,-1
 272 448 l 1,12,13
 296 455 296 455 319 455 c 0,14,15
 343 455 343 455 366 448 c 1,6,-1
535 228 m 0,16,17
 535 205 535 205 530 179 c 1,18,-1
 479 188 l 1,19,20
 483 207 483 207 483 228 c 256,21,22
 483 249 483 249 479 269 c 1,23,-1
 530 278 l 1,24,25
 535 253 535 253 535 228 c 0,16,17
506 112 m 1,26,27
 480 69 480 69 438 42 c 1,28,-1
 408 87 l 1,29,30
 443 108 443 108 464 143 c 1,31,-1
 506 112 l 1,26,27
230 371 m 1,32,33
 195 350 195 350 176 314 c 1,34,-1
 132 345 l 1,35,36
 158 387 158 387 200 416 c 1,37,-1
 230 371 l 1,32,33
160 188 m 1,38,-1
 108 179 l 1,39,40
 103 203 103 203 103 228 c 0,41,42
 103 254 103 254 108 278 c 1,43,-1
 160 269 l 1,44,45
 155 249 155 249 155 228 c 256,46,47
 155 207 155 207 160 188 c 1,38,-1
366 8 m 1,48,49
 343 3 343 3 319 3 c 0,50,51
 296 3 296 3 272 8 c 1,52,-1
 281 62 l 1,53,54
 299 57 299 57 320 57 c 0,55,56
 339 57 339 57 358 62 c 1,57,-1
 366 8 l 1,48,49
230 87 m 1,58,-1
 200 42 l 1,59,60
 158 69 158 69 132 112 c 1,61,-1
 176 143 l 1,62,63
 195 108 195 108 230 87 c 1,58,-1
EndSplineSet
EndChar

StartChar: exclam
Encoding: 33 33 4
Width: 138
GlyphClass: 2
Flags: W
LayerCount: 2
Back
Fore
SplineSet
82 122 m 2,0,1
 82 99 82 99 49 99 c 0,2,3
 18 99 18 99 18 124 c 2,4,-1
 18 476 l 2,5,6
 18 505 18 505 48 505 c 0,7,8
 82 505 82 505 82 477 c 2,9,-1
 82 122 l 2,0,1
104 33 m 0,10,11
 104 12 104 12 88 -2 c 128,-1,12
 72 -16 72 -16 52 -16 c 0,13,14
 31 -16 31 -16 15.5 -3.5 c 128,-1,15
 0 9 0 9 0 33 c 0,16,17
 0 55 0 55 14 69 c 128,-1,18
 28 83 28 83 52 83 c 0,19,20
 74 83 74 83 89 69 c 128,-1,21
 104 55 104 55 104 33 c 0,10,11
EndSplineSet
EndChar

StartChar: percent
Encoding: 37 37 8
Width: 602
GlyphClass: 2
Flags: W
LayerCount: 2
Back
Fore
SplineSet
235 380 m 0,0,1
 235 235 235 235 116 235 c 0,2,3
 63 235 63 235 31.5 271 c 128,-1,4
 0 307 0 307 0 373 c 0,5,6
 0 433 0 433 23 469 c 0,7,8
 54 517 54 517 116 517 c 0,9,10
 171 517 171 517 203 481 c 128,-1,11
 235 445 235 445 235 380 c 0,0,1
441 488 m 2,12,-1
 148 -1 l 2,13,14
 140 -16 140 -16 123 -16 c 0,15,16
 105 -16 105 -16 98 -4 c 128,-1,17
 91 8 91 8 96 18 c 2,18,-1
 390 517 l 2,19,20
 401 532 401 532 417 532 c 0,21,22
 444 532 444 532 444 504 c 0,23,24
 444 497 444 497 441 488 c 2,12,-1
544 138 m 0,25,26
 544 68 544 68 513 31 c 128,-1,27
 482 -6 482 -6 428 -6 c 256,28,29
 374 -6 374 -6 342.5 30.5 c 128,-1,30
 311 67 311 67 311 130 c 0,31,32
 311 190 311 190 333 229 c 0,33,34
 365 276 365 276 428 276 c 0,35,36
 544 276 544 276 544 138 c 0,25,26
181 392 m 0,37,38
 181 425 181 425 165 444.5 c 128,-1,39
 149 464 149 464 121 464 c 0,40,41
 88 464 88 464 72 442.5 c 128,-1,42
 56 421 56 421 56 374 c 0,43,44
 56 335 56 335 70 311 c 128,-1,45
 84 287 84 287 112 287 c 0,46,47
 153 287 153 287 167 310 c 128,-1,48
 181 333 181 333 181 392 c 0,37,38
486 146 m 0,49,50
 486 180 486 180 471 201.5 c 128,-1,51
 456 223 456 223 430 223 c 0,52,53
 396 223 396 223 381 203.5 c 128,-1,54
 366 184 366 184 366 135 c 0,55,56
 366 94 366 94 379.5 70.5 c 128,-1,57
 393 47 393 47 420 47 c 0,58,59
 460 47 460 47 473 67.5 c 128,-1,60
 486 88 486 88 486 146 c 0,49,50
EndSplineSet
EndChar

StartChar: ampersand
Encoding: 38 38 9
Width: 605
GlyphClass: 2
Flags: W
LayerCount: 2
Back
Fore
SplineSet
491 377 m 1,0,-1
 569 377 l 1,1,-1
 459 174 l 1,2,-1
 607 36 l 1,3,-1
 557 -11 l 1,4,-1
 425 113 l 1,5,6
 402 69 402 69 374 44 c 0,7,8
 322 -9 322 -9 249 -9 c 0,9,10
 168 -9 168 -9 112 48 c 0,11,12
 60 99 60 99 60 169 c 0,13,14
 60 231 60 231 104 277 c 0,15,16
 138 313 138 313 190 337 c 1,17,18
 165 360 165 360 151 380 c 0,19,20
 129 412 129 412 129 451 c 0,21,22
 129 506 129 506 171.5 543.5 c 128,-1,23
 214 581 214 581 275 581 c 0,24,25
 333 581 333 581 376 542 c 128,-1,26
 419 503 419 503 419 445 c 0,27,28
 419 390 419 390 373 351 c 0,29,30
 343 324 343 324 313 314 c 1,31,-1
 408 223 l 1,32,-1
 491 377 l 1,0,-1
374 161 m 1,33,-1
 241 288 l 1,34,35
 232 284 232 284 214.5 275.5 c 128,-1,36
 197 267 197 267 188 261 c 0,37,38
 154 238 154 238 142 215 c 128,-1,39
 130 192 130 192 130 167 c 0,40,41
 130 119 130 119 165 88 c 128,-1,42
 200 57 200 57 243 57 c 0,43,44
 291 57 291 57 329 95 c 0,45,46
 350 118 350 118 374 161 c 1,33,-1
274 515 m 0,47,48
 241 515 241 515 220 496 c 128,-1,49
 199 477 199 477 199 452 c 0,50,51
 199 424 199 424 228 393 c 0,52,53
 240 382 240 382 261 364 c 1,54,55
 308 383 308 383 328 400 c 0,56,57
 349 422 349 422 349 448 c 256,58,59
 349 474 349 474 327.5 494.5 c 128,-1,60
 306 515 306 515 274 515 c 0,47,48
EndSplineSet
EndChar

StartChar: parenleft
Encoding: 40 40 11
Width: 188
GlyphClass: 2
Flags: W
LayerCount: 2
Back
Fore
SplineSet
193 -97 m 1,0,1
 193 -124 193 -124 165 -124 c 0,2,3
 147 -124 147 -124 122 -106 c 0,4,5
 88 -82 88 -82 68.5 -44.5 c 128,-1,6
 49 -7 49 -7 41.5 48 c 128,-1,7
 34 103 34 103 34 151 c 2,8,-1
 34 298 l 2,9,10
 34 358 34 358 43 408 c 128,-1,11
 52 458 52 458 70.5 494 c 128,-1,12
 89 530 89 530 118.5 550 c 128,-1,13
 148 570 148 570 165 570 c 0,14,15
 193 570 193 570 193 544 c 0,16,17
 193 528 193 528 176 518 c 0,18,19
 154 507 154 507 141 495 c 0,20,21
 121 475 121 475 106.5 429.5 c 128,-1,22
 92 384 92 384 92 321 c 2,23,-1
 92 133 l 2,24,25
 92 20 92 20 122 -27 c 1,26,27
 155 -61 155 -61 193 -97 c 1,0,1
EndSplineSet
EndChar

StartChar: parenright
Encoding: 41 41 12
Width: 189
GlyphClass: 2
Flags: W
LayerCount: 2
Back
Fore
SplineSet
171 151 m 2,0,1
 171 101 171 101 163.5 48 c 128,-1,2
 156 -5 156 -5 138 -40 c 0,3,4
 122 -68 122 -68 97 -91 c 0,5,6
 63 -124 63 -124 40 -124 c 0,7,8
 11 -124 11 -124 11 -100 c 0,9,10
 11 -96 11 -96 62.5 -50.5 c 128,-1,11
 114 -5 114 -5 114 133 c 2,12,-1
 114 321 l 2,13,14
 114 379 114 379 99 427 c 128,-1,15
 84 475 84 475 64 495 c 0,16,17
 53 504 53 504 32 515.5 c 128,-1,18
 11 527 11 527 11 544 c 0,19,20
 11 570 11 570 41 570 c 0,21,22
 58 570 58 570 82 554 c 0,23,24
 114 530 114 530 134 490 c 0,25,26
 171 425 171 425 171 298 c 2,27,-1
 171 151 l 2,0,1
EndSplineSet
EndChar

StartChar: plus
Encoding: 43 43 14
Width: 514
GlyphClass: 2
Flags: W
LayerCount: 2
Back
Fore
SplineSet
469 192 m 1,0,-1
 300 192 l 1,1,-1
 300 11 l 1,2,-1
 230 11 l 1,3,-1
 230 192 l 1,4,-1
 61 192 l 1,5,-1
 61 266 l 1,6,-1
 230 266 l 1,7,-1
 230 441 l 1,8,-1
 300 441 l 1,9,-1
 300 266 l 1,10,-1
 469 266 l 1,11,-1
 469 192 l 1,0,-1
EndSplineSet
EndChar

StartChar: comma
Encoding: 44 44 15
Width: 186
GlyphClass: 2
Flags: W
LayerCount: 2
Back
Fore
SplineSet
126 28 m 0,0,1
 126 -13 126 -13 109.5 -46 c 128,-1,2
 93 -79 93 -79 58 -98 c 0,3,4
 46 -106 46 -106 32.5 -98.5 c 128,-1,5
 19 -91 19 -91 19 -76 c 0,6,7
 19 -72 19 -72 53 -40 c 0,8,9
 68 -24 68 -24 69 -13 c 1,10,11
 29 -17 29 -17 29 33 c 0,12,13
 29 77 29 77 75 77 c 0,14,15
 126 77 126 77 126 28 c 0,0,1
EndSplineSet
EndChar

StartChar: hyphen
Encoding: 45 45 16
Width: 410
GlyphClass: 2
Flags: W
LayerCount: 2
Back
Fore
SplineSet
351 243 m 2,0,1
 370 243 370 243 370 214 c 0,2,3
 370 186 370 186 347 186 c 2,4,-1
 54 186 l 2,5,6
 27 186 27 186 27 212 c 0,7,8
 27 243 27 243 58 243 c 2,9,-1
 351 243 l 2,0,1
EndSplineSet
EndChar

StartChar: period
Encoding: 46 46 17
Width: 176
GlyphClass: 2
Flags: W
LayerCount: 2
Back
Fore
SplineSet
140 33 m 0,0,1
 140 12 140 12 124 -2 c 128,-1,2
 108 -16 108 -16 88 -16 c 0,3,4
 67 -16 67 -16 51.5 -3.5 c 128,-1,5
 36 9 36 9 36 33 c 0,6,7
 36 55 36 55 50 69 c 128,-1,8
 64 83 64 83 88 83 c 0,9,10
 110 83 110 83 125 69 c 128,-1,11
 140 55 140 55 140 33 c 0,0,1
EndSplineSet
EndChar

StartChar: slash
Encoding: 47 47 18
Width: 196
GlyphClass: 2
Flags: W
LayerCount: 2
Back
Fore
SplineSet
227 531 m 1,0,-1
 16 -113 l 1,1,2
 16 -134 16 -134 -15 -134 c 256,3,4
 -46 -134 -46 -134 -46 -109 c 1,5,-1
 165 531 l 1,6,7
 165 558 165 558 194 558 c 0,8,9
 227 558 227 558 227 531 c 1,0,-1
EndSplineSet
EndChar

StartChar: zero
Encoding: 48 48 19
Width: 505
GlyphClass: 2
Flags: W
LayerCount: 2
Back
Fore
SplineSet
463 281 m 0,0,1
 463 -16 463 -16 246 -16 c 0,2,3
 139 -16 139 -16 86 45 c 0,4,5
 27 113 27 113 27 277 c 0,6,7
 27 437 27 437 82.5 508.5 c 128,-1,8
 138 580 138 580 246 580 c 0,9,10
 463 580 463 580 463 281 c 0,0,1
401 272 m 0,11,12
 401 411 401 411 363.5 465.5 c 128,-1,13
 326 520 326 520 243 520 c 256,14,15
 160 520 160 520 126.5 463 c 128,-1,16
 93 406 93 406 93 269 c 0,17,18
 93 151 93 151 122 98 c 0,19,20
 157 39 157 39 243 39 c 0,21,22
 330 39 330 39 365.5 88.5 c 128,-1,23
 401 138 401 138 401 272 c 0,11,12
EndSplineSet
EndChar

StartChar: one
Encoding: 49 49 20
Width: 284
GlyphClass: 2
Flags: W
LayerCount: 2
Back
Fore
SplineSet
205 12 m 2,0,1
 205 -15 205 -15 179 -16 c 0,2,3
 145 -16 145 -16 145 16 c 2,4,-1
 145 407 l 1,5,-1
 78 407 l 2,6,7
 45 407 45 407 45 444 c 0,8,9
 45 468 45 468 74 468 c 0,10,11
 95 468 95 468 113 476.5 c 128,-1,12
 131 485 131 485 138 502 c 2,13,-1
 148 543 l 2,14,15
 153 568 153 568 179 568 c 256,16,17
 205 568 205 568 205 542 c 2,18,-1
 205 12 l 2,0,1
EndSplineSet
EndChar

StartChar: two
Encoding: 50 50 21
Width: 536
GlyphClass: 2
Flags: W
LayerCount: 2
Back
Fore
SplineSet
497 16 m 0,0,1
 497 -16 497 -16 468 -16 c 2,2,-1
 29 -16 l 1,3,-1
 28 29 l 2,4,5
 28 176 28 176 131 236 c 0,6,7
 161 253 161 253 251.5 275 c 128,-1,8
 342 297 342 297 369 317 c 0,9,10
 421 348 421 348 421 403 c 0,11,12
 421 509 421 509 276 509 c 0,13,14
 177 509 177 509 136 463 c 0,15,16
 105 428 105 428 105 359 c 0,17,18
 105 329 105 329 74 329 c 256,19,20
 43 329 43 329 43 365 c 0,21,22
 43 482 43 482 120 534 c 0,23,24
 168 566 168 566 281 566 c 0,25,26
 364 566 364 566 416 529 c 0,27,28
 479 484 479 484 479 409 c 0,29,30
 479 321 479 321 413 274 c 0,31,32
 376 252 376 252 278 224 c 1,33,34
 183 203 183 203 148 176 c 0,35,36
 95 135 95 135 95 47 c 1,37,-1
 460 47 l 2,38,39
 497 47 497 47 497 16 c 0,0,1
EndSplineSet
EndChar

StartChar: three
Encoding: 51 51 22
Width: 503
GlyphClass: 2
Flags: W
LayerCount: 2
Back
Fore
SplineSet
463 169 m 0,0,1
 463 84 463 84 403 34 c 128,-1,2
 343 -16 343 -16 233 -16 c 0,3,4
 135 -16 135 -16 78 48 c 0,5,6
 27 103 27 103 27 178 c 0,7,8
 27 213 27 213 60 213 c 0,9,10
 85 213 85 213 89 187 c 1,11,12
 89 116 89 116 126.5 80.5 c 128,-1,13
 164 45 164 45 236 45 c 0,14,15
 399 45 399 45 399 169 c 0,16,17
 399 271 399 271 291 271 c 2,18,-1
 195 271 l 2,19,20
 170 271 170 271 170 300 c 0,21,22
 170 334 170 334 202 334 c 2,23,-1
 267 334 l 2,24,25
 312 334 312 334 346 360 c 0,26,27
 384 386 384 386 384 428 c 0,28,29
 384 475 384 475 349 500 c 128,-1,30
 314 525 314 525 255 525 c 0,31,32
 139 525 139 525 110 442 c 1,33,-1
 100 397 l 2,34,35
 96 371 96 371 70 371 c 0,36,37
 38 371 38 371 38 409 c 0,38,39
 38 463 38 463 73.5 508.5 c 128,-1,40
 109 554 109 554 159 572 c 1,41,42
 201 581 201 581 253 581 c 0,43,44
 339 581 339 581 392.5 544.5 c 128,-1,45
 446 508 446 508 446 434 c 0,46,47
 446 356 446 356 382 313 c 1,48,49
 463 282 463 282 463 169 c 0,0,1
EndSplineSet
EndChar

StartChar: four
Encoding: 52 52 23
Width: 520
GlyphClass: 2
Flags: W
LayerCount: 2
Back
Fore
SplineSet
451 194 m 2,0,1
 475 194 475 194 479 167 c 1,2,3
 479 132 479 132 445 132 c 2,4,-1
 390 132 l 1,5,-1
 390 11 l 2,6,7
 390 -16 390 -16 359 -16 c 0,8,9
 327 -16 327 -16 327 8 c 2,10,-1
 327 132 l 1,11,-1
 65 132 l 2,12,13
 27 132 27 132 27 167 c 0,14,15
 27 190 27 190 40 205 c 2,16,-1
 298 532 l 2,17,18
 326 564 326 564 356 564 c 0,19,20
 390 564 390 564 390 530 c 2,21,-1
 390 194 l 1,22,-1
 451 194 l 2,0,1
327 194 m 1,23,-1
 327 472 l 1,24,-1
 111 194 l 1,25,-1
 327 194 l 1,23,-1
EndSplineSet
EndChar

StartChar: five
Encoding: 53 53 24
Width: 507
GlyphClass: 2
Flags: W
LayerCount: 2
Back
Fore
SplineSet
469 184 m 0,0,1
 469 88 469 88 403 33 c 0,2,3
 373 10 373 10 329 -3 c 128,-1,4
 285 -16 285 -16 233 -16 c 0,5,6
 140 -16 140 -16 84 33.5 c 128,-1,7
 28 83 28 83 28 152 c 0,8,9
 28 184 28 184 57 184 c 0,10,11
 77 184 77 184 89 165 c 1,12,-1
 102 121 l 1,13,14
 131 39 131 39 234 39 c 0,15,16
 315 39 315 39 362.5 80.5 c 128,-1,17
 410 122 410 122 410 190 c 0,18,19
 410 343 410 343 253 343 c 0,20,21
 213 343 213 343 183.5 335.5 c 128,-1,22
 154 328 154 328 132 311 c 0,23,24
 123 305 123 305 104 283 c 0,25,26
 91 267 91 267 73 266 c 0,27,28
 30 266 30 266 35 311 c 2,29,-1
 68 558 l 1,30,-1
 406 558 l 2,31,32
 441 558 441 558 441 528 c 256,33,34
 441 498 441 498 408 498 c 2,35,-1
 125 498 l 1,36,-1
 107 365 l 1,37,38
 153 404 153 404 261 404 c 0,39,40
 469 404 469 404 469 184 c 0,0,1
EndSplineSet
EndChar

StartChar: six
Encoding: 54 54 25
Width: 507
GlyphClass: 2
Flags: W
LayerCount: 2
Back
Fore
SplineSet
466 180 m 0,0,1
 466 -16 466 -16 236 -16 c 0,2,3
 27 -16 27 -16 27 281 c 0,4,5
 27 426 27 426 89 505 c 0,6,7
 145 574 145 574 264 574 c 0,8,9
 350 574 350 574 403 523 c 0,10,11
 448 479 448 479 448 426 c 0,12,13
 448 400 448 400 421 398 c 0,14,15
 398 398 398 398 384 433 c 0,16,17
 370 477 370 477 358 490 c 0,18,19
 328 517 328 517 259 517 c 0,20,21
 86 517 86 517 86 310 c 1,22,23
 130 384 130 384 275 384 c 0,24,25
 358 384 358 384 412 328 c 128,-1,26
 466 272 466 272 466 180 c 0,0,1
406 181 m 0,27,28
 406 240 406 240 370 282.5 c 128,-1,29
 334 325 334 325 264 325 c 0,30,31
 162 325 162 325 119 262 c 0,32,33
 101 237 101 237 101 178 c 0,34,35
 101 39 101 39 251 39 c 0,36,37
 323 39 323 39 364.5 76.5 c 128,-1,38
 406 114 406 114 406 181 c 0,27,28
EndSplineSet
EndChar

StartChar: seven
Encoding: 55 55 26
Width: 509
GlyphClass: 2
Flags: W
LayerCount: 2
Back
Fore
SplineSet
457 470 m 0,0,1
 386 394 386 394 320 274 c 0,2,3
 247 132 247 132 229 8 c 0,4,5
 227 -14 227 -14 198 -16 c 0,6,7
 159 -16 159 -16 165 20 c 0,8,9
 230 302 230 302 388 483 c 1,10,-1
 57 483 l 2,11,12
 27 483 27 483 27 513 c 256,13,14
 27 543 27 543 51 543 c 2,15,-1
 437 543 l 2,16,17
 469 543 469 543 469 504 c 0,18,19
 469 482 469 482 457 470 c 0,0,1
EndSplineSet
EndChar

StartChar: eight
Encoding: 56 56 27
Width: 505
GlyphClass: 2
Flags: W
LayerCount: 2
Back
Fore
SplineSet
463 170 m 0,0,1
 463 85 463 85 402.5 34.5 c 128,-1,2
 342 -16 342 -16 242 -16 c 256,3,4
 142 -16 142 -16 84.5 34.5 c 128,-1,5
 27 85 27 85 27 172 c 0,6,7
 27 273 27 273 107 309 c 1,8,9
 51 348 51 348 51 418 c 0,10,11
 51 580 51 580 251 580 c 0,12,13
 339 580 339 580 392.5 542 c 128,-1,14
 446 504 446 504 446 428 c 0,15,16
 446 354 446 354 389 317 c 1,17,18
 463 280 463 280 463 170 c 0,0,1
382 424 m 0,19,20
 382 524 382 524 258 524 c 0,21,22
 183 524 183 524 147 495.5 c 128,-1,23
 111 467 111 467 111 426 c 0,24,25
 111 333 111 333 242 333 c 0,26,27
 382 333 382 333 382 424 c 0,19,20
403 170 m 0,28,29
 403 243 403 243 354 263 c 0,30,31
 323 275 323 275 241 275 c 0,32,33
 164 275 164 275 126 251 c 1,34,35
 93 224 93 224 93 160 c 0,36,37
 93 112 93 112 136 78 c 128,-1,38
 179 44 179 44 242 44 c 0,39,40
 320 44 320 44 361.5 78.5 c 128,-1,41
 403 113 403 113 403 170 c 0,28,29
EndSplineSet
EndChar

StartChar: nine
Encoding: 57 57 28
Width: 513
GlyphClass: 2
Flags: W
LayerCount: 2
Back
Fore
SplineSet
471 303 m 0,0,1
 471 129 471 129 406 51 c 0,2,3
 348 -16 348 -16 230 -16 c 0,4,5
 136 -16 136 -16 82 44 c 0,6,7
 42 86 42 86 42 130 c 0,8,9
 42 162 42 162 68 162 c 0,10,11
 97 162 97 162 104 126 c 0,12,13
 124 39 124 39 242 39 c 0,14,15
 326 39 326 39 370 105 c 0,16,17
 389 135 389 135 399.5 175 c 128,-1,18
 410 215 410 215 410 247 c 1,19,20
 375 177 375 177 221 177 c 0,21,22
 122 177 122 177 66 248 c 1,23,24
 27 304 27 304 27 374 c 0,25,26
 27 465 27 465 81.5 523 c 128,-1,27
 136 581 136 581 242 581 c 0,28,29
 471 581 471 581 471 303 c 0,0,1
399 371 m 0,30,31
 399 525 399 525 238 525 c 0,32,33
 164 525 164 525 127 486 c 0,34,35
 86 446 86 446 86 381 c 0,36,37
 86 235 86 235 233 235 c 0,38,39
 311 235 311 235 355 271.5 c 128,-1,40
 399 308 399 308 399 371 c 0,30,31
EndSplineSet
EndChar

StartChar: colon
Encoding: 58 58 29
Width: 153
GlyphClass: 2
Flags: W
LayerCount: 2
Back
Fore
SplineSet
140 345 m 0,0,1
 140 324 140 324 124 309 c 128,-1,2
 108 294 108 294 88 294 c 0,3,4
 67 294 67 294 51.5 307.5 c 128,-1,5
 36 321 36 321 36 345 c 0,6,7
 36 394 36 394 88 394 c 0,8,9
 110 394 110 394 125 379 c 128,-1,10
 140 364 140 364 140 345 c 0,0,1
140 33 m 0,11,12
 140 12 140 12 124 -2 c 128,-1,13
 108 -16 108 -16 88 -16 c 0,14,15
 67 -16 67 -16 51.5 -3.5 c 128,-1,16
 36 9 36 9 36 33 c 0,17,18
 36 55 36 55 50 69 c 128,-1,19
 64 83 64 83 88 83 c 0,20,21
 110 83 110 83 125 69 c 128,-1,22
 140 55 140 55 140 33 c 0,11,12
EndSplineSet
EndChar

StartChar: semicolon
Encoding: 59 59 30
Width: 144
GlyphClass: 2
Flags: W
LayerCount: 2
Back
Fore
SplineSet
140 345 m 0,0,1
 140 324 140 324 125 309 c 128,-1,2
 110 294 110 294 89 294 c 256,3,4
 68 294 68 294 53 307.5 c 128,-1,5
 38 321 38 321 38 345 c 0,6,7
 38 394 38 394 89 394 c 0,8,9
 112 394 112 394 126 379 c 128,-1,10
 140 364 140 364 140 345 c 0,0,1
135 28 m 0,11,12
 135 -13 135 -13 118.5 -46 c 128,-1,13
 102 -79 102 -79 67 -98 c 0,14,15
 55 -106 55 -106 41.5 -98.5 c 128,-1,16
 28 -91 28 -91 28 -76 c 0,17,18
 28 -72 28 -72 62 -40 c 0,19,20
 77 -24 77 -24 78 -13 c 1,21,22
 38 -17 38 -17 38 33 c 0,23,24
 38 77 38 77 84 77 c 0,25,26
 135 77 135 77 135 28 c 0,11,12
EndSplineSet
EndChar

StartChar: equal
Encoding: 61 61 32
Width: 441
GlyphClass: 2
Flags: W
LayerCount: 2
Back
Fore
SplineSet
378 333 m 2,0,1
 397 333 397 333 397 306 c 0,2,3
 397 278 397 278 373 278 c 2,4,-1
 54 278 l 2,5,6
 27 278 27 278 27 303 c 0,7,8
 27 333 27 333 58 333 c 2,9,-1
 378 333 l 2,0,1
378 152 m 2,10,11
 397 152 397 152 397 124 c 256,12,13
 397 96 397 96 373 96 c 2,14,-1
 54 96 l 2,15,16
 27 96 27 96 27 120 c 0,17,18
 27 152 27 152 58 152 c 2,19,-1
 378 152 l 2,10,11
EndSplineSet
EndChar

StartChar: question
Encoding: 63 63 34
Width: 475
GlyphClass: 2
Flags: W
LayerCount: 2
Back
Fore
SplineSet
457 419 m 0,0,1
 457 302 457 302 369.5 269 c 128,-1,2
 282 236 282 236 282 168 c 1,3,-1
 285 136 l 2,4,5
 285 103 285 103 253 103 c 0,6,7
 238 103 238 103 230.5 114 c 128,-1,8
 223 125 223 125 223 139 c 0,9,10
 223 187 223 187 237.5 228 c 128,-1,11
 252 269 252 269 278 290 c 1,12,13
 333 316 333 316 358 331 c 0,14,15
 402 355 402 355 402 408 c 0,16,17
 402 472 402 472 368.5 501 c 128,-1,18
 335 530 335 530 258 530 c 0,19,20
 178 530 178 530 144.5 488 c 128,-1,21
 111 446 111 446 111 372 c 0,22,23
 111 337 111 337 78 337 c 0,24,25
 65 337 65 337 58 351 c 128,-1,26
 51 365 51 365 51 379 c 0,27,28
 51 475 51 475 102.5 533.5 c 128,-1,29
 154 592 154 592 250 592 c 0,30,31
 364 592 364 592 416 534 c 0,32,33
 457 491 457 491 457 419 c 0,0,1
299 28 m 0,34,35
 299 8 299 8 286 -4 c 128,-1,36
 273 -16 273 -16 253 -16 c 0,37,38
 207 -16 207 -16 207 28 c 0,39,40
 207 75 207 75 254 75 c 0,41,42
 299 75 299 75 299 28 c 0,34,35
EndSplineSet
EndChar

StartChar: Nukta
Encoding: 2364 2364 104
Width: 0
GlyphClass: 2
Flags: W
LayerCount: 2
Back
Fore
SplineSet
759 936 m 0,0,1
 759 910 759 910 737 910 c 2,2,-1
 350 910 l 2,3,4
 308 910 308 910 284 942 c 128,-1,5
 260 974 260 974 260 1020 c 0,6,7
 260 1053 260 1053 284.5 1081 c 128,-1,8
 309 1109 309 1109 349 1109 c 0,9,10
 383 1109 383 1109 407.5 1084 c 128,-1,11
 432 1059 432 1059 432 1023 c 0,12,13
 432 991 432 991 413 962 c 1,14,-1
 740 962 l 2,15,16
 746 962 746 962 752.5 955 c 128,-1,17
 759 948 759 948 759 936 c 0,0,1
401 1010 m 0,18,19
 401 1031 401 1031 386 1044.5 c 128,-1,20
 371 1058 371 1058 348 1058 c 256,21,22
 325 1058 325 1058 307.5 1045 c 128,-1,23
 290 1032 290 1032 290 1010 c 0,24,25
 290 987 290 987 305 973.5 c 128,-1,26
 320 960 320 960 347 960 c 0,27,28
 371 960 371 960 386 972.5 c 128,-1,29
 401 985 401 985 401 1010 c 0,18,19
EndSplineSet
EndChar

StartChar: uni0950
Encoding: 2384 2384 105
Width: 758
GlyphClass: 2
Flags: W
LayerCount: 2
Back
Fore
SplineSet
36 330 m 1,0,-1
 62 337 l 1,1,2
 81 214 81 214 143.5 137.5 c 128,-1,3
 206 61 206 61 286 61 c 0,4,5
 329 61 329 61 359 92 c 128,-1,6
 389 123 389 123 389 167 c 0,7,8
 389 249 389 249 323 316 c 1,9,10
 289 269 289 269 241 247 c 1,11,-1
 209 322 l 1,12,13
 316 354 316 354 316 424 c 0,14,15
 316 450 316 450 300 463.5 c 128,-1,16
 284 477 284 477 251 477 c 0,17,18
 203 477 203 477 151 449 c 1,19,-1
 119 524 l 1,20,21
 163 546 163 546 211 546 c 0,22,23
 272 546 272 546 311 505.5 c 128,-1,24
 350 465 350 465 350 400 c 0,25,26
 350 372 350 372 339 350 c 1,27,-1
 352 337 l 1,28,29
 413 396 413 396 468 396 c 0,30,31
 473 396 473 396 483 394 c 1,32,33
 504 505 504 505 595 505 c 0,34,35
 655 505 655 505 685 456.5 c 128,-1,36
 715 408 715 408 715 310 c 0,37,38
 715 211 715 211 677.5 153 c 128,-1,39
 640 95 640 95 577 95 c 0,40,41
 533 95 533 95 514 123 c 128,-1,42
 495 151 495 151 495 219 c 2,43,-1
 495 253 l 2,44,45
 495 315 495 315 462 315 c 0,46,47
 434 315 434 315 391 286 c 1,48,49
 450 206 450 206 450 133 c 0,50,51
 450 73 450 73 411 36 c 128,-1,52
 372 -1 372 -1 307 -1 c 0,53,54
 203 -1 203 -1 125.5 93.5 c 128,-1,55
 48 188 48 188 36 330 c 1,0,-1
505 386 m 1,56,57
 529 374 529 374 529 327 c 2,58,-1
 529 273 l 1,59,-1
 529 245 l 2,60,61
 529 162 529 162 580 162 c 0,62,63
 623 162 623 162 652 202.5 c 128,-1,64
 681 243 681 243 681 305 c 0,65,66
 681 364 681 364 654.5 401 c 128,-1,67
 628 438 628 438 587 438 c 0,68,69
 530 438 530 438 505 386 c 1,56,57
262 618 m 1,70,-1
 285 634 l 1,71,72
 328 579 328 579 386 579 c 0,73,74
 442 579 442 579 483 634 c 1,75,-1
 545 582 l 1,76,77
 484 516 484 516 422 516 c 0,78,79
 328 516 328 516 262 618 c 1,70,-1
396 708 m 1,80,-1
 444 659 l 1,81,-1
 396 613 l 1,82,-1
 349 663 l 1,83,-1
 396 708 l 1,80,-1
EndSplineSet
EndChar

StartChar: Udatta
Encoding: 2385 2385 106
Width: 0
GlyphClass: 4
Flags: W
LayerCount: 2
Back
Fore
SplineSet
282 930 m 1,0,-1
 282 1294 l 1,1,-1
 365 1294 l 1,2,-1
 365 930 l 1,3,-1
 282 930 l 1,4,-1
 282 930 l 1,0,-1
EndSplineSet
EndChar

StartChar: Anudatta
Encoding: 2386 2386 107
Width: 0
GlyphClass: 4
Flags: W
LayerCount: 2
Back
Fore
SplineSet
121 -425 m 1,0,-1
 523 -425 l 1,1,-1
 523 -516 l 1,2,-1
 121 -516 l 1,3,-1
 121 -425 l 1,4,-1
 121 -425 l 1,0,-1
EndSplineSet
EndChar

StartChar: KaHalanth
Encoding: 2387 2387 108
Width: 508
GlyphClass: 3
Flags: W
AnchorPoint: "Anchor-0" 0 0 basechar 0
LayerCount: 2
Back
Fore
SplineSet
321 425 m 1,0,1
 364 416 364 416 399 394 c 0,2,3
 455 356 455 356 455 304 c 1,4,-1
 394 304 l 1,5,6
 389 330 389 330 351 346 c 0,7,8
 313 364 313 364 259 364 c 0,9,10
 204 364 204 364 165 348 c 0,11,12
 126 333 126 333 126 310 c 0,13,14
 126 293 126 293 148 280 c 0,15,16
 170 268 170 268 200 268 c 2,17,-1
 351 268 l 2,18,19
 415 268 415 268 453 235 c 0,20,21
 491 201 491 201 491 146 c 0,22,23
 491 74 491 74 430 34 c 0,24,25
 370 -6 370 -6 260 -6 c 0,26,27
 156 -6 156 -6 93 35 c 0,28,29
 30 78 30 78 30 146 c 1,30,-1
 90 146 l 1,31,32
 90 114 90 114 140 90 c 0,33,34
 190 68 190 68 260 68 c 0,35,36
 338 68 338 68 384 89 c 256,37,38
 430 110 430 110 430 146 c 0,39,40
 430 171 430 171 405 189 c 0,41,42
 380 206 380 206 345 206 c 2,43,-1
 194 206 l 2,44,45
 141 206 141 206 104 235 c 0,46,47
 66 264 66 264 66 304 c 0,48,49
 66 356 66 356 123 394 c 1,50,51
 121 395 121 395 119 398 c 0,52,53
 96 420 96 420 96 450 c 0,54,55
 96 470 96 470 106 488 c 0,56,57
 115 505 115 505 133 516 c 1,58,59
 115 529 115 529 106 545 c 0,60,61
 96 561 96 561 96 578 c 0,62,63
 96 608 96 608 116 629 c 0,64,65
 135 650 135 650 163 650 c 2,66,-1
 473 650 l 1,67,-1
 473 589 l 1,68,-1
 188 589 l 2,69,70
 175 589 175 589 166 581 c 0,71,72
 158 575 158 575 158 565 c 256,73,74
 158 555 158 555 166 548 c 0,75,76
 175 540 175 540 188 540 c 2,77,-1
 388 540 l 1,78,-1
 388 480 l 1,79,-1
 188 480 l 2,80,81
 175 480 175 480 166 471 c 0,82,83
 158 463 158 463 158 450 c 0,84,85
 158 443 158 443 163 436 c 0,86,87
 168 431 168 431 175 431 c 2,88,-1
 321 431 l 1,89,-1
 321 425 l 1,0,1
EndSplineSet
Ligature2: "'haln' Halant Forms in Telugu lookup 19 subtable" Ka Halanth
EndChar

StartChar: DEVANAGARI_DANDA
Encoding: 2404 2404 109
Width: 245
GlyphClass: 2
Flags: W
LayerCount: 2
Back
Fore
SplineSet
125 -37 m 1,0,-1
 125 456 l 1,1,-1
 186 456 l 1,2,-1
 186 -37 l 1,3,-1
 125 -37 l 1,4,-1
 125 -37 l 1,0,-1
EndSplineSet
EndChar

StartChar: DEVANAGARI_DOUBLE_DANDA
Encoding: 2405 2405 110
Width: 439
GlyphClass: 2
Flags: W
LayerCount: 2
Back
Fore
SplineSet
125 -37 m 1,0,-1
 125 456 l 1,1,-1
 186 456 l 1,2,-1
 186 -37 l 1,3,-1
 125 -37 l 1,4,-1
 125 -37 l 1,0,-1
319 -37 m 1,5,-1
 319 456 l 1,6,-1
 380 456 l 1,7,-1
 380 -37 l 1,8,-1
 319 -37 l 1,9,-1
 319 -37 l 1,5,-1
EndSplineSet
EndChar

StartChar: Arasunna
Encoding: 3073 3073 111
Width: 287
GlyphClass: 2
Flags: W
LayerCount: 2
Back
Fore
SplineSet
209 0 m 1,0,1
 137 0 137 0 84 63 c 0,2,3
 33 125 33 125 33 213 c 0,4,5
 33 300 33 300 84 363 c 0,6,7
 137 425 137 425 209 425 c 2,8,-1
 252 425 l 1,9,-1
 252 364 l 1,10,-1
 228 364 l 2,11,12
 173 364 173 364 133 320 c 0,13,14
 94 275 94 275 94 213 c 0,15,16
 94 150 94 150 136 105 c 0,17,18
 176 61 176 61 233 61 c 2,19,-1
 276 61 l 1,20,-1
 276 0 l 1,21,-1
 209 0 l 1,22,-1
 209 0 l 1,0,1
EndSplineSet
EndChar

StartChar: Anusvara
Encoding: 3074 3074 112
Width: 530
GlyphClass: 2
Flags: W
LayerCount: 2
Back
Fore
SplineSet
268 0 m 1,0,1
 169 0 169 0 100 63 c 0,2,3
 30 125 30 125 30 213 c 0,4,5
 30 300 30 300 100 363 c 0,6,7
 169 425 169 425 268 425 c 0,8,9
 365 425 365 425 435 363 c 0,10,11
 504 300 504 300 504 213 c 0,12,13
 504 125 504 125 435 63 c 0,14,15
 365 0 365 0 268 0 c 1,16,-1
 268 0 l 1,0,1
268 61 m 1,17,18
 340 61 340 61 393 105 c 0,19,20
 444 150 444 150 444 213 c 0,21,22
 444 278 444 278 393 324 c 0,23,24
 340 370 340 370 268 370 c 0,25,26
 195 370 195 370 143 324 c 256,27,28
 91 278 91 278 91 213 c 0,29,30
 91 150 91 150 143 105 c 0,31,32
 195 61 195 61 268 61 c 1,33,-1
 268 61 l 1,17,18
EndSplineSet
EndChar

StartChar: Visarga
Encoding: 3075 3075 113
Width: 298
GlyphClass: 4
Flags: W
LayerCount: 2
Back
Fore
SplineSet
150 0 m 1,0,1
 103 0 103 0 69 26 c 0,2,3
 35 54 35 54 35 91 c 0,4,5
 35 129 35 129 69 156 c 256,6,7
 103 183 103 183 150 183 c 0,8,9
 199 183 199 183 233 156 c 0,10,11
 266 129 266 129 266 91 c 0,12,13
 266 54 266 54 233 26 c 0,14,15
 199 0 199 0 150 0 c 1,16,-1
 150 0 l 1,0,1
150 61 m 1,17,18
 173 61 173 61 189 70 c 256,19,20
 205 79 205 79 205 91 c 0,21,22
 205 104 205 104 189 113 c 0,23,24
 173 121 173 121 150 121 c 0,25,26
 128 121 128 121 113 113 c 0,27,28
 96 104 96 104 96 91 c 0,29,30
 96 79 96 79 113 70 c 0,31,32
 128 61 128 61 150 61 c 1,33,-1
 150 61 l 1,17,18
150 243 m 1,34,35
 103 243 103 243 69 269 c 0,36,37
 35 296 35 296 35 334 c 0,38,39
 35 371 35 371 69 399 c 0,40,41
 103 425 103 425 150 425 c 0,42,43
 199 425 199 425 233 399 c 0,44,45
 266 371 266 371 266 334 c 0,46,47
 266 296 266 296 233 269 c 0,48,49
 199 243 199 243 150 243 c 1,50,-1
 150 243 l 1,34,35
150 304 m 1,51,52
 173 304 173 304 189 313 c 0,53,54
 205 321 205 321 205 334 c 0,55,56
 205 346 205 346 189 355 c 256,57,58
 173 364 173 364 150 364 c 0,59,60
 128 364 128 364 113 355 c 0,61,62
 96 346 96 346 96 334 c 0,63,64
 96 321 96 321 113 313 c 0,65,66
 128 304 128 304 150 304 c 1,67,-1
 150 304 l 1,51,52
EndSplineSet
EndChar

StartChar: uni0C05
Encoding: 3077 3077 114
Width: 630
GlyphClass: 2
Flags: W
LayerCount: 2
Back
Fore
SplineSet
340 0 m 1,0,1
 199 0 199 0 115 66 c 0,2,3
 30 133 30 133 30 243 c 0,4,5
 30 329 30 329 75 380 c 256,6,7
 120 431 120 431 194 431 c 0,8,9
 236 431 236 431 268 401 c 0,10,11
 298 370 298 370 298 328 c 0,12,13
 298 283 298 283 268 250 c 0,14,15
 236 219 236 219 194 219 c 0,16,17
 160 219 160 219 134 233 c 0,18,19
 108 245 108 245 98 268 c 1,20,21
 94 264 94 264 93 253 c 0,22,23
 91 243 91 243 91 225 c 0,24,25
 91 159 91 159 159 106 c 0,26,27
 228 55 228 55 315 55 c 0,28,29
 414 55 414 55 483 106 c 0,30,31
 553 159 553 159 553 231 c 0,32,33
 553 289 553 289 520 329 c 0,34,35
 488 370 488 370 443 370 c 0,36,37
 413 370 413 370 391 350 c 0,38,39
 370 331 370 331 370 304 c 0,40,41
 370 274 370 274 390 250 c 256,42,43
 410 226 410 226 443 219 c 1,44,-1
 443 134 l 1,45,-1
 188 134 l 1,46,-1
 188 194 l 1,47,-1
 376 194 l 1,48,49
 348 210 348 210 331 241 c 0,50,51
 315 273 315 273 315 310 c 0,52,53
 315 358 315 358 353 391 c 0,54,55
 390 425 390 425 443 425 c 0,56,57
 513 425 513 425 563 371 c 0,58,59
 613 318 613 318 613 243 c 0,60,61
 613 143 613 143 533 71 c 0,62,63
 453 0 453 0 340 0 c 1,64,-1
 340 0 l 1,0,1
188 279 m 1,65,66
 208 279 208 279 223 291 c 0,67,68
 236 304 236 304 236 321 c 0,69,70
 236 341 236 341 223 356 c 0,71,72
 208 370 208 370 188 370 c 256,73,74
 168 370 168 370 154 356 c 0,75,76
 140 341 140 341 140 321 c 0,77,78
 140 304 140 304 154 291 c 0,79,80
 168 279 168 279 188 279 c 1,81,-1
 188 279 l 1,65,66
EndSplineSet
EndChar

StartChar: AA
Encoding: 3078 3078 115
Width: 600
GlyphClass: 2
Flags: W
LayerCount: 2
Back
Fore
SplineSet
334 0 m 1,0,1
 196 0 196 0 113 66 c 0,2,3
 30 133 30 133 30 243 c 0,4,5
 30 329 30 329 75 380 c 256,6,7
 120 431 120 431 194 431 c 0,8,9
 236 431 236 431 268 401 c 0,10,11
 298 370 298 370 298 328 c 0,12,13
 298 283 298 283 268 250 c 0,14,15
 236 219 236 219 194 219 c 0,16,17
 159 219 159 219 133 230 c 0,18,19
 106 241 106 241 98 261 c 1,20,21
 95 258 95 258 93 249 c 0,22,23
 91 239 91 239 91 225 c 0,24,25
 91 155 91 155 158 105 c 0,26,27
 223 55 223 55 315 55 c 0,28,29
 409 55 409 55 466 81 c 0,30,31
 523 108 523 108 523 151 c 0,32,33
 523 165 523 165 516 176 c 0,34,35
 509 189 509 189 498 194 c 1,36,37
 486 183 486 183 468 176 c 0,38,39
 449 170 449 170 425 170 c 2,40,-1
 261 170 l 1,41,-1
 261 231 l 1,42,-1
 413 231 l 1,43,44
 388 244 388 244 373 270 c 256,45,46
 358 296 358 296 358 328 c 0,47,48
 358 368 358 368 388 396 c 0,49,50
 419 425 419 425 461 425 c 0,51,52
 509 425 509 425 543 395 c 0,53,54
 576 364 576 364 576 321 c 0,55,56
 576 295 576 295 569 274 c 0,57,58
 561 251 561 251 546 236 c 1,59,60
 564 221 564 221 573 199 c 0,61,62
 583 175 583 175 583 146 c 0,63,64
 583 80 583 80 515 40 c 0,65,66
 446 0 446 0 334 0 c 1,67,-1
 334 0 l 1,0,1
188 279 m 1,68,69
 208 279 208 279 223 291 c 0,70,71
 236 304 236 304 236 321 c 0,72,73
 236 341 236 341 223 356 c 0,74,75
 208 370 208 370 188 370 c 0,76,77
 165 370 165 370 150 356 c 0,78,79
 134 341 134 341 134 321 c 0,80,81
 134 304 134 304 150 291 c 0,82,83
 165 279 165 279 188 279 c 1,84,-1
 188 279 l 1,68,69
468 274 m 1,85,86
 488 274 488 274 503 288 c 0,87,88
 516 301 516 301 516 321 c 0,89,90
 516 339 516 339 503 351 c 0,91,92
 488 364 488 364 468 364 c 256,93,94
 448 364 448 364 433 351 c 0,95,96
 419 339 419 339 419 321 c 0,97,98
 419 301 419 301 433 288 c 0,99,100
 448 274 448 274 468 274 c 1,101,-1
 468 274 l 1,85,86
EndSplineSet
EndChar

StartChar: uni0C07
Encoding: 3079 3079 116
Width: 557
GlyphClass: 2
Flags: W
LayerCount: 2
Back
Fore
SplineSet
261 0 m 1,0,1
 159 0 159 0 98 36 c 0,2,3
 36 73 36 73 36 134 c 0,4,5
 36 189 36 189 88 223 c 0,6,7
 139 255 139 255 225 255 c 0,8,9
 319 255 319 255 375 214 c 256,10,11
 431 173 431 173 431 104 c 1,12,13
 455 124 455 124 468 158 c 0,14,15
 480 193 480 193 480 236 c 0,16,17
 480 289 480 289 446 326 c 0,18,19
 413 364 413 364 364 364 c 0,20,21
 328 364 328 364 306 348 c 0,22,23
 285 331 285 331 285 304 c 1,24,-1
 225 304 l 1,25,26
 225 331 225 331 206 348 c 0,27,28
 189 364 189 364 158 364 c 0,29,30
 130 364 130 364 111 346 c 0,31,32
 91 329 91 329 91 304 c 1,33,-1
 30 304 l 1,34,35
 30 354 30 354 69 390 c 0,36,37
 109 425 109 425 164 425 c 0,38,39
 196 425 196 425 223 413 c 0,40,41
 249 399 249 399 261 376 c 1,42,43
 274 399 274 399 301 413 c 0,44,45
 329 425 329 425 364 425 c 0,46,47
 436 425 436 425 489 370 c 0,48,49
 540 315 540 315 540 236 c 0,50,51
 540 166 540 166 510 110 c 0,52,53
 481 54 481 54 431 30 c 1,54,-1
 431 -61 l 1,55,-1
 370 -61 l 1,56,-1
 370 10 l 1,57,58
 356 0 356 0 273 0 c 2,59,-1
 261 0 l 1,60,-1
 261 0 l 1,0,1
274 61 m 1,61,62
 345 61 345 61 370 73 c 1,63,-1
 370 98 l 2,64,65
 370 138 370 138 336 165 c 0,66,67
 303 194 303 194 255 194 c 2,68,-1
 189 194 l 2,69,70
 151 194 151 194 124 178 c 0,71,72
 98 163 98 163 98 140 c 0,73,74
 98 104 98 104 146 83 c 0,75,76
 194 61 194 61 274 61 c 1,77,-1
 274 61 l 1,61,62
EndSplineSet
EndChar

StartChar: II
Encoding: 3080 3080 117
Width: 847
GlyphClass: 2
Flags: W
LayerCount: 2
Back
Fore
SplineSet
331 0 m 1,0,1
 229 0 229 0 155 59 c 0,2,3
 83 118 83 118 83 200 c 2,4,-1
 83 243 l 1,5,-1
 10 243 l 1,6,-1
 10 304 l 1,7,-1
 95 304 l 1,8,9
 108 338 108 338 130 364 c 0,10,11
 151 389 151 389 180 401 c 1,12,13
 169 408 169 408 161 416 c 0,14,15
 155 424 155 424 155 431 c 2,16,-1
 155 498 l 1,17,-1
 216 498 l 1,18,-1
 216 449 l 2,19,20
 216 439 216 439 226 433 c 0,21,22
 238 425 238 425 253 425 c 2,23,-1
 301 425 l 1,24,-1
 301 504 l 2,25,26
 301 526 301 526 318 543 c 0,27,28
 334 559 334 559 356 559 c 2,29,-1
 544 559 l 1,30,-1
 544 498 l 1,31,-1
 399 498 l 2,32,33
 384 498 384 498 373 489 c 0,34,35
 361 480 361 480 361 468 c 2,36,-1
 361 425 l 1,37,38
 424 425 424 425 474 391 c 0,39,40
 524 359 524 359 544 304 c 1,41,-1
 654 304 l 2,42,43
 678 304 678 304 696 299 c 0,44,45
 715 294 715 294 726 285 c 1,46,47
 733 293 733 293 735 304 c 0,48,49
 739 314 739 314 739 328 c 0,50,51
 739 343 739 343 726 354 c 0,52,53
 714 364 714 364 696 364 c 0,54,55
 684 364 684 364 675 356 c 0,56,57
 666 350 666 350 666 340 c 1,58,-1
 605 340 l 1,59,60
 605 375 605 375 634 400 c 256,61,62
 663 425 663 425 703 425 c 256,63,64
 743 425 743 425 771 396 c 0,65,66
 800 368 800 368 800 328 c 0,67,68
 800 306 800 306 794 288 c 256,69,70
 788 270 788 270 775 255 c 1,71,72
 801 238 801 238 815 204 c 0,73,74
 830 170 830 170 830 128 c 0,75,76
 830 75 830 75 799 38 c 0,77,78
 766 0 766 0 721 0 c 0,79,80
 673 0 673 0 639 31 c 0,81,82
 605 64 605 64 605 109 c 0,83,84
 605 144 605 144 626 178 c 0,85,86
 646 211 646 211 684 236 c 1,87,88
 671 243 671 243 660 243 c 2,89,-1
 556 243 l 1,90,-1
 556 213 l 2,91,92
 556 125 556 125 490 63 c 0,93,94
 425 0 425 0 331 0 c 1,95,-1
 331 0 l 1,0,1
325 61 m 1,96,97
 395 61 395 61 445 104 c 0,98,99
 495 146 495 146 495 206 c 0,100,101
 495 218 495 218 489 243 c 1,102,-1
 148 243 l 1,103,104
 144 233 144 233 144 206 c 0,105,106
 144 146 144 146 196 104 c 0,107,108
 250 61 250 61 325 61 c 1,109,-1
 325 61 l 1,96,97
168 304 m 1,110,-1
 471 304 l 1,111,112
 458 334 458 334 414 353 c 0,113,114
 371 370 371 370 311 370 c 0,115,116
 259 370 259 370 220 353 c 0,117,118
 181 334 181 334 168 304 c 1,119,-1
 168 304 l 1,110,-1
715 61 m 1,120,121
 738 61 738 61 753 83 c 0,122,123
 769 104 769 104 769 134 c 0,124,125
 769 155 769 155 761 175 c 0,126,127
 754 195 754 195 739 213 c 1,128,129
 721 191 721 191 709 183 c 0,130,131
 689 168 689 168 678 149 c 0,132,133
 666 129 666 129 666 109 c 256,134,135
 666 89 666 89 680 75 c 0,136,137
 695 61 695 61 715 61 c 1,138,-1
 715 61 l 1,120,121
EndSplineSet
EndChar

StartChar: uni0C09
Encoding: 3081 3081 118
Width: 622
GlyphClass: 2
Flags: W
LayerCount: 2
Back
Fore
SplineSet
240 0 m 1,0,1
 175 0 175 0 129 48 c 256,2,3
 83 96 83 96 83 164 c 0,4,5
 83 215 83 215 93 243 c 1,6,-1
 10 243 l 1,7,-1
 10 304 l 1,8,-1
 106 304 l 1,9,10
 134 360 134 360 186 393 c 0,11,12
 239 425 239 425 301 425 c 2,13,-1
 350 425 l 1,14,-1
 350 559 l 1,15,-1
 410 559 l 1,16,-1
 410 425 l 1,17,-1
 556 425 l 1,18,-1
 556 364 l 1,19,-1
 295 364 l 2,20,21
 255 364 255 364 224 348 c 0,22,23
 193 331 193 331 180 304 c 1,24,-1
 556 304 l 1,25,-1
 556 243 l 1,26,-1
 155 243 l 1,27,28
 150 233 150 233 146 216 c 0,29,30
 144 199 144 199 144 176 c 0,31,32
 144 129 144 129 174 95 c 256,33,34
 204 61 204 61 246 61 c 0,35,36
 279 61 279 61 303 84 c 0,37,38
 325 108 325 108 325 140 c 2,39,-1
 325 183 l 1,40,-1
 386 183 l 1,41,-1
 386 134 l 2,42,43
 386 104 386 104 409 83 c 0,44,45
 433 61 433 61 465 61 c 0,46,47
 498 61 498 61 521 83 c 0,48,49
 544 104 544 104 544 134 c 2,50,-1
 544 183 l 1,51,-1
 605 183 l 1,52,-1
 605 140 l 2,53,54
 605 83 605 83 566 41 c 0,55,56
 526 0 526 0 471 0 c 0,57,58
 435 0 435 0 404 15 c 0,59,60
 374 29 374 29 356 55 c 1,61,62
 339 29 339 29 308 15 c 0,63,64
 278 0 278 0 240 0 c 1,65,-1
 240 0 l 1,0,1
EndSplineSet
EndChar

StartChar: UU
Encoding: 3082 3082 119
Width: 902
GlyphClass: 2
Flags: W
LayerCount: 2
Back
Fore
SplineSet
240 0 m 1,0,1
 175 0 175 0 129 48 c 256,2,3
 83 96 83 96 83 164 c 0,4,5
 83 215 83 215 93 243 c 1,6,-1
 10 243 l 1,7,-1
 10 304 l 1,8,-1
 106 304 l 1,9,10
 131 355 131 355 180 388 c 0,11,12
 229 420 229 420 289 424 c 1,13,-1
 289 559 l 1,14,-1
 350 559 l 1,15,-1
 350 425 l 1,16,-1
 410 425 l 1,17,-1
 410 559 l 1,18,-1
 471 559 l 1,19,-1
 471 425 l 1,20,-1
 556 425 l 1,21,-1
 556 364 l 1,22,-1
 295 364 l 2,23,24
 255 364 255 364 224 348 c 0,25,26
 193 331 193 331 180 304 c 1,27,-1
 703 304 l 2,28,29
 748 304 748 304 775 291 c 1,30,31
 788 313 788 313 788 334 c 0,32,33
 788 349 788 349 779 360 c 0,34,35
 770 370 770 370 758 370 c 0,36,37
 743 370 743 370 731 361 c 0,38,39
 721 353 721 353 721 340 c 1,40,-1
 660 340 l 1,41,42
 660 375 660 375 689 400 c 256,43,44
 718 425 718 425 758 425 c 256,45,46
 798 425 798 425 826 399 c 0,47,48
 855 371 855 371 855 334 c 0,49,50
 855 313 855 313 849 294 c 0,51,52
 843 276 843 276 830 261 c 1,53,54
 856 239 856 239 870 204 c 0,55,56
 885 169 885 169 885 128 c 0,57,58
 885 78 885 78 851 41 c 0,59,60
 818 6 818 6 770 6 c 0,61,62
 725 6 725 6 693 36 c 0,63,64
 660 66 660 66 660 109 c 0,65,66
 660 136 660 136 675 164 c 0,67,68
 689 190 689 190 715 213 c 2,69,-1
 739 231 l 2,70,71
 749 239 749 239 751 243 c 1,72,-1
 155 243 l 1,73,74
 150 233 150 233 146 216 c 0,75,76
 144 199 144 199 144 176 c 0,77,78
 144 129 144 129 174 95 c 256,79,80
 204 61 204 61 246 61 c 0,81,82
 279 61 279 61 303 84 c 0,83,84
 325 108 325 108 325 140 c 2,85,-1
 325 183 l 1,86,-1
 386 183 l 1,87,-1
 386 134 l 2,88,89
 386 104 386 104 409 83 c 0,90,91
 433 61 433 61 465 61 c 0,92,93
 498 61 498 61 521 83 c 0,94,95
 544 104 544 104 544 134 c 2,96,-1
 544 183 l 1,97,-1
 605 183 l 1,98,-1
 605 140 l 2,99,100
 605 83 605 83 566 41 c 0,101,102
 526 0 526 0 471 0 c 0,103,104
 435 0 435 0 404 15 c 0,105,106
 374 29 374 29 356 55 c 1,107,108
 339 29 339 29 308 15 c 0,109,110
 278 0 278 0 240 0 c 1,111,-1
 240 0 l 1,0,1
770 61 m 1,112,113
 793 61 793 61 808 81 c 0,114,115
 824 100 824 100 824 128 c 0,116,117
 824 149 824 149 816 169 c 0,118,119
 809 189 809 189 794 206 c 1,120,121
 789 198 789 198 764 176 c 0,122,123
 744 159 744 159 733 144 c 0,124,125
 721 128 721 128 721 115 c 0,126,127
 721 93 721 93 735 78 c 0,128,129
 750 61 750 61 770 61 c 1,130,-1
 770 61 l 1,112,113
EndSplineSet
EndChar

StartChar: Ru
Encoding: 3083 3083 120
Width: 1205
GlyphClass: 2
Flags: W
LayerCount: 2
Back
Fore
SplineSet
188 0 m 1,0,1
 123 0 123 0 76 39 c 0,2,3
 30 79 30 79 30 134 c 0,4,5
 30 181 30 181 59 218 c 0,6,7
 89 254 89 254 134 261 c 0,8,9
 163 266 163 266 181 285 c 0,10,11
 200 304 200 304 200 328 c 0,12,13
 200 345 200 345 186 358 c 0,14,15
 171 370 171 370 151 370 c 256,16,17
 131 370 131 370 116 356 c 0,18,19
 103 341 103 341 103 321 c 2,20,-1
 103 304 l 1,21,-1
 43 304 l 1,22,-1
 43 328 l 2,23,24
 43 368 43 368 74 396 c 0,25,26
 106 425 106 425 151 425 c 256,27,28
 196 425 196 425 229 396 c 0,29,30
 261 368 261 368 261 328 c 0,31,32
 261 291 261 291 236 260 c 0,33,34
 210 230 210 230 170 219 c 0,35,36
 135 209 135 209 114 185 c 0,37,38
 91 161 91 161 91 134 c 0,39,40
 91 104 91 104 120 83 c 0,41,42
 148 61 148 61 188 61 c 256,43,44
 228 61 228 61 256 88 c 0,45,46
 285 114 285 114 285 151 c 2,47,-1
 285 183 l 1,48,-1
 346 183 l 1,49,-1
 346 134 l 2,50,51
 346 104 346 104 368 83 c 0,52,53
 389 61 389 61 419 61 c 0,54,55
 463 61 463 61 490 103 c 0,56,57
 516 144 516 144 516 213 c 0,58,59
 516 275 516 275 486 320 c 0,60,61
 455 364 455 364 413 364 c 2,62,-1
 364 364 l 1,63,-1
 364 425 l 1,64,-1
 413 425 l 2,65,66
 480 425 480 425 529 361 c 0,67,68
 576 296 576 296 576 206 c 2,69,-1
 575 180 l 1,70,71
 601 125 601 125 635 94 c 0,72,73
 668 61 668 61 698 61 c 0,74,75
 748 61 748 61 784 105 c 0,76,77
 819 150 819 150 819 213 c 0,78,79
 819 275 819 275 780 320 c 0,80,81
 740 364 740 364 685 364 c 2,82,-1
 661 364 l 1,83,-1
 661 425 l 1,84,-1
 704 425 l 2,85,86
 776 425 776 425 829 363 c 0,87,88
 880 300 880 300 880 213 c 2,89,-1
 879 188 l 1,90,91
 908 130 908 130 941 95 c 0,92,93
 975 61 975 61 1005 61 c 0,94,95
 1055 61 1055 61 1091 105 c 0,96,97
 1126 150 1126 150 1126 213 c 0,98,99
 1126 275 1126 275 1088 320 c 0,100,101
 1048 364 1048 364 993 364 c 2,102,-1
 969 364 l 1,103,-1
 969 425 l 1,104,-1
 1011 425 l 2,105,106
 1084 425 1084 425 1136 363 c 0,107,108
 1188 300 1188 300 1188 213 c 0,109,110
 1188 125 1188 125 1136 63 c 0,111,112
 1084 0 1084 0 1011 0 c 0,113,114
 956 0 956 0 914 33 c 0,115,116
 873 66 873 66 861 118 c 1,117,118
 840 64 840 64 796 33 c 0,119,120
 754 0 754 0 704 0 c 0,121,122
 651 0 651 0 610 29 c 0,123,124
 570 59 570 59 556 105 c 1,125,126
 538 58 538 58 501 29 c 0,127,128
 465 0 465 0 425 0 c 0,129,130
 389 0 389 0 358 15 c 0,131,132
 328 29 328 29 310 55 c 1,133,134
 293 29 293 29 260 15 c 0,135,136
 228 0 228 0 188 0 c 1,137,-1
 188 0 l 1,0,1
EndSplineSet
EndChar

StartChar: Lu
Encoding: 3084 3084 121
Width: 752
GlyphClass: 2
Flags: W
LayerCount: 2
Back
Fore
SplineSet
30 298 m 1,0,1
 30 359 30 359 70 398 c 0,2,3
 109 438 109 438 170 438 c 0,4,5
 218 438 218 438 254 423 c 0,6,7
 289 408 289 408 304 383 c 1,8,9
 319 408 319 408 351 423 c 0,10,11
 384 438 384 438 425 438 c 0,12,13
 490 438 490 438 536 396 c 0,14,15
 583 355 583 355 583 298 c 0,16,17
 583 259 583 259 559 219 c 0,18,19
 535 180 535 180 493 146 c 0,20,21
 449 113 449 113 425 76 c 256,22,23
 401 39 401 39 401 6 c 0,24,25
 401 -34 401 -34 431 -62 c 0,26,27
 461 -91 461 -91 504 -91 c 0,28,29
 574 -91 574 -91 624 -4 c 256,30,31
 674 83 674 83 674 206 c 0,32,33
 674 344 674 344 638 425 c 1,34,-1
 699 425 l 1,35,36
 735 351 735 351 735 206 c 0,37,38
 735 59 735 59 668 -46 c 0,39,40
 600 -151 600 -151 504 -151 c 0,41,42
 436 -151 436 -151 388 -104 c 0,43,44
 340 -55 340 -55 340 13 c 0,45,46
 340 54 340 54 364 95 c 256,47,48
 388 136 388 136 431 170 c 0,49,50
 475 204 475 204 499 239 c 256,51,52
 523 274 523 274 523 304 c 256,53,54
 523 334 523 334 494 355 c 256,55,56
 465 376 465 376 425 376 c 256,57,58
 385 376 385 376 356 351 c 0,59,60
 328 326 328 326 328 291 c 2,61,-1
 328 255 l 1,62,-1
 268 255 l 1,63,-1
 268 291 l 2,64,65
 268 326 268 326 243 351 c 256,66,67
 218 376 218 376 183 376 c 0,68,69
 145 376 145 376 118 354 c 0,70,71
 91 330 91 330 91 298 c 0,72,73
 91 276 91 276 98 260 c 0,74,75
 104 243 104 243 115 231 c 1,76,-1
 49 231 l 1,77,78
 30 259 30 259 30 298 c 1,79,-1
 30 298 l 1,0,1
EndSplineSet
EndChar

StartChar: uni0C0E
Encoding: 3086 3086 122
Width: 563
GlyphClass: 2
Flags: W
LayerCount: 2
Back
Fore
SplineSet
164 0 m 1,0,1
 109 0 109 0 69 38 c 0,2,3
 30 75 30 75 30 128 c 0,4,5
 30 178 30 178 69 214 c 0,6,7
 109 249 109 249 164 249 c 0,8,9
 216 249 216 249 254 215 c 0,10,11
 291 181 291 181 291 134 c 0,12,13
 291 111 291 111 285 98 c 1,14,15
 293 81 293 81 318 71 c 256,16,17
 343 61 343 61 376 61 c 0,18,19
 419 61 419 61 450 108 c 0,20,21
 480 154 480 154 480 219 c 0,22,23
 480 289 480 289 435 339 c 0,24,25
 391 389 391 389 328 389 c 2,26,-1
 285 389 l 1,27,-1
 285 449 l 1,28,-1
 346 449 l 2,29,30
 429 449 429 449 488 384 c 0,31,32
 546 318 546 318 546 225 c 0,33,34
 546 131 546 131 499 66 c 0,35,36
 450 0 450 0 383 0 c 0,37,38
 339 0 339 0 308 11 c 0,39,40
 275 23 275 23 261 43 c 1,41,42
 241 23 241 23 216 11 c 0,43,44
 191 0 191 0 164 0 c 1,45,-1
 164 0 l 1,0,1
164 55 m 1,46,47
 191 55 191 55 211 76 c 0,48,49
 231 98 231 98 231 128 c 0,50,51
 231 155 231 155 211 174 c 0,52,53
 191 194 191 194 164 194 c 0,54,55
 134 194 134 194 113 174 c 0,56,57
 91 155 91 155 91 128 c 0,58,59
 91 98 91 98 113 76 c 0,60,61
 134 55 134 55 164 55 c 1,62,-1
 164 55 l 1,46,47
EndSplineSet
EndChar

StartChar: EE
Encoding: 3087 3087 123
Width: 563
GlyphClass: 2
Flags: W
LayerCount: 2
Back
Fore
SplineSet
164 0 m 1,0,1
 109 0 109 0 69 38 c 0,2,3
 30 75 30 75 30 128 c 0,4,5
 30 178 30 178 69 214 c 0,6,7
 109 249 109 249 164 249 c 0,8,9
 216 249 216 249 254 215 c 0,10,11
 291 181 291 181 291 134 c 0,12,13
 291 111 291 111 285 98 c 1,14,15
 293 81 293 81 318 71 c 256,16,17
 343 61 343 61 376 61 c 0,18,19
 419 61 419 61 450 108 c 0,20,21
 480 154 480 154 480 219 c 0,22,23
 480 289 480 289 435 339 c 0,24,25
 391 389 391 389 328 389 c 2,26,-1
 285 389 l 1,27,-1
 285 449 l 1,28,-1
 346 449 l 2,29,30
 429 449 429 449 488 384 c 0,31,32
 546 318 546 318 546 225 c 0,33,34
 546 131 546 131 499 66 c 0,35,36
 450 0 450 0 383 0 c 0,37,38
 339 0 339 0 308 11 c 0,39,40
 275 23 275 23 261 43 c 1,41,42
 241 23 241 23 216 11 c 0,43,44
 191 0 191 0 164 0 c 1,45,-1
 164 0 l 1,0,1
164 55 m 1,46,47
 191 55 191 55 211 76 c 0,48,49
 231 98 231 98 231 128 c 0,50,51
 231 155 231 155 211 174 c 0,52,53
 191 194 191 194 164 194 c 0,54,55
 134 194 134 194 113 174 c 0,56,57
 91 155 91 155 91 128 c 0,58,59
 91 98 91 98 113 76 c 0,60,61
 134 55 134 55 164 55 c 1,62,-1
 164 55 l 1,46,47
238 304 m 1,63,-1
 200 304 l 2,64,65
 150 304 150 304 114 343 c 0,66,67
 79 383 79 383 79 438 c 0,68,69
 79 483 79 483 109 515 c 0,70,71
 140 546 140 546 183 546 c 2,72,-1
 261 546 l 1,73,-1
 261 486 l 1,74,-1
 189 486 l 2,75,76
 169 486 169 486 154 470 c 0,77,78
 140 454 140 454 140 431 c 0,79,80
 140 404 140 404 163 384 c 256,81,82
 186 364 186 364 219 364 c 2,83,-1
 238 364 l 1,84,-1
 238 304 l 1,85,-1
 238 304 l 1,63,-1
EndSplineSet
EndChar

StartChar: AI
Encoding: 3088 3088 124
Width: 582
GlyphClass: 2
Flags: W
LayerCount: 2
Back
Fore
SplineSet
406 0 m 1,0,1
 370 0 370 0 339 15 c 0,2,3
 309 29 309 29 291 55 c 1,4,5
 276 30 276 30 241 15 c 0,6,7
 205 0 205 0 158 0 c 0,8,9
 105 0 105 0 68 39 c 0,10,11
 30 79 30 79 30 134 c 0,12,13
 30 179 30 179 60 211 c 0,14,15
 91 243 91 243 134 243 c 0,16,17
 171 243 171 243 199 218 c 0,18,19
 225 193 225 193 225 158 c 1,20,-1
 164 158 l 1,21,22
 164 168 164 168 156 175 c 0,23,24
 150 183 150 183 140 183 c 0,25,26
 120 183 120 183 105 169 c 0,27,28
 91 154 91 154 91 134 c 0,29,30
 91 104 91 104 114 83 c 0,31,32
 138 61 138 61 170 61 c 0,33,34
 208 61 208 61 235 86 c 0,35,36
 261 111 261 111 261 146 c 2,37,-1
 261 183 l 1,38,-1
 321 183 l 1,39,-1
 321 140 l 2,40,41
 321 108 321 108 346 84 c 0,42,43
 371 61 371 61 406 61 c 0,44,45
 446 61 446 61 475 105 c 0,46,47
 504 150 504 150 504 213 c 0,48,49
 504 275 504 275 470 320 c 0,50,51
 436 364 436 364 389 364 c 0,52,53
 353 364 353 364 331 348 c 0,54,55
 310 331 310 331 310 304 c 1,56,-1
 249 304 l 1,57,58
 249 331 249 331 229 348 c 0,59,60
 209 364 209 364 176 364 c 0,61,62
 146 364 146 364 124 346 c 0,63,64
 103 329 103 329 103 304 c 1,65,-1
 43 304 l 1,66,67
 43 354 43 354 81 390 c 0,68,69
 121 425 121 425 176 425 c 0,70,71
 214 425 214 425 243 413 c 0,72,73
 273 399 273 399 285 376 c 1,74,75
 298 399 298 399 328 413 c 0,76,77
 358 425 358 425 395 425 c 0,78,79
 465 425 465 425 515 363 c 0,80,81
 565 300 565 300 565 213 c 0,82,83
 565 125 565 125 519 63 c 0,84,85
 473 0 473 0 406 0 c 1,86,-1
 406 0 l 1,0,1
EndSplineSet
EndChar

StartChar: uni0C12
Encoding: 3090 3090 125
Width: 600
GlyphClass: 2
Flags: W
LayerCount: 2
Back
Fore
SplineSet
176 0 m 1,0,1
 116 0 116 0 73 41 c 0,2,3
 30 83 30 83 30 140 c 0,4,5
 30 184 30 184 61 220 c 0,6,7
 91 255 91 255 140 268 c 0,8,9
 169 275 169 275 188 291 c 0,10,11
 206 309 206 309 206 328 c 0,12,13
 206 343 206 343 193 354 c 0,14,15
 178 364 178 364 158 364 c 0,16,17
 135 364 135 364 119 350 c 256,18,19
 103 336 103 336 103 316 c 2,20,-1
 103 304 l 1,21,-1
 43 304 l 1,22,-1
 43 328 l 2,23,24
 43 368 43 368 76 396 c 0,25,26
 110 425 110 425 158 425 c 0,27,28
 203 425 203 425 235 395 c 0,29,30
 268 364 268 364 268 321 c 0,31,32
 268 290 268 290 243 264 c 0,33,34
 216 236 216 236 176 225 c 0,35,36
 139 214 139 214 115 189 c 256,37,38
 91 164 91 164 91 134 c 256,39,40
 91 104 91 104 120 83 c 0,41,42
 148 61 148 61 188 61 c 256,43,44
 228 61 228 61 256 86 c 0,45,46
 285 111 285 111 285 146 c 2,47,-1
 285 183 l 1,48,-1
 346 183 l 1,49,-1
 346 146 l 2,50,51
 346 111 346 111 371 86 c 256,52,53
 396 61 396 61 431 61 c 0,54,55
 469 61 469 61 496 84 c 0,56,57
 523 108 523 108 523 140 c 0,58,59
 523 160 523 160 516 176 c 0,60,61
 510 194 510 194 498 206 c 1,62,-1
 565 206 l 1,63,64
 574 195 574 195 578 178 c 0,65,66
 583 160 583 160 583 140 c 0,67,68
 583 79 583 79 543 40 c 0,69,70
 504 0 504 0 443 0 c 0,71,72
 396 0 396 0 360 15 c 0,73,74
 325 30 325 30 310 55 c 1,75,76
 295 30 295 30 260 15 c 0,77,78
 224 0 224 0 176 0 c 1,79,-1
 176 0 l 1,0,1
EndSplineSet
EndChar

StartChar: OO
Encoding: 3091 3091 126
Width: 600
GlyphClass: 2
Flags: W
LayerCount: 2
Back
Fore
SplineSet
176 0 m 1,0,1
 116 0 116 0 73 41 c 0,2,3
 30 83 30 83 30 140 c 0,4,5
 30 184 30 184 61 220 c 0,6,7
 91 255 91 255 140 268 c 0,8,9
 169 275 169 275 188 291 c 0,10,11
 206 309 206 309 206 328 c 0,12,13
 206 343 206 343 193 354 c 0,14,15
 178 364 178 364 158 364 c 0,16,17
 135 364 135 364 119 350 c 256,18,19
 103 336 103 336 103 316 c 2,20,-1
 103 304 l 1,21,-1
 43 304 l 1,22,-1
 43 328 l 2,23,24
 43 368 43 368 69 396 c 0,25,26
 96 425 96 425 134 425 c 1,27,-1
 134 498 l 2,28,29
 134 523 134 523 151 541 c 0,30,31
 169 559 169 559 194 559 c 2,32,-1
 268 559 l 1,33,-1
 268 498 l 1,34,-1
 219 498 l 2,35,36
 209 498 209 498 201 490 c 0,37,38
 194 484 194 484 194 474 c 2,39,-1
 194 425 l 1,40,41
 224 425 224 425 246 399 c 0,42,43
 268 371 268 371 268 334 c 0,44,45
 268 298 268 298 243 266 c 0,46,47
 216 236 216 236 176 225 c 0,48,49
 139 214 139 214 115 189 c 256,50,51
 91 164 91 164 91 134 c 256,52,53
 91 104 91 104 120 83 c 0,54,55
 148 61 148 61 188 61 c 256,56,57
 228 61 228 61 256 86 c 0,58,59
 285 111 285 111 285 146 c 2,60,-1
 285 183 l 1,61,-1
 346 183 l 1,62,-1
 346 146 l 2,63,64
 346 111 346 111 371 86 c 256,65,66
 396 61 396 61 431 61 c 0,67,68
 469 61 469 61 496 84 c 0,69,70
 523 108 523 108 523 140 c 0,71,72
 523 160 523 160 516 176 c 0,73,74
 510 194 510 194 498 206 c 1,75,-1
 565 206 l 1,76,77
 574 195 574 195 578 178 c 0,78,79
 583 160 583 160 583 140 c 0,80,81
 583 79 583 79 543 40 c 0,82,83
 504 0 504 0 443 0 c 0,84,85
 396 0 396 0 360 15 c 0,86,87
 325 30 325 30 310 55 c 1,88,89
 295 30 295 30 260 15 c 0,90,91
 224 0 224 0 176 0 c 1,92,-1
 176 0 l 1,0,1
EndSplineSet
EndChar

StartChar: AU
Encoding: 3092 3092 127
Width: 800
GlyphClass: 2
Flags: W
LayerCount: 2
Back
Fore
SplineSet
170 0 m 1,0,1
 113 0 113 0 71 41 c 0,2,3
 30 83 30 83 30 140 c 0,4,5
 30 184 30 184 61 220 c 0,6,7
 91 255 91 255 140 268 c 0,8,9
 166 274 166 274 184 291 c 0,10,11
 200 308 200 308 200 328 c 0,12,13
 200 343 200 343 188 354 c 0,14,15
 175 364 175 364 158 364 c 0,16,17
 135 364 135 364 119 350 c 256,18,19
 103 336 103 336 103 316 c 2,20,-1
 103 304 l 1,21,-1
 43 304 l 1,22,-1
 43 328 l 2,23,24
 43 368 43 368 74 396 c 0,25,26
 106 425 106 425 151 425 c 0,27,28
 164 425 164 425 174 430 c 0,29,30
 183 436 183 436 183 444 c 0,31,32
 183 451 183 451 178 456 c 0,33,34
 171 461 171 461 164 461 c 2,35,-1
 43 461 l 1,36,-1
 43 523 l 1,37,-1
 601 523 l 2,38,39
 676 523 676 523 730 463 c 0,40,41
 783 401 783 401 783 316 c 0,42,43
 783 264 783 264 751 226 c 0,44,45
 719 189 719 189 674 189 c 0,46,47
 624 189 624 189 588 223 c 0,48,49
 553 256 553 256 553 304 c 0,50,51
 553 344 553 344 583 373 c 0,52,53
 613 401 613 401 655 401 c 0,54,55
 670 401 670 401 681 400 c 0,56,57
 693 398 693 398 698 395 c 1,58,59
 693 424 693 424 665 443 c 0,60,61
 638 461 638 461 601 461 c 2,62,-1
 236 461 l 1,63,64
 243 456 243 456 245 450 c 0,65,66
 249 444 249 444 249 438 c 0,67,68
 249 429 249 429 243 419 c 0,69,70
 236 410 236 410 225 401 c 1,71,72
 241 391 241 391 251 369 c 0,73,74
 261 346 261 346 261 316 c 0,75,76
 261 285 261 285 234 259 c 0,77,78
 208 231 208 231 164 219 c 0,79,80
 131 210 131 210 111 186 c 0,81,82
 91 163 91 163 91 134 c 0,83,84
 91 104 91 104 120 83 c 0,85,86
 148 61 148 61 188 61 c 256,87,88
 228 61 228 61 256 86 c 0,89,90
 285 111 285 111 285 146 c 2,91,-1
 285 183 l 1,92,-1
 346 183 l 1,93,-1
 346 146 l 2,94,95
 346 111 346 111 371 86 c 256,96,97
 396 61 396 61 431 61 c 256,98,99
 466 61 466 61 491 86 c 256,100,101
 516 111 516 111 516 146 c 0,102,103
 516 163 516 163 510 179 c 0,104,105
 504 194 504 194 491 206 c 1,106,-1
 559 206 l 1,107,108
 568 195 568 195 571 176 c 0,109,110
 576 158 576 158 576 134 c 0,111,112
 576 76 576 76 539 38 c 0,113,114
 500 0 500 0 443 0 c 0,115,116
 398 0 398 0 363 15 c 0,117,118
 328 29 328 29 310 55 c 1,119,120
 293 29 293 29 255 15 c 0,121,122
 219 0 219 0 170 0 c 1,123,-1
 170 0 l 1,0,1
661 243 m 1,124,125
 681 243 681 243 696 259 c 0,126,127
 710 275 710 275 710 298 c 0,128,129
 710 318 710 318 696 333 c 0,130,131
 681 346 681 346 661 346 c 256,132,133
 641 346 641 346 626 333 c 0,134,135
 613 318 613 318 613 298 c 0,136,137
 613 275 613 275 626 259 c 0,138,139
 641 243 641 243 661 243 c 1,140,-1
 661 243 l 1,124,125
EndSplineSet
EndChar

StartChar: Ka
Encoding: 3093 3093 128
Width: 582
GlyphClass: 2
Flags: W
AnchorPoint: "Anchor-0" 0 0 basechar 0
LayerCount: 2
Back
Fore
SplineSet
383 403 m 1,0,1
 391 399 391 399 399 394 c 0,2,3
 455 356 455 356 455 304 c 1,4,-1
 394 304 l 1,5,6
 389 330 389 330 351 346 c 0,7,8
 313 364 313 364 259 364 c 0,9,10
 204 364 204 364 165 348 c 0,11,12
 126 333 126 333 126 310 c 0,13,14
 126 293 126 293 148 280 c 0,15,16
 170 268 170 268 200 268 c 2,17,-1
 351 268 l 2,18,19
 415 268 415 268 453 235 c 0,20,21
 491 201 491 201 491 146 c 0,22,23
 491 76 491 76 430 39 c 0,24,25
 370 0 370 0 260 0 c 0,26,27
 156 0 156 0 93 40 c 256,28,29
 30 80 30 80 30 146 c 1,30,-1
 90 146 l 1,31,32
 90 114 90 114 140 90 c 0,33,34
 190 68 190 68 260 68 c 0,35,36
 338 68 338 68 384 89 c 256,37,38
 430 110 430 110 430 146 c 0,39,40
 430 171 430 171 405 189 c 0,41,42
 380 206 380 206 345 206 c 2,43,-1
 194 206 l 2,44,45
 141 206 141 206 104 235 c 0,46,47
 66 264 66 264 66 304 c 0,48,49
 66 356 66 356 124 394 c 0,50,51
 135 401 135 401 148 407 c 1,52,53
 133 423 133 423 133 444 c 2,54,-1
 133 504 l 1,55,-1
 194 504 l 1,56,-1
 194 450 l 2,57,58
 194 444 194 444 199 438 c 0,59,60
 204 433 204 433 211 431 c 2,61,-1
 323 431 l 1,62,-1
 323 504 l 2,63,64
 323 529 323 529 340 548 c 0,65,66
 358 565 358 565 383 565 c 2,67,-1
 565 565 l 1,68,-1
 565 504 l 1,69,-1
 408 504 l 2,70,71
 398 504 398 504 390 496 c 0,72,73
 383 490 383 490 383 480 c 2,74,-1
 383 403 l 1,0,1
EndSplineSet
EndChar

StartChar: Kha
Encoding: 3094 3094 129
Width: 582
GlyphClass: 2
Flags: W
AnchorPoint: "Anchor-0" 0 0 basechar 0
LayerCount: 2
Back
Fore
SplineSet
215 83 m 0,0,1
 236 104 236 104 236 134 c 256,2,3
 236 164 236 164 215 185 c 256,4,5
 194 206 194 206 164 206 c 256,6,7
 134 206 134 206 113 185 c 0,8,9
 91 164 91 164 91 134 c 256,10,11
 91 104 91 104 113 83 c 0,12,13
 134 61 134 61 164 61 c 256,14,15
 194 61 194 61 215 83 c 0,0,1
69 39 m 0,16,17
 30 79 30 79 30 134 c 256,18,19
 30 189 30 189 71 229 c 0,20,21
 113 268 113 268 170 268 c 0,22,23
 193 268 193 268 213 260 c 0,24,25
 234 251 234 251 249 236 c 1,26,27
 249 294 249 294 225 329 c 0,28,29
 203 364 203 364 164 364 c 0,30,31
 134 364 134 364 113 346 c 0,32,33
 91 329 91 329 91 304 c 1,34,-1
 30 304 l 1,35,-1
 30 316 l 2,36,37
 30 361 30 361 69 394 c 0,38,39
 109 425 109 425 164 425 c 0,40,41
 230 425 230 425 270 369 c 256,42,43
 310 313 310 313 310 219 c 0,44,45
 310 154 310 154 304 140 c 1,46,47
 314 105 314 105 340 84 c 0,48,49
 368 61 368 61 400 61 c 0,50,51
 443 61 443 61 474 105 c 0,52,53
 504 150 504 150 504 213 c 0,54,55
 504 288 504 288 469 341 c 0,56,57
 433 395 433 395 383 395 c 2,58,-1
 351 395 l 1,59,-1
 351 456 l 1,60,-1
 389 456 l 2,61,62
 461 456 461 456 514 386 c 0,63,64
 565 318 565 318 565 219 c 256,65,66
 565 120 565 120 521 60 c 0,67,68
 479 0 479 0 406 0 c 0,69,70
 368 0 368 0 334 18 c 0,71,72
 300 35 300 35 279 66 c 1,73,74
 261 35 261 35 230 18 c 0,75,76
 199 0 199 0 164 0 c 0,77,78
 109 0 109 0 69 39 c 0,16,17
261 -122 m 1,79,-1
 261 0 l 1,80,-1
 321 0 l 1,81,-1
 321 -122 l 1,82,-1
 261 -122 l 1,79,-1
EndSplineSet
EndChar

StartChar: Ga
Encoding: 3095 3095 130
Width: 590
GlyphClass: 2
Flags: W
AnchorPoint: "Anchor-0" 0 0 basechar 0
LayerCount: 2
Back
Fore
SplineSet
390 389 m 1,0,1
 408 377 408 377 425 361 c 0,2,3
 493 296 493 296 493 206 c 0,4,5
 493 121 493 121 448 60 c 0,6,7
 401 0 401 0 338 0 c 1,8,-1
 338 55 l 1,9,10
 380 55 380 55 409 99 c 0,11,12
 439 144 439 144 439 206 c 0,13,14
 439 271 439 271 388 318 c 0,15,16
 335 364 335 364 263 364 c 0,17,18
 190 364 190 364 139 318 c 0,19,20
 88 271 88 271 88 206 c 0,21,22
 88 146 88 146 116 104 c 0,23,24
 145 61 145 61 186 61 c 1,25,-1
 186 0 l 1,26,27
 121 0 121 0 76 60 c 0,28,29
 30 121 30 121 30 206 c 0,30,31
 30 296 30 296 98 361 c 0,32,33
 124 386 124 386 155 401 c 1,34,35
 140 417 140 417 140 438 c 2,36,-1
 140 498 l 1,37,-1
 201 498 l 1,38,-1
 201 444 l 2,39,40
 201 438 201 438 206 431 c 0,41,42
 211 426 211 426 219 425 c 2,43,-1
 330 425 l 1,44,-1
 330 498 l 2,45,46
 330 523 330 523 348 541 c 0,47,48
 365 559 365 559 390 559 c 2,49,-1
 573 559 l 1,50,-1
 573 498 l 1,51,-1
 415 498 l 2,52,53
 405 498 405 498 398 490 c 0,54,55
 390 484 390 484 390 474 c 2,56,-1
 390 389 l 1,0,1
EndSplineSet
EndChar

StartChar: Gha
Encoding: 3096 3096 131
Width: 867
GlyphClass: 2
Flags: W
AnchorPoint: "Anchor-3" 0 0 basechar 0
AnchorPoint: "Anchor-0" 0 0 basechar 0
LayerCount: 2
Back
Fore
SplineSet
211 76 m 0,0,1
 231 98 231 98 231 128 c 0,2,3
 231 155 231 155 211 174 c 0,4,5
 191 194 191 194 164 194 c 0,6,7
 134 194 134 194 113 174 c 0,8,9
 91 155 91 155 91 128 c 0,10,11
 91 98 91 98 113 76 c 0,12,13
 134 55 134 55 164 55 c 0,14,15
 191 55 191 55 211 76 c 0,0,1
31 364 m 1,16,-1
 31 425 l 1,17,-1
 104 425 l 1,18,-1
 104 498 l 2,19,20
 104 523 104 523 121 541 c 0,21,22
 140 559 140 559 165 559 c 2,23,-1
 333 559 l 1,24,-1
 333 498 l 1,25,-1
 189 498 l 2,26,27
 179 498 179 498 173 490 c 0,28,29
 165 484 165 484 165 474 c 2,30,-1
 165 364 l 1,31,-1
 31 364 l 1,16,-1
509 77 m 1,32,33
 503 68 503 68 495 59 c 0,34,35
 443 0 443 0 370 0 c 0,36,37
 338 0 338 0 309 11 c 0,38,39
 281 23 281 23 261 43 c 1,40,41
 241 23 241 23 216 11 c 0,42,43
 191 0 191 0 164 0 c 0,44,45
 109 0 109 0 69 38 c 0,46,47
 30 75 30 75 30 128 c 0,48,49
 30 178 30 178 69 214 c 0,50,51
 109 249 109 249 164 249 c 0,52,53
 216 249 216 249 254 215 c 0,54,55
 291 181 291 181 291 134 c 0,56,57
 291 111 291 111 285 98 c 1,58,59
 295 81 295 81 316 71 c 0,60,61
 338 61 338 61 365 61 c 0,62,63
 413 61 413 61 446 105 c 0,64,65
 480 150 480 150 480 213 c 0,66,67
 480 275 480 275 445 320 c 0,68,69
 409 364 409 364 359 364 c 2,70,-1
 285 364 l 1,71,-1
 285 425 l 1,72,-1
 365 425 l 2,73,74
 440 425 440 425 494 359 c 0,75,76
 546 294 546 294 546 200 c 0,77,78
 546 167 546 167 538 137 c 1,79,80
 550 115 550 115 569 96 c 0,81,82
 606 61 606 61 655 61 c 0,83,84
 710 61 710 61 750 105 c 0,85,86
 789 150 789 150 789 213 c 0,87,88
 789 275 789 275 758 320 c 0,89,90
 725 364 725 364 680 364 c 2,91,-1
 656 364 l 1,92,-1
 656 425 l 1,93,-1
 674 425 l 2,94,95
 746 425 746 425 799 363 c 0,96,97
 850 300 850 300 850 213 c 0,98,99
 850 125 850 125 793 63 c 0,100,101
 736 0 736 0 655 0 c 0,102,103
 600 0 600 0 554 31 c 0,104,105
 527 51 527 51 509 77 c 1,32,33
231 -122 m 1,106,-1
 231 0 l 1,107,-1
 291 0 l 1,108,-1
 291 -122 l 1,109,-1
 231 -122 l 1,106,-1
EndSplineSet
EndChar

StartChar: uni0C19
Encoding: 3097 3097 132
Width: 593
GlyphClass: 2
Flags: W
AnchorPoint: "Anchor-0" 0 0 basechar 0
LayerCount: 2
Back
Fore
SplineSet
71 41 m 0,0,1
 30 83 30 83 30 140 c 0,2,3
 30 184 30 184 61 220 c 0,4,5
 91 255 91 255 140 268 c 0,6,7
 166 274 166 274 184 291 c 0,8,9
 200 308 200 308 200 328 c 0,10,11
 200 343 200 343 188 354 c 0,12,13
 175 364 175 364 158 364 c 0,14,15
 135 364 135 364 119 350 c 256,16,17
 103 336 103 336 103 316 c 2,18,-1
 103 304 l 1,19,-1
 43 304 l 1,20,-1
 43 328 l 2,21,22
 43 368 43 368 74 396 c 0,23,24
 106 425 106 425 151 425 c 0,25,26
 201 425 201 425 231 395 c 256,27,28
 261 365 261 365 261 316 c 1,29,-1
 346 316 l 1,30,-1
 346 425 l 1,31,-1
 406 425 l 1,32,-1
 406 316 l 1,33,-1
 504 316 l 1,34,-1
 504 255 l 1,35,-1
 236 255 l 1,36,37
 228 245 228 245 209 236 c 0,38,39
 191 226 191 226 164 219 c 0,40,41
 131 210 131 210 111 186 c 0,42,43
 91 163 91 163 91 134 c 0,44,45
 91 104 91 104 120 83 c 0,46,47
 148 61 148 61 188 61 c 256,48,49
 228 61 228 61 256 86 c 0,50,51
 285 111 285 111 285 146 c 2,52,-1
 285 183 l 1,53,-1
 346 183 l 1,54,-1
 346 146 l 2,55,56
 346 111 346 111 371 86 c 256,57,58
 396 61 396 61 431 61 c 256,59,60
 466 61 466 61 491 86 c 256,61,62
 516 111 516 111 516 146 c 0,63,64
 516 163 516 163 510 179 c 0,65,66
 504 194 504 194 491 206 c 1,67,-1
 559 206 l 1,68,69
 568 195 568 195 571 176 c 0,70,71
 576 158 576 158 576 134 c 0,72,73
 576 76 576 76 539 38 c 0,74,75
 500 0 500 0 443 0 c 0,76,77
 398 0 398 0 363 15 c 0,78,79
 328 29 328 29 310 55 c 1,80,81
 293 29 293 29 255 15 c 0,82,83
 219 0 219 0 170 0 c 0,84,85
 113 0 113 0 71 41 c 0,0,1
EndSplineSet
EndChar

StartChar: Ca
Encoding: 3098 3098 133
Width: 655
GlyphClass: 2
Flags: W
AnchorPoint: "Anchor-0" 0 0 basechar 0
LayerCount: 2
Back
Fore
SplineSet
455 417 m 1,0,1
 505 403 505 403 544 363 c 0,2,3
 605 300 605 300 605 213 c 0,4,5
 605 125 605 125 558 63 c 0,6,7
 509 0 509 0 441 0 c 0,8,9
 404 0 404 0 374 15 c 0,10,11
 343 29 343 29 325 55 c 1,12,13
 308 29 308 29 278 15 c 0,14,15
 246 0 246 0 210 0 c 0,16,17
 153 0 153 0 111 39 c 0,18,19
 70 79 70 79 70 134 c 0,20,21
 70 158 70 158 78 179 c 0,22,23
 86 201 86 201 101 219 c 1,24,-1
 10 219 l 1,25,-1
 10 279 l 1,26,-1
 253 279 l 1,27,-1
 253 219 l 1,28,-1
 191 219 l 2,29,30
 166 219 166 219 149 196 c 0,31,32
 131 173 131 173 131 140 c 0,33,34
 131 108 131 108 156 84 c 0,35,36
 181 61 181 61 216 61 c 256,37,38
 251 61 251 61 276 88 c 0,39,40
 301 114 301 114 301 151 c 2,41,-1
 301 183 l 1,42,-1
 361 183 l 1,43,-1
 361 151 l 2,44,45
 361 114 361 114 385 88 c 0,46,47
 408 61 408 61 441 61 c 0,48,49
 484 61 484 61 514 105 c 0,50,51
 544 150 544 150 544 213 c 0,52,53
 544 275 544 275 501 320 c 0,54,55
 458 364 458 364 398 364 c 2,56,-1
 266 364 l 2,57,58
 241 364 241 364 223 385 c 1,59,60
 205 415 205 415 205 438 c 2,61,-1
 205 498 l 1,62,-1
 266 498 l 1,63,-1
 266 444 l 2,64,65
 266 438 266 438 271 431 c 0,66,67
 276 426 276 426 284 425 c 2,68,-1
 395 425 l 1,69,-1
 395 498 l 2,70,71
 395 523 395 523 413 541 c 0,72,73
 430 559 430 559 455 559 c 2,74,-1
 638 559 l 1,75,-1
 638 498 l 1,76,-1
 480 498 l 2,77,78
 470 498 470 498 463 490 c 0,79,80
 455 484 455 484 455 474 c 2,81,-1
 455 417 l 1,0,1
EndSplineSet
EndChar

StartChar: Cha
Encoding: 3099 3099 134
Width: 655
GlyphClass: 2
Flags: W
AnchorPoint: "Anchor-0" 0 0 basechar 0
LayerCount: 2
Back
Fore
SplineSet
301 -122 m 1,0,-1
 301 0 l 1,1,-1
 361 0 l 1,2,-1
 361 -122 l 1,3,-1
 301 -122 l 1,4,-1
 301 -122 l 1,0,-1
455 417 m 1,5,6
 505 403 505 403 544 363 c 0,7,8
 605 300 605 300 605 213 c 0,9,10
 605 125 605 125 558 63 c 0,11,12
 509 0 509 0 441 0 c 0,13,14
 404 0 404 0 374 15 c 0,15,16
 343 29 343 29 325 55 c 1,17,18
 308 29 308 29 278 15 c 0,19,20
 246 0 246 0 210 0 c 0,21,22
 153 0 153 0 111 39 c 0,23,24
 70 79 70 79 70 134 c 0,25,26
 70 158 70 158 78 179 c 0,27,28
 86 201 86 201 101 219 c 1,29,-1
 10 219 l 1,30,-1
 10 279 l 1,31,-1
 253 279 l 1,32,-1
 253 219 l 1,33,-1
 191 219 l 2,34,35
 166 219 166 219 149 196 c 0,36,37
 131 173 131 173 131 140 c 0,38,39
 131 108 131 108 156 84 c 0,40,41
 181 61 181 61 216 61 c 256,42,43
 251 61 251 61 276 88 c 0,44,45
 301 114 301 114 301 151 c 2,46,-1
 301 183 l 1,47,-1
 361 183 l 1,48,-1
 361 151 l 2,49,50
 361 114 361 114 385 88 c 0,51,52
 408 61 408 61 441 61 c 0,53,54
 484 61 484 61 514 105 c 0,55,56
 544 150 544 150 544 213 c 0,57,58
 544 275 544 275 501 320 c 0,59,60
 458 364 458 364 398 364 c 2,61,-1
 266 364 l 2,62,63
 241 364 241 364 223 385 c 1,64,65
 205 415 205 415 205 438 c 2,66,-1
 205 498 l 1,67,-1
 266 498 l 1,68,-1
 266 444 l 2,69,70
 266 438 266 438 271 431 c 0,71,72
 276 426 276 426 284 425 c 2,73,-1
 395 425 l 1,74,-1
 395 498 l 2,75,76
 395 523 395 523 413 541 c 0,77,78
 430 559 430 559 455 559 c 2,79,-1
 638 559 l 1,80,-1
 638 498 l 1,81,-1
 480 498 l 2,82,83
 470 498 470 498 463 490 c 0,84,85
 455 484 455 484 455 474 c 2,86,-1
 455 417 l 1,5,6
EndSplineSet
EndChar

StartChar: Ja
Encoding: 3100 3100 135
Width: 593
GlyphClass: 2
Flags: W
AnchorPoint: "Anchor-0" 0 0 basechar 0
LayerCount: 2
Back
Fore
SplineSet
78 39 m 0,0,1
 30 79 30 79 30 134 c 0,2,3
 30 181 30 181 59 218 c 0,4,5
 89 254 89 254 134 261 c 0,6,7
 163 266 163 266 181 285 c 0,8,9
 200 304 200 304 200 328 c 0,10,11
 200 345 200 345 186 358 c 0,12,13
 171 370 171 370 151 370 c 256,14,15
 131 370 131 370 116 356 c 0,16,17
 103 341 103 341 103 321 c 2,18,-1
 103 304 l 1,19,-1
 43 304 l 1,20,-1
 43 328 l 2,21,22
 43 368 43 368 74 396 c 0,23,24
 106 425 106 425 151 425 c 256,25,26
 196 425 196 425 229 396 c 0,27,28
 261 368 261 368 261 328 c 1,29,30
 274 305 274 305 304 291 c 0,31,32
 333 279 333 279 370 279 c 0,33,34
 405 279 405 279 430 293 c 0,35,36
 455 308 455 308 455 328 c 0,37,38
 455 343 455 343 443 354 c 0,39,40
 430 364 430 364 413 364 c 2,41,-1
 383 364 l 1,42,-1
 383 425 l 1,43,-1
 425 425 l 2,44,45
 463 425 463 425 490 396 c 0,46,47
 516 368 516 368 516 328 c 0,48,49
 516 283 516 283 478 250 c 0,50,51
 438 219 438 219 383 219 c 0,52,53
 343 219 343 219 306 231 c 0,54,55
 271 244 271 244 243 268 c 1,56,57
 231 251 231 251 213 239 c 0,58,59
 194 225 194 225 170 219 c 0,60,61
 135 209 135 209 114 185 c 0,62,63
 91 161 91 161 91 134 c 0,64,65
 91 104 91 104 120 83 c 0,66,67
 148 61 148 61 188 61 c 256,68,69
 228 61 228 61 256 88 c 0,70,71
 285 114 285 114 285 151 c 2,72,-1
 285 183 l 1,73,-1
 346 183 l 1,74,-1
 346 134 l 2,75,76
 346 104 346 104 371 83 c 0,77,78
 396 61 396 61 431 61 c 256,79,80
 466 61 466 61 491 84 c 0,81,82
 516 108 516 108 516 140 c 0,83,84
 516 158 516 158 510 175 c 0,85,86
 504 191 504 191 491 206 c 1,87,-1
 559 206 l 1,88,89
 568 196 568 196 571 179 c 0,90,91
 576 163 576 163 576 140 c 0,92,93
 576 74 576 74 539 36 c 0,94,95
 500 0 500 0 431 0 c 0,96,97
 391 0 391 0 360 15 c 0,98,99
 328 29 328 29 310 55 c 1,100,101
 293 29 293 29 261 15 c 0,102,103
 231 0 231 0 194 0 c 0,104,105
 126 0 126 0 78 39 c 0,0,1
EndSplineSet
EndChar

StartChar: Jha
Encoding: 3101 3101 136
Width: 1123
GlyphClass: 2
Flags: W
AnchorPoint: "Anchor-2" 0 0 basechar 0
AnchorPoint: "Anchor-0" 0 0 basechar 0
LayerCount: 2
Back
Fore
SplineSet
393 105 m 0,0,1
 444 150 444 150 444 213 c 0,2,3
 444 275 444 275 393 320 c 0,4,5
 340 364 340 364 268 364 c 0,6,7
 195 364 195 364 143 320 c 0,8,9
 91 275 91 275 91 213 c 0,10,11
 91 150 91 150 143 105 c 0,12,13
 195 61 195 61 268 61 c 0,14,15
 340 61 340 61 393 105 c 0,0,1
729 -122 m 1,16,-1
 729 0 l 1,17,-1
 790 0 l 1,18,-1
 790 -122 l 1,19,-1
 729 -122 l 1,16,-1
330 425 m 1,20,-1
 330 498 l 2,21,22
 330 523 330 523 348 541 c 0,23,24
 365 559 365 559 390 559 c 2,25,-1
 573 559 l 1,26,-1
 573 498 l 1,27,-1
 415 498 l 2,28,29
 405 498 405 498 398 490 c 0,30,31
 390 484 390 484 390 474 c 2,32,-1
 390 395 l 1,33,34
 414 381 414 381 435 363 c 0,35,36
 504 300 504 300 504 213 c 0,37,38
 504 173 504 173 492 140 c 1,39,40
 502 116 502 116 523 98 c 0,41,42
 560 61 560 61 610 61 c 0,43,44
 664 61 664 61 703 105 c 0,45,46
 741 150 741 150 741 213 c 0,47,48
 741 275 741 275 711 320 c 0,49,50
 681 364 681 364 639 364 c 2,51,-1
 584 364 l 1,52,-1
 584 425 l 1,53,-1
 639 425 l 2,54,55
 706 425 706 425 755 363 c 0,56,57
 803 300 803 300 803 213 c 0,58,59
 803 175 803 175 792 141 c 1,60,61
 804 116 804 116 825 96 c 0,62,63
 863 61 863 61 911 61 c 0,64,65
 966 61 966 61 1006 105 c 0,66,67
 1045 150 1045 150 1045 213 c 0,68,69
 1045 275 1045 275 1014 320 c 0,70,71
 981 364 981 364 936 364 c 2,72,-1
 913 364 l 1,73,-1
 913 425 l 1,74,-1
 930 425 l 2,75,76
 1003 425 1003 425 1055 363 c 0,77,78
 1106 300 1106 300 1106 213 c 0,79,80
 1106 125 1106 125 1049 63 c 0,81,82
 993 0 993 0 911 0 c 0,83,84
 856 0 856 0 810 31 c 0,85,86
 781 52 781 52 763 82 c 1,87,88
 756 72 756 72 748 63 c 0,89,90
 693 0 693 0 614 0 c 0,91,92
 551 0 551 0 503 33 c 0,93,94
 472 52 472 52 456 80 c 1,95,96
 447 70 447 70 436 60 c 0,97,98
 370 0 370 0 268 0 c 0,99,100
 169 0 169 0 100 60 c 0,101,102
 30 121 30 121 30 206 c 0,103,104
 30 296 30 296 100 361 c 0,105,106
 126 385 126 385 156 400 c 1,107,108
 140 416 140 416 140 438 c 2,109,-1
 140 498 l 1,110,-1
 201 498 l 1,111,-1
 201 444 l 2,112,113
 201 438 201 438 206 431 c 0,114,115
 211 426 211 426 219 425 c 2,116,-1
 330 425 l 1,20,-1
EndSplineSet
EndChar

StartChar: Nya
Encoding: 3102 3102 137
Width: 763
GlyphClass: 2
Flags: W
AnchorPoint: "Anchor-0" 0 0 basechar 0
LayerCount: 2
Back
Fore
SplineSet
370 73 m 1,0,-1
 370 98 l 2,1,2
 370 138 370 138 328 165 c 0,3,4
 285 194 285 194 225 194 c 0,5,6
 173 194 173 194 135 178 c 0,7,8
 98 163 98 163 98 140 c 0,9,10
 98 104 98 104 146 83 c 0,11,12
 194 61 194 61 274 61 c 0,13,14
 345 61 345 61 370 73 c 1,0,-1
101 36 m 0,15,16
 36 73 36 73 36 134 c 0,17,18
 36 189 36 189 88 223 c 0,19,20
 139 255 139 255 225 255 c 0,21,22
 319 255 319 255 375 214 c 256,23,24
 431 173 431 173 431 104 c 1,25,26
 455 124 455 124 468 158 c 0,27,28
 480 193 480 193 480 236 c 0,29,30
 480 289 480 289 446 326 c 0,31,32
 413 364 413 364 364 364 c 0,33,34
 328 364 328 364 306 348 c 0,35,36
 285 331 285 331 285 304 c 1,37,-1
 225 304 l 1,38,39
 225 331 225 331 206 348 c 0,40,41
 189 364 189 364 158 364 c 0,42,43
 130 364 130 364 111 346 c 0,44,45
 91 329 91 329 91 304 c 1,46,-1
 30 304 l 1,47,48
 30 354 30 354 69 390 c 0,49,50
 109 425 109 425 164 425 c 0,51,52
 196 425 196 425 223 413 c 0,53,54
 249 399 249 399 261 376 c 1,55,56
 274 399 274 399 301 413 c 0,57,58
 329 425 329 425 364 425 c 0,59,60
 436 425 436 425 489 371 c 0,61,62
 540 318 540 318 540 243 c 1,63,-1
 614 243 l 1,64,-1
 614 425 l 1,65,-1
 674 425 l 1,66,-1
 674 243 l 1,67,-1
 746 243 l 1,68,-1
 746 183 l 1,69,-1
 534 183 l 1,70,71
 525 133 525 133 499 93 c 0,72,73
 471 53 471 53 431 30 c 1,74,-1
 431 -61 l 1,75,-1
 370 -61 l 1,76,-1
 370 10 l 1,77,78
 361 4 361 4 338 1 c 2,79,-1
 274 0 l 2,80,81
 166 0 166 0 101 36 c 0,15,16
EndSplineSet
EndChar

StartChar: Lla
Encoding: 3103 3103 138
Width: 630
GlyphClass: 2
Flags: W
AnchorPoint: "Anchor-0" 0 0 basechar 0
LayerCount: 2
Back
Fore
SplineSet
224 291 m 0,0,1
 236 304 236 304 236 321 c 0,2,3
 236 341 236 341 224 356 c 0,4,5
 211 370 211 370 194 370 c 0,6,7
 174 370 174 370 159 356 c 0,8,9
 145 341 145 341 145 321 c 0,10,11
 145 304 145 304 159 291 c 0,12,13
 174 279 174 279 194 279 c 0,14,15
 211 279 211 279 224 291 c 0,0,1
81 60 m 0,16,17
 30 121 30 121 30 206 c 0,18,19
 30 296 30 296 73 361 c 0,20,21
 116 425 116 425 176 425 c 1,22,-1
 176 559 l 1,23,-1
 236 559 l 1,24,-1
 236 425 l 1,25,26
 264 415 264 415 281 389 c 0,27,28
 298 361 298 361 298 328 c 0,29,30
 298 283 298 283 265 250 c 0,31,32
 233 219 233 219 188 219 c 0,33,34
 158 219 158 219 134 230 c 0,35,36
 111 241 111 241 103 261 c 1,37,38
 98 255 98 255 94 239 c 0,39,40
 91 224 91 224 91 200 c 0,41,42
 91 143 91 143 126 103 c 0,43,44
 163 61 163 61 213 61 c 0,45,46
 248 61 248 61 273 83 c 0,47,48
 298 104 298 104 298 134 c 2,49,-1
 298 183 l 1,50,-1
 358 183 l 1,51,-1
 358 140 l 2,52,53
 358 108 358 108 381 84 c 0,54,55
 404 61 404 61 438 61 c 0,56,57
 485 61 485 61 519 104 c 0,58,59
 553 146 553 146 553 206 c 0,60,61
 553 271 553 271 514 318 c 0,62,63
 474 364 474 364 419 364 c 2,64,-1
 395 364 l 1,65,-1
 395 425 l 1,66,-1
 438 425 l 2,67,68
 510 425 510 425 561 359 c 0,69,70
 613 294 613 294 613 200 c 0,71,72
 613 118 613 118 561 59 c 0,73,74
 510 0 510 0 438 0 c 0,75,76
 399 0 399 0 368 13 c 0,77,78
 336 26 336 26 321 49 c 1,79,80
 306 26 306 26 275 13 c 0,81,82
 245 0 245 0 206 0 c 0,83,84
 134 0 134 0 81 60 c 0,16,17
EndSplineSet
EndChar

StartChar: TTha
Encoding: 3104 3104 139
Width: 590
GlyphClass: 2
Flags: W
AnchorPoint: "Anchor-0" 0 0 basechar 0
LayerCount: 2
Back
Fore
SplineSet
236 176 m 1,0,-1
 236 236 l 1,1,-1
 298 236 l 1,2,-1
 298 176 l 1,3,-1
 236 176 l 1,0,-1
393 105 m 0,4,5
 444 150 444 150 444 213 c 0,6,7
 444 275 444 275 393 320 c 0,8,9
 340 364 340 364 268 364 c 0,10,11
 195 364 195 364 143 320 c 0,12,13
 91 275 91 275 91 213 c 0,14,15
 91 150 91 150 143 105 c 0,16,17
 195 61 195 61 268 61 c 0,18,19
 340 61 340 61 393 105 c 0,4,5
390 395 m 1,20,21
 414 381 414 381 435 363 c 0,22,23
 504 300 504 300 504 213 c 0,24,25
 504 120 504 120 436 60 c 0,26,27
 370 0 370 0 268 0 c 0,28,29
 169 0 169 0 100 60 c 0,30,31
 30 121 30 121 30 206 c 0,32,33
 30 296 30 296 100 361 c 0,34,35
 126 385 126 385 156 400 c 1,36,37
 140 416 140 416 140 438 c 2,38,-1
 140 498 l 1,39,-1
 201 498 l 1,40,-1
 201 444 l 2,41,42
 201 438 201 438 206 431 c 0,43,44
 211 426 211 426 219 425 c 2,45,-1
 330 425 l 1,46,-1
 330 498 l 2,47,48
 330 523 330 523 348 541 c 0,49,50
 365 559 365 559 390 559 c 2,51,-1
 573 559 l 1,52,-1
 573 498 l 1,53,-1
 415 498 l 2,54,55
 405 498 405 498 398 490 c 0,56,57
 390 484 390 484 390 474 c 2,58,-1
 390 395 l 1,20,21
EndSplineSet
EndChar

StartChar: DDa
Encoding: 3105 3105 140
Width: 635
GlyphClass: 2
Flags: W
AnchorPoint: "Anchor-0" 0 0 basechar 0
LayerCount: 2
Back
Fore
SplineSet
435 425 m 1,0,-1
 530 425 l 1,1,-1
 530 364 l 1,2,-1
 248 364 l 2,3,4
 183 364 183 364 138 314 c 0,5,6
 91 264 91 264 91 194 c 0,7,8
 91 139 91 139 121 100 c 0,9,10
 153 61 153 61 195 61 c 0,11,12
 234 61 234 61 261 84 c 0,13,14
 289 108 289 108 289 140 c 2,15,-1
 289 183 l 1,16,-1
 349 183 l 1,17,-1
 349 146 l 2,18,19
 349 111 349 111 378 86 c 0,20,21
 406 61 406 61 448 61 c 0,22,23
 484 61 484 61 509 83 c 0,24,25
 534 104 534 104 534 134 c 0,26,27
 534 154 534 154 518 169 c 0,28,29
 503 183 503 183 480 183 c 0,30,31
 464 183 464 183 453 175 c 0,32,33
 441 168 441 168 441 158 c 1,34,-1
 376 158 l 1,35,36
 376 193 376 193 406 218 c 0,37,38
 438 243 438 243 480 243 c 0,39,40
 529 243 529 243 563 211 c 0,41,42
 596 179 596 179 596 134 c 0,43,44
 596 79 596 79 553 39 c 0,45,46
 509 0 509 0 448 0 c 0,47,48
 403 0 403 0 368 15 c 0,49,50
 334 30 334 30 319 55 c 1,51,52
 299 29 299 29 266 15 c 0,53,54
 234 0 234 0 195 0 c 0,55,56
 126 0 126 0 79 56 c 0,57,58
 30 114 30 114 30 194 c 0,59,60
 30 290 30 290 94 358 c 0,61,62
 136 402 136 402 189 417 c 1,63,64
 185 427 185 427 185 438 c 2,65,-1
 185 498 l 1,66,-1
 246 498 l 1,67,-1
 246 444 l 2,68,69
 246 438 246 438 251 431 c 0,70,71
 256 426 256 426 264 425 c 2,72,-1
 375 425 l 1,73,-1
 375 498 l 2,74,75
 375 523 375 523 393 541 c 0,76,77
 410 559 410 559 435 559 c 2,78,-1
 618 559 l 1,79,-1
 618 498 l 1,80,-1
 460 498 l 2,81,82
 450 498 450 498 443 490 c 0,83,84
 435 484 435 484 435 474 c 2,85,-1
 435 425 l 1,0,-1
EndSplineSet
EndChar

StartChar: DDha
Encoding: 3106 3106 141
Width: 635
GlyphClass: 2
Flags: W
AnchorPoint: "Anchor-0" 0 0 basechar 0
LayerCount: 2
Back
Fore
SplineSet
286 -122 m 1,0,-1
 286 0 l 1,1,-1
 351 0 l 1,2,-1
 351 -122 l 1,3,-1
 286 -122 l 1,0,-1
435 425 m 1,4,-1
 530 425 l 1,5,-1
 530 364 l 1,6,-1
 248 364 l 2,7,8
 183 364 183 364 138 314 c 0,9,10
 91 264 91 264 91 194 c 0,11,12
 91 139 91 139 121 100 c 0,13,14
 153 61 153 61 195 61 c 0,15,16
 234 61 234 61 261 84 c 0,17,18
 289 108 289 108 289 140 c 2,19,-1
 289 183 l 1,20,-1
 349 183 l 1,21,-1
 349 146 l 2,22,23
 349 111 349 111 378 86 c 0,24,25
 406 61 406 61 448 61 c 0,26,27
 484 61 484 61 509 83 c 0,28,29
 534 104 534 104 534 134 c 0,30,31
 534 154 534 154 518 169 c 0,32,33
 503 183 503 183 480 183 c 0,34,35
 464 183 464 183 453 175 c 0,36,37
 441 168 441 168 441 158 c 1,38,-1
 376 158 l 1,39,40
 376 193 376 193 406 218 c 0,41,42
 438 243 438 243 480 243 c 0,43,44
 529 243 529 243 563 211 c 0,45,46
 596 179 596 179 596 134 c 0,47,48
 596 79 596 79 553 39 c 0,49,50
 509 0 509 0 448 0 c 0,51,52
 403 0 403 0 368 15 c 0,53,54
 334 30 334 30 319 55 c 1,55,56
 299 29 299 29 266 15 c 0,57,58
 234 0 234 0 195 0 c 0,59,60
 126 0 126 0 79 56 c 0,61,62
 30 114 30 114 30 194 c 0,63,64
 30 290 30 290 94 358 c 0,65,66
 136 402 136 402 189 417 c 1,67,68
 185 427 185 427 185 438 c 2,69,-1
 185 498 l 1,70,-1
 246 498 l 1,71,-1
 246 444 l 2,72,73
 246 438 246 438 251 431 c 0,74,75
 256 426 256 426 264 425 c 2,76,-1
 375 425 l 1,77,-1
 375 498 l 2,78,79
 375 523 375 523 393 541 c 0,80,81
 410 559 410 559 435 559 c 2,82,-1
 618 559 l 1,83,-1
 618 498 l 1,84,-1
 460 498 l 2,85,86
 450 498 450 498 443 490 c 0,87,88
 435 484 435 484 435 474 c 2,89,-1
 435 425 l 1,4,-1
EndSplineSet
EndChar

StartChar: uni0C23
Encoding: 3107 3107 142
Width: 606
GlyphClass: 2
Flags: W
AnchorPoint: "Anchor-0" 0 0 basechar 0
LayerCount: 2
Back
Fore
SplineSet
459 69 m 0,0,1
 473 84 473 84 473 104 c 256,2,3
 473 124 473 124 459 138 c 0,4,5
 445 151 445 151 425 151 c 256,6,7
 405 151 405 151 390 138 c 0,8,9
 376 124 376 124 376 104 c 256,10,11
 376 84 376 84 390 69 c 0,12,13
 405 55 405 55 425 55 c 256,14,15
 445 55 445 55 459 69 c 0,0,1
68 35 m 0,16,17
 30 71 30 71 30 121 c 0,18,19
 30 146 30 146 45 169 c 0,20,21
 60 191 60 191 85 206 c 1,22,23
 60 219 60 219 45 245 c 256,24,25
 30 271 30 271 30 304 c 0,26,27
 30 354 30 354 73 390 c 0,28,29
 115 425 115 425 175 425 c 0,30,31
 211 425 211 425 241 410 c 0,32,33
 270 395 270 395 285 370 c 1,34,35
 300 395 300 395 333 410 c 0,36,37
 365 425 365 425 406 425 c 0,38,39
 481 425 481 425 535 366 c 0,40,41
 589 308 589 308 589 225 c 0,42,43
 589 131 589 131 544 66 c 0,44,45
 500 0 500 0 436 0 c 0,46,47
 386 0 386 0 350 30 c 0,48,49
 315 61 315 61 315 104 c 0,50,51
 315 146 315 146 348 176 c 0,52,53
 380 206 380 206 425 206 c 0,54,55
 453 206 453 206 476 193 c 256,56,57
 499 180 499 180 510 158 c 1,58,59
 519 169 519 169 523 186 c 0,60,61
 528 204 528 204 528 225 c 0,62,63
 528 283 528 283 493 323 c 0,64,65
 456 364 456 364 406 364 c 0,66,67
 370 364 370 364 344 343 c 0,68,69
 318 323 318 323 315 291 c 1,70,-1
 255 291 l 1,71,72
 255 321 255 321 231 343 c 0,73,74
 209 364 209 364 175 364 c 0,75,76
 143 364 143 364 119 346 c 0,77,78
 96 329 96 329 96 304 c 256,79,80
 96 279 96 279 118 260 c 0,81,82
 140 243 140 243 170 243 c 2,83,-1
 194 243 l 1,84,-1
 194 183 l 1,85,-1
 170 183 l 2,86,87
 140 183 140 183 118 165 c 0,88,89
 96 146 96 146 96 121 c 256,90,91
 96 96 96 96 114 79 c 0,92,93
 133 61 133 61 158 61 c 256,94,95
 183 61 183 61 200 71 c 0,96,97
 218 83 218 83 218 98 c 2,98,-1
 218 115 l 1,99,-1
 279 115 l 1,100,-1
 279 91 l 2,101,102
 279 54 279 54 244 26 c 0,103,104
 208 0 208 0 158 0 c 0,105,106
 105 0 105 0 68 35 c 0,16,17
EndSplineSet
EndChar

StartChar: Ta
Encoding: 3108 3108 143
Width: 616
GlyphClass: 2
Flags: W
AnchorPoint: "Anchor-0" 0 0 basechar 0
LayerCount: 2
Back
Fore
SplineSet
188 180 m 0,0,1
 201 191 201 191 201 206 c 256,2,3
 201 221 201 221 188 233 c 0,4,5
 174 243 174 243 154 243 c 256,6,7
 134 243 134 243 119 233 c 0,8,9
 105 221 105 221 105 206 c 256,10,11
 105 191 105 191 119 180 c 0,12,13
 134 170 134 170 154 170 c 256,14,15
 174 170 174 170 188 180 c 0,0,1
513 180 m 0,16,17
 528 191 528 191 528 206 c 256,18,19
 528 221 528 221 513 233 c 0,20,21
 498 243 498 243 476 243 c 0,22,23
 455 243 455 243 441 233 c 0,24,25
 426 221 426 221 426 206 c 256,26,27
 426 191 426 191 441 180 c 0,28,29
 456 170 456 170 478 170 c 0,30,31
 499 170 499 170 513 180 c 0,16,17
399 425 m 2,32,33
 455 425 455 425 494 388 c 0,34,35
 534 350 534 350 534 298 c 1,36,37
 564 284 564 284 581 253 c 0,38,39
 599 221 599 221 599 183 c 0,40,41
 599 100 599 100 520 50 c 256,42,43
 441 0 441 0 310 0 c 0,44,45
 183 0 183 0 106 51 c 0,46,47
 30 103 30 103 30 189 c 0,48,49
 30 236 30 236 68 270 c 256,50,51
 106 304 106 304 160 304 c 0,52,53
 203 304 203 304 234 275 c 0,54,55
 264 246 264 246 264 206 c 0,56,57
 264 169 264 169 234 141 c 0,58,59
 203 115 203 115 160 115 c 0,60,61
 135 115 135 115 123 121 c 1,62,63
 136 94 136 94 186 78 c 0,64,65
 238 61 238 61 310 61 c 0,66,67
 378 61 378 61 424 74 c 0,68,69
 471 86 471 86 489 109 c 1,70,-1
 464 109 l 2,71,72
 424 109 424 109 396 138 c 0,73,74
 368 166 368 166 368 206 c 256,75,76
 368 246 368 246 398 275 c 256,77,78
 428 304 428 304 470 304 c 1,79,80
 470 329 470 329 449 346 c 0,81,82
 429 364 429 364 399 364 c 2,83,-1
 218 364 l 1,84,-1
 218 425 l 1,85,-1
 271 425 l 1,86,-1
 271 486 l 2,87,88
 271 516 271 516 293 538 c 0,89,90
 315 559 315 559 345 559 c 2,91,-1
 575 559 l 1,92,-1
 575 498 l 1,93,-1
 369 498 l 2,94,95
 354 498 354 498 343 489 c 0,96,97
 333 480 333 480 333 468 c 2,98,-1
 333 425 l 1,99,-1
 399 425 l 2,32,33
EndSplineSet
EndChar

StartChar: Tha
Encoding: 3109 3109 144
Width: 626
GlyphClass: 2
Flags: W
AnchorPoint: "Anchor-0" 0 0 basechar 0
LayerCount: 2
Back
Fore
SplineSet
273 255 m 1,0,-1
 273 316 l 1,1,-1
 334 316 l 1,2,-1
 334 255 l 1,3,-1
 273 255 l 1,0,-1
248 83 m 0,4,5
 273 104 273 104 273 134 c 2,6,-1
 273 183 l 1,7,-1
 334 183 l 1,8,-1
 334 134 l 2,9,10
 334 104 334 104 359 83 c 0,11,12
 384 61 384 61 419 61 c 0,13,14
 456 61 456 61 484 96 c 0,15,16
 510 133 510 133 510 183 c 0,17,18
 510 265 510 265 454 314 c 0,19,20
 396 364 396 364 303 364 c 0,21,22
 206 364 206 364 149 314 c 0,23,24
 91 265 91 265 91 183 c 0,25,26
 91 133 91 133 120 96 c 0,27,28
 148 61 148 61 188 61 c 0,29,30
 223 61 223 61 248 83 c 0,4,5
273 -122 m 1,31,-1
 273 0 l 1,32,-1
 334 0 l 1,33,-1
 334 -122 l 1,34,-1
 273 -122 l 1,31,-1
426 410 m 1,35,36
 469 394 469 394 503 364 c 0,37,38
 576 295 576 295 576 183 c 0,39,40
 576 108 576 108 535 54 c 0,41,42
 495 0 495 0 438 0 c 0,43,44
 391 0 391 0 356 16 c 0,45,46
 320 33 320 33 304 61 c 1,47,48
 288 33 288 33 256 16 c 0,49,50
 225 0 225 0 188 0 c 0,51,52
 123 0 123 0 76 54 c 0,53,54
 30 108 30 108 30 183 c 0,55,56
 30 295 30 295 105 364 c 0,57,58
 140 396 140 396 187 412 c 1,59,60
 176 426 176 426 176 444 c 2,61,-1
 176 504 l 1,62,-1
 238 504 l 1,63,-1
 238 450 l 2,64,65
 238 444 238 444 243 438 c 0,66,67
 248 433 248 433 255 431 c 2,68,-1
 366 431 l 1,69,-1
 366 504 l 2,70,71
 366 529 366 529 384 548 c 0,72,73
 401 565 401 565 426 565 c 2,74,-1
 609 565 l 1,75,-1
 609 504 l 1,76,-1
 451 504 l 2,77,78
 441 504 441 504 434 496 c 0,79,80
 426 490 426 490 426 480 c 2,81,-1
 426 410 l 1,35,36
EndSplineSet
EndChar

StartChar: Da
Encoding: 3110 3110 145
Width: 626
GlyphClass: 2
Flags: W
AnchorPoint: "Anchor-0" 0 0 basechar 0
LayerCount: 2
Back
Fore
SplineSet
248 83 m 0,0,1
 273 104 273 104 273 134 c 2,2,-1
 273 183 l 1,3,-1
 334 183 l 1,4,-1
 334 134 l 2,5,6
 334 104 334 104 359 83 c 0,7,8
 384 61 384 61 419 61 c 0,9,10
 456 61 456 61 484 96 c 0,11,12
 510 133 510 133 510 183 c 0,13,14
 510 265 510 265 454 314 c 0,15,16
 396 364 396 364 303 364 c 0,17,18
 206 364 206 364 149 314 c 0,19,20
 91 265 91 265 91 183 c 0,21,22
 91 133 91 133 120 96 c 0,23,24
 148 61 148 61 188 61 c 0,25,26
 223 61 223 61 248 83 c 0,0,1
426 410 m 1,27,28
 469 394 469 394 503 364 c 0,29,30
 576 295 576 295 576 183 c 0,31,32
 576 108 576 108 535 54 c 0,33,34
 495 0 495 0 438 0 c 0,35,36
 391 0 391 0 356 16 c 0,37,38
 320 33 320 33 304 61 c 1,39,40
 288 33 288 33 256 16 c 0,41,42
 225 0 225 0 188 0 c 0,43,44
 123 0 123 0 76 54 c 0,45,46
 30 108 30 108 30 183 c 0,47,48
 30 295 30 295 105 364 c 0,49,50
 140 396 140 396 187 412 c 1,51,52
 176 426 176 426 176 444 c 2,53,-1
 176 504 l 1,54,-1
 238 504 l 1,55,-1
 238 450 l 2,56,57
 238 444 238 444 243 438 c 0,58,59
 248 433 248 433 255 431 c 2,60,-1
 366 431 l 1,61,-1
 366 504 l 2,62,63
 366 529 366 529 384 548 c 0,64,65
 401 565 401 565 426 565 c 2,66,-1
 609 565 l 1,67,-1
 609 504 l 1,68,-1
 451 504 l 2,69,70
 441 504 441 504 434 496 c 0,71,72
 426 490 426 490 426 480 c 2,73,-1
 426 410 l 1,27,28
EndSplineSet
EndChar

StartChar: Dha
Encoding: 3111 3111 146
Width: 626
GlyphClass: 2
Flags: W
AnchorPoint: "Anchor-0" 0 0 basechar 0
LayerCount: 2
Back
Fore
SplineSet
248 83 m 0,0,1
 273 104 273 104 273 134 c 2,2,-1
 273 183 l 1,3,-1
 334 183 l 1,4,-1
 334 134 l 2,5,6
 334 104 334 104 359 83 c 0,7,8
 384 61 384 61 419 61 c 0,9,10
 456 61 456 61 484 96 c 0,11,12
 510 133 510 133 510 183 c 0,13,14
 510 265 510 265 454 314 c 0,15,16
 396 364 396 364 303 364 c 0,17,18
 206 364 206 364 149 314 c 0,19,20
 91 265 91 265 91 183 c 0,21,22
 91 133 91 133 120 96 c 0,23,24
 148 61 148 61 188 61 c 0,25,26
 223 61 223 61 248 83 c 0,0,1
273 -122 m 1,27,-1
 273 0 l 1,28,-1
 334 0 l 1,29,-1
 334 -122 l 1,30,-1
 273 -122 l 1,27,-1
426 410 m 1,31,32
 469 394 469 394 503 364 c 0,33,34
 576 295 576 295 576 183 c 0,35,36
 576 108 576 108 535 54 c 0,37,38
 495 0 495 0 438 0 c 0,39,40
 391 0 391 0 356 16 c 0,41,42
 320 33 320 33 304 61 c 1,43,44
 288 33 288 33 256 16 c 0,45,46
 225 0 225 0 188 0 c 0,47,48
 123 0 123 0 76 54 c 0,49,50
 30 108 30 108 30 183 c 0,51,52
 30 295 30 295 105 364 c 0,53,54
 140 396 140 396 187 412 c 1,55,56
 176 426 176 426 176 444 c 2,57,-1
 176 504 l 1,58,-1
 238 504 l 1,59,-1
 238 450 l 2,60,61
 238 444 238 444 243 438 c 0,62,63
 248 433 248 433 255 431 c 2,64,-1
 366 431 l 1,65,-1
 366 504 l 2,66,67
 366 529 366 529 384 548 c 0,68,69
 401 565 401 565 426 565 c 2,70,-1
 609 565 l 1,71,-1
 609 504 l 1,72,-1
 451 504 l 2,73,74
 441 504 441 504 434 496 c 0,75,76
 426 490 426 490 426 480 c 2,77,-1
 426 410 l 1,31,32
EndSplineSet
EndChar

StartChar: Na
Encoding: 3112 3112 147
Width: 563
GlyphClass: 2
Flags: W
AnchorPoint: "Anchor-0" 0 0 basechar 0
LayerCount: 2
Back
Fore
SplineSet
370 425 m 2,0,1
 443 425 443 425 495 361 c 0,2,3
 546 296 546 296 546 206 c 0,4,5
 546 121 546 121 496 60 c 0,6,7
 446 0 446 0 376 0 c 0,8,9
 319 0 319 0 279 38 c 0,10,11
 238 75 238 75 238 128 c 0,12,13
 238 155 238 155 216 174 c 0,14,15
 194 194 194 194 164 194 c 256,16,17
 134 194 134 194 113 176 c 0,18,19
 91 159 91 159 91 134 c 0,20,21
 91 104 91 104 109 83 c 0,22,23
 128 61 128 61 153 61 c 1,24,-1
 153 0 l 1,25,26
 101 0 101 0 66 39 c 0,27,28
 30 79 30 79 30 134 c 0,29,30
 30 184 30 184 69 220 c 0,31,32
 109 255 109 255 164 255 c 0,33,34
 225 255 225 255 261 225 c 0,35,36
 298 195 298 195 298 146 c 0,37,38
 298 111 298 111 323 86 c 256,39,40
 348 61 348 61 383 61 c 0,41,42
 425 61 425 61 456 104 c 0,43,44
 486 146 486 146 486 206 c 0,45,46
 486 271 486 271 451 318 c 0,47,48
 415 364 415 364 365 364 c 2,49,-1
 56 364 l 1,50,-1
 56 425 l 1,51,-1
 166 425 l 1,52,-1
 166 486 l 2,53,54
 166 516 166 516 188 538 c 0,55,56
 210 559 210 559 240 559 c 2,57,-1
 408 559 l 1,58,-1
 408 498 l 1,59,-1
 264 498 l 2,60,61
 249 498 249 498 238 489 c 0,62,63
 228 480 228 480 228 468 c 2,64,-1
 228 425 l 1,65,-1
 370 425 l 2,0,1
EndSplineSet
EndChar

StartChar: Pa
Encoding: 3114 3114 148
Width: 563
GlyphClass: 2
Flags: W
AnchorPoint: "Anchor-0" 0 0 basechar 0
LayerCount: 2
Back
Fore
SplineSet
211 76 m 0,0,1
 231 98 231 98 231 128 c 0,2,3
 231 155 231 155 211 174 c 0,4,5
 191 194 191 194 164 194 c 0,6,7
 134 194 134 194 113 174 c 0,8,9
 91 155 91 155 91 128 c 0,10,11
 91 98 91 98 113 76 c 0,12,13
 134 55 134 55 164 55 c 0,14,15
 191 55 191 55 211 76 c 0,0,1
31 364 m 1,16,-1
 31 425 l 1,17,-1
 104 425 l 1,18,-1
 104 498 l 2,19,20
 104 523 104 523 121 541 c 0,21,22
 140 559 140 559 165 559 c 2,23,-1
 333 559 l 1,24,-1
 333 498 l 1,25,-1
 189 498 l 2,26,27
 179 498 179 498 173 490 c 0,28,29
 165 484 165 484 165 474 c 2,30,-1
 165 364 l 1,31,-1
 31 364 l 1,16,-1
69 38 m 0,32,33
 30 75 30 75 30 128 c 0,34,35
 30 178 30 178 69 214 c 0,36,37
 109 249 109 249 164 249 c 0,38,39
 216 249 216 249 254 215 c 0,40,41
 291 181 291 181 291 134 c 0,42,43
 291 111 291 111 285 98 c 1,44,45
 295 81 295 81 316 71 c 0,46,47
 338 61 338 61 365 61 c 0,48,49
 413 61 413 61 446 105 c 0,50,51
 480 150 480 150 480 213 c 0,52,53
 480 275 480 275 445 320 c 0,54,55
 409 364 409 364 359 364 c 2,56,-1
 285 364 l 1,57,-1
 285 425 l 1,58,-1
 365 425 l 2,59,60
 440 425 440 425 494 359 c 0,61,62
 546 294 546 294 546 200 c 0,63,64
 546 118 546 118 495 59 c 0,65,66
 443 0 443 0 370 0 c 0,67,68
 338 0 338 0 309 11 c 0,69,70
 281 23 281 23 261 43 c 1,71,72
 241 23 241 23 216 11 c 0,73,74
 191 0 191 0 164 0 c 0,75,76
 109 0 109 0 69 38 c 0,32,33
EndSplineSet
EndChar

StartChar: Pha
Encoding: 3115 3115 149
Width: 563
GlyphClass: 2
Flags: W
AnchorPoint: "Anchor-0" 0 0 basechar 0
LayerCount: 2
Back
Fore
SplineSet
211 76 m 0,0,1
 231 98 231 98 231 128 c 0,2,3
 231 155 231 155 211 174 c 0,4,5
 191 194 191 194 164 194 c 0,6,7
 134 194 134 194 113 174 c 0,8,9
 91 155 91 155 91 128 c 0,10,11
 91 98 91 98 113 76 c 0,12,13
 134 55 134 55 164 55 c 0,14,15
 191 55 191 55 211 76 c 0,0,1
31 364 m 1,16,-1
 31 425 l 1,17,-1
 104 425 l 1,18,-1
 104 498 l 2,19,20
 104 523 104 523 121 541 c 0,21,22
 140 559 140 559 165 559 c 2,23,-1
 333 559 l 1,24,-1
 333 498 l 1,25,-1
 189 498 l 2,26,27
 179 498 179 498 173 490 c 0,28,29
 165 484 165 484 165 474 c 2,30,-1
 165 364 l 1,31,-1
 31 364 l 1,16,-1
231 -122 m 1,32,-1
 231 0 l 1,33,-1
 291 0 l 1,34,-1
 291 -122 l 1,35,-1
 231 -122 l 1,32,-1
69 38 m 0,36,37
 30 75 30 75 30 128 c 0,38,39
 30 178 30 178 69 214 c 0,40,41
 109 249 109 249 164 249 c 0,42,43
 216 249 216 249 254 215 c 0,44,45
 291 181 291 181 291 134 c 0,46,47
 291 111 291 111 285 98 c 1,48,49
 295 81 295 81 316 71 c 0,50,51
 338 61 338 61 365 61 c 0,52,53
 413 61 413 61 446 105 c 0,54,55
 480 150 480 150 480 213 c 0,56,57
 480 275 480 275 445 320 c 0,58,59
 409 364 409 364 359 364 c 2,60,-1
 285 364 l 1,61,-1
 285 425 l 1,62,-1
 365 425 l 2,63,64
 440 425 440 425 494 359 c 0,65,66
 546 294 546 294 546 200 c 0,67,68
 546 118 546 118 495 59 c 0,69,70
 443 0 443 0 370 0 c 0,71,72
 338 0 338 0 309 11 c 0,73,74
 281 23 281 23 261 43 c 1,75,76
 241 23 241 23 216 11 c 0,77,78
 191 0 191 0 164 0 c 0,79,80
 109 0 109 0 69 38 c 0,36,37
EndSplineSet
EndChar

StartChar: Ba
Encoding: 3116 3116 150
Width: 593
GlyphClass: 2
Flags: W
AnchorPoint: "Anchor-0" 0 0 basechar 0
LayerCount: 2
Back
Fore
SplineSet
76 39 m 0,0,1
 30 79 30 79 30 134 c 0,2,3
 30 181 30 181 59 218 c 0,4,5
 89 254 89 254 134 261 c 0,6,7
 163 266 163 266 181 285 c 0,8,9
 200 304 200 304 200 328 c 0,10,11
 200 345 200 345 186 358 c 0,12,13
 171 370 171 370 151 370 c 256,14,15
 131 370 131 370 116 356 c 0,16,17
 103 341 103 341 103 321 c 2,18,-1
 103 304 l 1,19,-1
 43 304 l 1,20,-1
 43 328 l 2,21,22
 43 368 43 368 74 396 c 0,23,24
 106 425 106 425 151 425 c 256,25,26
 196 425 196 425 229 396 c 0,27,28
 261 368 261 368 261 328 c 0,29,30
 261 291 261 291 236 260 c 0,31,32
 210 230 210 230 170 219 c 0,33,34
 135 209 135 209 114 185 c 0,35,36
 91 161 91 161 91 134 c 0,37,38
 91 104 91 104 120 83 c 0,39,40
 148 61 148 61 188 61 c 256,41,42
 228 61 228 61 256 88 c 0,43,44
 285 114 285 114 285 151 c 2,45,-1
 285 183 l 1,46,-1
 346 183 l 1,47,-1
 346 134 l 2,48,49
 346 104 346 104 368 83 c 0,50,51
 389 61 389 61 419 61 c 0,52,53
 463 61 463 61 490 103 c 0,54,55
 516 144 516 144 516 213 c 0,56,57
 516 275 516 275 486 320 c 0,58,59
 455 364 455 364 413 364 c 2,60,-1
 364 364 l 1,61,-1
 364 425 l 1,62,-1
 413 425 l 2,63,64
 480 425 480 425 529 361 c 0,65,66
 576 296 576 296 576 206 c 0,67,68
 576 121 576 121 533 60 c 0,69,70
 488 0 488 0 425 0 c 0,71,72
 389 0 389 0 358 15 c 0,73,74
 328 29 328 29 310 55 c 1,75,76
 293 29 293 29 260 15 c 0,77,78
 228 0 228 0 188 0 c 0,79,80
 123 0 123 0 76 39 c 0,0,1
EndSplineSet
EndChar

StartChar: Bha
Encoding: 3117 3117 151
Width: 607
GlyphClass: 2
Flags: W
AnchorPoint: "Anchor-0" 0 0 basechar 0
LayerCount: 2
Back
Fore
SplineSet
279 -122 m 1,0,-1
 279 0 l 1,1,-1
 340 0 l 1,2,-1
 340 -122 l 1,3,-1
 279 -122 l 1,0,-1
426 424 m 1,4,5
 484 416 484 416 526 363 c 0,6,7
 576 300 576 300 576 213 c 0,8,9
 576 125 576 125 530 63 c 0,10,11
 484 0 484 0 419 0 c 0,12,13
 385 0 385 0 356 15 c 0,14,15
 328 29 328 29 310 55 c 1,16,17
 293 29 293 29 260 15 c 0,18,19
 228 0 228 0 188 0 c 0,20,21
 123 0 123 0 76 39 c 0,22,23
 30 79 30 79 30 134 c 0,24,25
 30 181 30 181 59 218 c 0,26,27
 89 254 89 254 134 261 c 0,28,29
 163 266 163 266 181 285 c 0,30,31
 200 304 200 304 200 328 c 0,32,33
 200 345 200 345 186 358 c 0,34,35
 171 370 171 370 151 370 c 256,36,37
 131 370 131 370 116 356 c 0,38,39
 103 341 103 341 103 321 c 2,40,-1
 103 304 l 1,41,-1
 43 304 l 1,42,-1
 43 328 l 2,43,44
 43 368 43 368 74 396 c 0,45,46
 106 425 106 425 151 425 c 256,47,48
 196 425 196 425 229 396 c 0,49,50
 261 368 261 368 261 328 c 0,51,52
 261 291 261 291 236 260 c 0,53,54
 210 230 210 230 170 219 c 0,55,56
 135 209 135 209 114 185 c 0,57,58
 91 161 91 161 91 134 c 0,59,60
 91 104 91 104 120 83 c 0,61,62
 148 61 148 61 188 61 c 256,63,64
 228 61 228 61 256 88 c 0,65,66
 285 114 285 114 285 151 c 2,67,-1
 285 183 l 1,68,-1
 346 183 l 1,69,-1
 346 134 l 2,70,71
 346 104 346 104 368 83 c 0,72,73
 389 61 389 61 419 61 c 0,74,75
 463 61 463 61 490 103 c 0,76,77
 516 144 516 144 516 213 c 0,78,79
 516 275 516 275 484 320 c 0,80,81
 451 364 451 364 406 364 c 2,82,-1
 298 364 l 1,83,-1
 298 425 l 1,84,-1
 349 425 l 1,85,-1
 349 486 l 2,86,87
 349 516 349 516 370 538 c 0,88,89
 393 559 393 559 423 559 c 2,90,-1
 590 559 l 1,91,-1
 590 498 l 1,92,-1
 446 498 l 2,93,94
 431 498 431 498 420 489 c 0,95,96
 410 480 410 480 410 468 c 2,97,-1
 410 425 l 1,98,-1
 426 425 l 1,99,-1
 426 424 l 1,4,5
EndSplineSet
EndChar

StartChar: Ma
Encoding: 3118 3118 152
Width: 867
GlyphClass: 2
Flags: W
AnchorPoint: "Anchor-3" 0 0 basechar 0
AnchorPoint: "Anchor-0" 0 0 basechar 0
LayerCount: 2
Back
Fore
SplineSet
211 76 m 0,0,1
 231 98 231 98 231 128 c 0,2,3
 231 155 231 155 211 174 c 0,4,5
 191 194 191 194 164 194 c 0,6,7
 134 194 134 194 113 174 c 0,8,9
 91 155 91 155 91 128 c 0,10,11
 91 98 91 98 113 76 c 0,12,13
 134 55 134 55 164 55 c 0,14,15
 191 55 191 55 211 76 c 0,0,1
55 364 m 1,16,-1
 55 425 l 1,17,-1
 165 425 l 1,18,-1
 165 486 l 2,19,20
 165 516 165 516 186 538 c 0,21,22
 209 559 209 559 239 559 c 2,23,-1
 406 559 l 1,24,-1
 406 498 l 1,25,-1
 263 498 l 2,26,27
 248 498 248 498 236 489 c 0,28,29
 226 480 226 480 226 468 c 2,30,-1
 226 425 l 1,31,-1
 365 425 l 2,32,33
 440 425 440 425 494 363 c 0,34,35
 546 300 546 300 546 213 c 0,36,37
 546 174 546 174 536 141 c 1,38,39
 548 116 548 116 569 96 c 0,40,41
 606 61 606 61 655 61 c 0,42,43
 710 61 710 61 750 105 c 0,44,45
 789 150 789 150 789 213 c 0,46,47
 789 275 789 275 758 320 c 0,48,49
 725 364 725 364 680 364 c 2,50,-1
 656 364 l 1,51,-1
 656 425 l 1,52,-1
 674 425 l 2,53,54
 746 425 746 425 799 363 c 0,55,56
 850 300 850 300 850 213 c 0,57,58
 850 125 850 125 793 63 c 0,59,60
 736 0 736 0 655 0 c 0,61,62
 600 0 600 0 554 31 c 0,63,64
 525 52 525 52 507 80 c 1,65,66
 501 71 501 71 494 63 c 0,67,68
 440 0 440 0 365 0 c 0,69,70
 335 0 335 0 308 11 c 0,71,72
 281 23 281 23 261 43 c 1,73,74
 241 23 241 23 216 11 c 0,75,76
 191 0 191 0 164 0 c 0,77,78
 109 0 109 0 69 38 c 0,79,80
 30 75 30 75 30 128 c 0,81,82
 30 178 30 178 69 214 c 0,83,84
 109 249 109 249 164 249 c 0,85,86
 216 249 216 249 254 215 c 0,87,88
 291 181 291 181 291 134 c 0,89,90
 291 111 291 111 285 98 c 1,91,92
 295 81 295 81 316 71 c 0,93,94
 338 61 338 61 365 61 c 0,95,96
 413 61 413 61 446 105 c 0,97,98
 480 150 480 150 480 213 c 0,99,100
 480 275 480 275 445 320 c 0,101,102
 409 364 409 364 359 364 c 2,103,-1
 55 364 l 1,16,-1
EndSplineSet
EndChar

StartChar: Ya
Encoding: 3119 3119 153
Width: 1115
GlyphClass: 2
Flags: W
AnchorPoint: "Anchor-2" 0 0 basechar 0
AnchorPoint: "Anchor-0" 0 0 basechar 0
LayerCount: 2
Back
Fore
SplineSet
394 105 m 0,0,1
 444 150 444 150 444 213 c 0,2,3
 444 275 444 275 394 320 c 0,4,5
 344 364 344 364 274 364 c 0,6,7
 199 364 199 364 145 320 c 0,8,9
 91 275 91 275 91 213 c 0,10,11
 91 150 91 150 145 105 c 0,12,13
 199 61 199 61 274 61 c 0,14,15
 344 61 344 61 394 105 c 0,0,1
604 364 m 1,16,-1
 604 363 l 1,17,-1
 475 363 l 1,18,-1
 475 424 l 1,19,-1
 526 424 l 1,20,-1
 526 485 l 2,21,22
 526 515 526 515 548 536 c 0,23,24
 570 558 570 558 600 558 c 2,25,-1
 768 558 l 1,26,-1
 768 496 l 1,27,-1
 624 496 l 2,28,29
 609 496 609 496 598 488 c 0,30,31
 588 479 588 479 588 466 c 2,32,-1
 588 425 l 1,33,-1
 601 425 l 2,34,35
 681 425 681 425 739 363 c 0,36,37
 795 300 795 300 795 213 c 0,38,39
 795 174 795 174 784 141 c 1,40,41
 796 116 796 116 816 96 c 0,42,43
 854 61 854 61 903 61 c 0,44,45
 958 61 958 61 998 105 c 0,46,47
 1036 150 1036 150 1036 213 c 0,48,49
 1036 275 1036 275 1005 320 c 0,50,51
 973 364 973 364 928 364 c 2,52,-1
 904 364 l 1,53,-1
 904 425 l 1,54,-1
 921 425 l 2,55,56
 994 425 994 425 1046 363 c 0,57,58
 1098 300 1098 300 1098 213 c 0,59,60
 1098 125 1098 125 1040 63 c 0,61,62
 984 0 984 0 903 0 c 0,63,64
 848 0 848 0 801 31 c 0,65,66
 771 53 771 53 753 83 c 1,67,68
 745 73 745 73 735 63 c 0,69,70
 674 0 674 0 589 0 c 0,71,72
 544 0 544 0 506 16 c 0,73,74
 469 33 469 33 444 61 c 1,75,76
 415 33 415 33 371 16 c 0,77,78
 328 0 328 0 274 0 c 0,79,80
 173 0 173 0 101 63 c 0,81,82
 30 125 30 125 30 213 c 0,83,84
 30 300 30 300 100 363 c 0,85,86
 169 425 169 425 268 425 c 0,87,88
 365 425 365 425 435 366 c 0,89,90
 504 308 504 308 504 225 c 0,91,92
 504 150 504 150 480 109 c 1,93,94
 496 86 496 86 525 74 c 0,95,96
 554 61 554 61 589 61 c 0,97,98
 649 61 649 61 693 105 c 0,99,100
 735 150 735 150 735 213 c 0,101,102
 735 275 735 275 696 320 c 0,103,104
 657 363 657 363 604 364 c 1,16,-1
EndSplineSet
EndChar

StartChar: Ra
Encoding: 3120 3120 154
Width: 590
GlyphClass: 2
Flags: W
AnchorPoint: "Anchor-0" 0 0 basechar 0
LayerCount: 2
Back
Fore
SplineSet
393 105 m 0,0,1
 444 150 444 150 444 213 c 0,2,3
 444 275 444 275 393 320 c 0,4,5
 340 364 340 364 268 364 c 0,6,7
 195 364 195 364 143 320 c 0,8,9
 91 275 91 275 91 213 c 0,10,11
 91 150 91 150 143 105 c 0,12,13
 195 61 195 61 268 61 c 0,14,15
 340 61 340 61 393 105 c 0,0,1
390 395 m 1,16,17
 414 381 414 381 435 363 c 0,18,19
 504 300 504 300 504 213 c 0,20,21
 504 120 504 120 436 60 c 0,22,23
 370 0 370 0 268 0 c 0,24,25
 169 0 169 0 100 60 c 0,26,27
 30 121 30 121 30 206 c 0,28,29
 30 296 30 296 100 361 c 0,30,31
 126 385 126 385 156 400 c 1,32,33
 140 416 140 416 140 438 c 2,34,-1
 140 498 l 1,35,-1
 201 498 l 1,36,-1
 201 444 l 2,37,38
 201 438 201 438 206 431 c 0,39,40
 211 426 211 426 219 425 c 2,41,-1
 330 425 l 1,42,-1
 330 498 l 2,43,44
 330 523 330 523 348 541 c 0,45,46
 365 559 365 559 390 559 c 2,47,-1
 573 559 l 1,48,-1
 573 498 l 1,49,-1
 415 498 l 2,50,51
 405 498 405 498 398 490 c 0,52,53
 390 484 390 484 390 474 c 2,54,-1
 390 395 l 1,16,17
EndSplineSet
EndChar

StartChar: RRa
Encoding: 3121 3121 155
Width: 642
GlyphClass: 2
Flags: W
AnchorPoint: "Anchor-0" 0 0 basechar 0
LayerCount: 2
Back
Fore
SplineSet
223 291 m 0,0,1
 236 304 236 304 236 321 c 0,2,3
 236 341 236 341 223 356 c 0,4,5
 208 370 208 370 188 370 c 256,6,7
 168 370 168 370 153 356 c 0,8,9
 139 341 139 341 139 321 c 0,10,11
 139 304 139 304 153 291 c 0,12,13
 168 279 168 279 188 279 c 256,14,15
 208 279 208 279 223 291 c 0,0,1
526 105 m 0,16,17
 564 150 564 150 564 213 c 0,18,19
 564 278 564 278 535 324 c 0,20,21
 508 370 508 370 468 370 c 0,22,23
 438 370 438 370 415 349 c 0,24,25
 394 328 394 328 394 298 c 0,26,27
 394 269 394 269 410 246 c 0,28,29
 428 223 428 223 455 213 c 1,30,-1
 455 134 l 1,31,-1
 358 134 l 1,32,33
 358 104 358 104 380 83 c 0,34,35
 404 61 404 61 436 61 c 0,36,37
 489 61 489 61 526 105 c 0,16,17
80 60 m 256,38,39
 30 120 30 120 30 219 c 0,40,41
 30 315 30 315 75 374 c 0,42,43
 120 431 120 431 194 431 c 0,44,45
 236 431 236 431 268 401 c 0,46,47
 298 370 298 370 298 328 c 0,48,49
 298 283 298 283 268 250 c 0,50,51
 236 219 236 219 194 219 c 0,52,53
 161 219 161 219 136 230 c 256,54,55
 111 241 111 241 103 261 c 1,56,57
 98 253 98 253 94 239 c 0,58,59
 91 225 91 225 91 206 c 0,60,61
 91 146 91 146 129 104 c 0,62,63
 166 61 166 61 219 61 c 0,64,65
 251 61 251 61 275 83 c 0,66,67
 298 104 298 104 298 134 c 1,68,-1
 188 134 l 1,69,-1
 188 194 l 1,70,-1
 383 194 l 1,71,72
 360 206 360 206 346 236 c 0,73,74
 334 266 334 266 334 304 c 0,75,76
 334 354 334 354 371 390 c 0,77,78
 409 425 409 425 461 425 c 0,79,80
 529 425 529 425 578 365 c 0,81,82
 625 304 625 304 625 219 c 0,83,84
 625 129 625 129 571 64 c 0,85,86
 518 0 518 0 443 0 c 0,87,88
 399 0 399 0 366 13 c 0,89,90
 334 26 334 26 321 49 c 1,91,92
 309 26 309 26 279 13 c 0,93,94
 250 0 250 0 213 0 c 0,95,96
 130 0 130 0 80 60 c 256,38,39
EndSplineSet
EndChar

StartChar: La
Encoding: 3122 3122 156
Width: 570
GlyphClass: 2
Flags: W
AnchorPoint: "Anchor-0" 0 0 basechar 0
LayerCount: 2
Back
Fore
SplineSet
223 291 m 0,0,1
 236 304 236 304 236 321 c 0,2,3
 236 341 236 341 223 356 c 0,4,5
 208 370 208 370 188 370 c 256,6,7
 168 370 168 370 154 356 c 0,8,9
 140 341 140 341 140 321 c 0,10,11
 140 304 140 304 154 291 c 0,12,13
 168 279 168 279 188 279 c 256,14,15
 208 279 208 279 223 291 c 0,0,1
108 69 m 0,16,17
 30 138 30 138 30 243 c 0,18,19
 30 329 30 329 75 380 c 256,20,21
 120 431 120 431 194 431 c 0,22,23
 236 431 236 431 268 401 c 0,24,25
 298 370 298 370 298 328 c 0,26,27
 298 283 298 283 268 250 c 0,28,29
 236 219 236 219 194 219 c 0,30,31
 160 219 160 219 134 233 c 0,32,33
 108 245 108 245 98 268 c 1,34,35
 94 264 94 264 93 253 c 0,36,37
 91 243 91 243 91 225 c 0,38,39
 91 151 91 151 151 104 c 0,40,41
 211 55 211 55 304 55 c 0,42,43
 381 55 381 55 436 103 c 256,44,45
 491 151 491 151 491 219 c 0,46,47
 491 279 491 279 458 321 c 0,48,49
 424 364 424 364 376 364 c 2,50,-1
 346 364 l 1,51,-1
 346 425 l 1,52,-1
 383 425 l 2,53,54
 453 425 453 425 503 365 c 0,55,56
 553 304 553 304 553 219 c 0,57,58
 553 129 553 129 480 64 c 0,59,60
 406 0 406 0 304 0 c 0,61,62
 185 0 185 0 108 69 c 0,16,17
EndSplineSet
EndChar

StartChar: LLa
Encoding: 3123 3123 157
Width: 597
GlyphClass: 2
Flags: W
AnchorPoint: "Anchor-0" 0 0 basechar 0
LayerCount: 2
Back
Fore
SplineSet
409 79 m 0,0,1
 444 98 444 98 444 128 c 256,2,3
 444 158 444 158 409 176 c 256,4,5
 374 194 374 194 316 194 c 0,6,7
 259 194 259 194 224 176 c 256,8,9
 189 158 189 158 189 128 c 256,10,11
 189 98 189 98 224 79 c 0,12,13
 259 61 259 61 316 61 c 0,14,15
 374 61 374 61 409 79 c 0,0,1
166 318 m 0,16,17
 176 324 176 324 176 334 c 0,18,19
 176 346 176 346 166 355 c 0,20,21
 155 364 155 364 140 364 c 256,22,23
 125 364 125 364 114 355 c 0,24,25
 104 346 104 346 104 334 c 0,26,27
 104 324 104 324 114 318 c 0,28,29
 125 310 125 310 140 310 c 256,30,31
 155 310 155 310 166 318 c 0,16,17
455 425 m 2,32,33
 500 425 500 425 533 394 c 0,34,35
 565 361 565 361 565 316 c 0,36,37
 565 273 565 273 539 240 c 0,38,39
 514 208 514 208 474 200 c 1,40,41
 488 188 488 188 496 169 c 256,42,43
 504 150 504 150 504 128 c 0,44,45
 504 75 504 75 449 38 c 0,46,47
 394 0 394 0 316 0 c 256,48,49
 238 0 238 0 183 38 c 0,50,51
 128 75 128 75 128 128 c 0,52,53
 128 149 128 149 135 168 c 0,54,55
 143 186 143 186 158 200 c 1,56,57
 104 206 104 206 66 240 c 0,58,59
 30 275 30 275 30 321 c 0,60,61
 30 364 30 364 64 395 c 0,62,63
 98 425 98 425 146 425 c 0,64,65
 184 425 184 425 211 400 c 256,66,67
 238 375 238 375 238 340 c 0,68,69
 238 310 238 310 214 289 c 0,70,71
 191 268 191 268 158 268 c 0,72,73
 133 268 133 268 115 274 c 1,74,75
 124 256 124 256 146 246 c 0,76,77
 170 236 170 236 201 236 c 1,78,79
 258 261 258 261 316 261 c 0,80,81
 350 261 350 261 425 243 c 1,82,83
 458 243 458 243 481 264 c 0,84,85
 504 286 504 286 504 316 c 0,86,87
 504 336 504 336 490 350 c 0,88,89
 475 364 475 364 455 364 c 2,90,-1
 288 364 l 1,91,-1
 288 425 l 1,92,-1
 339 425 l 1,93,-1
 339 486 l 2,94,95
 339 516 339 516 360 538 c 0,96,97
 383 559 383 559 413 559 c 2,98,-1
 580 559 l 1,99,-1
 580 498 l 1,100,-1
 436 498 l 2,101,102
 421 498 421 498 410 489 c 0,103,104
 400 480 400 480 400 468 c 2,105,-1
 400 425 l 1,106,-1
 455 425 l 2,32,33
EndSplineSet
EndChar

StartChar: uni0C34
Encoding: 3124 3124 158
Width: 629
GlyphClass: 2
Flags: W
LayerCount: 2
Back
Fore
SplineSet
454 279 m 256,0,1
 474 279 474 279 489 291 c 0,2,3
 503 304 503 304 503 321 c 0,4,5
 503 341 503 341 489 356 c 0,6,7
 474 370 474 370 454 370 c 256,8,9
 434 370 434 370 419 356 c 0,10,11
 406 341 406 341 406 321 c 0,12,13
 406 304 406 304 419 291 c 0,14,15
 434 279 434 279 454 279 c 256,0,1
223 291 m 0,16,17
 236 304 236 304 236 321 c 0,18,19
 236 341 236 341 223 356 c 0,20,21
 208 370 208 370 188 370 c 256,22,23
 168 370 168 370 153 356 c 0,24,25
 139 341 139 341 139 321 c 0,26,27
 139 304 139 304 153 291 c 0,28,29
 168 279 168 279 188 279 c 256,30,31
 208 279 208 279 223 291 c 0,16,17
322 47 m 0,32,33
 321 48 321 48 320 47 c 0,34,35
 308 25 308 25 279 13 c 0,36,37
 250 0 250 0 213 0 c 0,38,39
 130 0 130 0 80 60 c 256,40,41
 30 120 30 120 30 219 c 0,42,43
 30 315 30 315 75 374 c 0,44,45
 120 431 120 431 194 431 c 0,46,47
 236 431 236 431 268 401 c 0,48,49
 298 370 298 370 298 328 c 0,50,51
 298 283 298 283 268 250 c 0,52,53
 236 219 236 219 194 219 c 0,54,55
 161 219 161 219 136 230 c 256,56,57
 111 241 111 241 103 261 c 1,58,59
 98 253 98 253 94 239 c 0,60,61
 91 225 91 225 91 206 c 0,62,63
 91 146 91 146 129 104 c 0,64,65
 166 61 166 61 219 61 c 0,66,67
 251 61 251 61 275 83 c 0,68,69
 298 104 298 104 298 134 c 2,70,-1
 298 194 l 1,71,-1
 344 194 l 1,72,-1
 344 134 l 2,73,74
 344 104 344 104 367 83 c 0,75,76
 391 61 391 61 423 61 c 0,77,78
 476 61 476 61 513 104 c 0,79,80
 551 146 551 146 551 206 c 0,81,82
 551 225 551 225 548 239 c 0,83,84
 544 253 544 253 539 261 c 1,85,86
 531 241 531 241 506 230 c 256,87,88
 481 219 481 219 448 219 c 0,89,90
 406 219 406 219 374 250 c 0,91,92
 344 283 344 283 344 328 c 0,93,94
 344 370 344 370 374 401 c 0,95,96
 406 431 406 431 448 431 c 0,97,98
 522 431 522 431 567 374 c 0,99,100
 612 315 612 315 612 219 c 0,101,102
 612 120 612 120 562 60 c 256,103,104
 512 0 512 0 429 0 c 0,105,106
 392 0 392 0 363 13 c 0,107,108
 334 25 334 25 322 47 c 0,32,33
EndSplineSet
EndChar

StartChar: Va
Encoding: 3125 3125 159
Width: 563
GlyphClass: 2
Flags: W
AnchorPoint: "Anchor-0" 0 0 basechar 0
LayerCount: 2
Back
Fore
SplineSet
211 76 m 0,0,1
 231 98 231 98 231 128 c 0,2,3
 231 155 231 155 211 174 c 0,4,5
 191 194 191 194 164 194 c 0,6,7
 134 194 134 194 113 174 c 0,8,9
 91 155 91 155 91 128 c 0,10,11
 91 98 91 98 113 76 c 0,12,13
 134 55 134 55 164 55 c 0,14,15
 191 55 191 55 211 76 c 0,0,1
365 425 m 2,16,17
 440 425 440 425 494 363 c 0,18,19
 546 300 546 300 546 213 c 0,20,21
 546 125 546 125 494 63 c 0,22,23
 440 0 440 0 365 0 c 0,24,25
 335 0 335 0 308 11 c 0,26,27
 281 23 281 23 261 43 c 1,28,29
 241 23 241 23 216 11 c 0,30,31
 191 0 191 0 164 0 c 0,32,33
 109 0 109 0 69 38 c 0,34,35
 30 75 30 75 30 128 c 0,36,37
 30 178 30 178 69 214 c 0,38,39
 109 249 109 249 164 249 c 0,40,41
 216 249 216 249 254 215 c 0,42,43
 291 181 291 181 291 134 c 0,44,45
 291 111 291 111 285 98 c 1,46,47
 295 81 295 81 316 71 c 0,48,49
 338 61 338 61 365 61 c 0,50,51
 413 61 413 61 446 105 c 0,52,53
 480 150 480 150 480 213 c 0,54,55
 480 275 480 275 445 320 c 0,56,57
 409 364 409 364 359 364 c 2,58,-1
 55 364 l 1,59,-1
 55 425 l 1,60,-1
 165 425 l 1,61,-1
 165 486 l 2,62,63
 165 516 165 516 186 538 c 0,64,65
 209 559 209 559 239 559 c 2,66,-1
 406 559 l 1,67,-1
 406 498 l 1,68,-1
 263 498 l 2,69,70
 248 498 248 498 236 489 c 0,71,72
 226 480 226 480 226 468 c 2,73,-1
 226 425 l 1,74,-1
 365 425 l 2,16,17
EndSplineSet
EndChar

StartChar: Sha
Encoding: 3126 3126 160
Width: 546
GlyphClass: 2
Flags: W
AnchorPoint: "Anchor-0" 0 0 basechar 0
LayerCount: 2
Back
Fore
SplineSet
433 84 m 0,0,1
 461 108 461 108 461 140 c 0,2,3
 461 173 461 173 431 196 c 256,4,5
 401 219 401 219 359 219 c 0,6,7
 319 219 319 219 290 196 c 256,8,9
 261 173 261 173 261 140 c 0,10,11
 261 108 261 108 290 84 c 0,12,13
 320 61 320 61 361 61 c 0,14,15
 403 61 403 61 433 84 c 0,0,1
413 425 m 2,16,17
 455 425 455 425 486 396 c 0,18,19
 516 368 516 368 516 328 c 0,20,21
 516 303 516 303 503 281 c 0,22,23
 490 260 490 260 468 249 c 1,24,25
 496 233 496 233 513 204 c 0,26,27
 529 174 529 174 529 140 c 0,28,29
 529 83 529 83 481 41 c 0,30,31
 433 0 433 0 365 0 c 0,32,33
 290 0 290 0 245 39 c 0,34,35
 200 76 200 76 200 140 c 0,36,37
 200 170 200 170 218 198 c 0,38,39
 236 225 236 225 268 243 c 1,40,-1
 238 243 l 2,41,42
 168 243 168 243 130 221 c 0,43,44
 91 201 91 201 91 164 c 0,45,46
 91 141 91 141 98 124 c 0,47,48
 104 108 104 108 115 98 c 1,49,-1
 49 98 l 1,50,51
 40 109 40 109 35 125 c 0,52,53
 30 143 30 143 30 164 c 0,54,55
 30 228 30 228 88 265 c 0,56,57
 146 304 146 304 243 304 c 0,58,59
 353 304 353 304 395 285 c 1,60,61
 419 286 419 286 434 299 c 0,62,63
 450 311 450 311 450 328 c 0,64,65
 450 343 450 343 439 354 c 0,66,67
 428 364 428 364 413 364 c 2,68,-1
 215 364 l 1,69,-1
 215 425 l 1,70,-1
 266 425 l 1,71,-1
 266 486 l 2,72,73
 266 516 266 516 288 538 c 0,74,75
 310 559 310 559 340 559 c 2,76,-1
 508 559 l 1,77,-1
 508 498 l 1,78,-1
 364 498 l 2,79,80
 349 498 349 498 338 489 c 0,81,82
 328 480 328 480 328 468 c 2,83,-1
 328 425 l 1,84,-1
 413 425 l 2,16,17
EndSplineSet
EndChar

StartChar: SSa
Encoding: 3127 3127 161
Width: 557
GlyphClass: 2
Flags: W
AnchorPoint: "Anchor-0" 0 0 basechar 0
LayerCount: 2
Back
Fore
SplineSet
211 75 m 0,0,1
 231 95 231 95 231 124 c 256,2,3
 231 153 231 153 211 174 c 0,4,5
 190 194 190 194 161 194 c 0,6,7
 133 194 133 194 111 174 c 0,8,9
 91 153 91 153 91 124 c 256,10,11
 91 95 91 95 111 75 c 0,12,13
 133 55 133 55 161 55 c 0,14,15
 190 55 190 55 211 75 c 0,0,1
31 364 m 1,16,-1
 31 425 l 1,17,-1
 104 425 l 1,18,-1
 104 498 l 2,19,20
 104 523 104 523 121 541 c 0,21,22
 140 559 140 559 165 559 c 2,23,-1
 333 559 l 1,24,-1
 333 498 l 1,25,-1
 189 498 l 2,26,27
 179 498 179 498 173 490 c 0,28,29
 165 484 165 484 165 474 c 2,30,-1
 165 364 l 1,31,-1
 31 364 l 1,16,-1
69 36 m 0,32,33
 30 73 30 73 30 124 c 256,34,35
 30 175 30 175 69 213 c 0,36,37
 108 249 108 249 161 249 c 256,38,39
 214 249 214 249 250 213 c 0,40,41
 288 175 288 175 288 124 c 0,42,43
 288 103 288 103 285 98 c 1,44,45
 295 81 295 81 316 71 c 0,46,47
 338 61 338 61 365 61 c 0,48,49
 413 61 413 61 446 111 c 0,50,51
 480 161 480 161 480 233 c 0,52,53
 480 286 480 286 443 325 c 0,54,55
 405 364 405 364 351 364 c 2,56,-1
 285 364 l 1,57,-1
 285 425 l 1,58,-1
 353 425 l 2,59,60
 430 425 430 425 485 369 c 0,61,62
 540 311 540 311 540 231 c 0,63,64
 540 179 540 179 529 138 c 0,65,66
 518 98 518 98 498 73 c 0,67,68
 493 66 493 66 489 54 c 0,69,70
 486 41 486 41 486 24 c 0,71,72
 486 -1 486 -1 503 -19 c 0,73,74
 518 -36 518 -36 540 -36 c 1,75,-1
 540 -104 l 1,76,77
 496 -104 496 -104 461 -72 c 0,78,79
 428 -41 428 -41 419 6 c 1,80,81
 401 0 401 0 364 0 c 0,82,83
 334 0 334 0 308 11 c 0,84,85
 281 23 281 23 261 43 c 1,86,87
 241 23 241 23 215 11 c 0,88,89
 190 0 190 0 161 0 c 0,90,91
 108 0 108 0 69 36 c 0,32,33
EndSplineSet
EndChar

StartChar: Sa
Encoding: 3128 3128 162
Width: 563
GlyphClass: 2
Flags: W
AnchorPoint: "Anchor-0" 0 0 basechar 0
LayerCount: 2
Back
Fore
SplineSet
30 364 m 1,0,-1
 30 425 l 1,1,-1
 103 425 l 1,2,-1
 103 498 l 2,3,4
 103 523 103 523 120 541 c 0,5,6
 139 559 139 559 164 559 c 2,7,-1
 331 559 l 1,8,-1
 331 498 l 1,9,-1
 188 498 l 2,10,11
 178 498 178 498 171 490 c 0,12,13
 164 484 164 484 164 474 c 2,14,-1
 164 364 l 1,15,-1
 30 364 l 1,0,-1
153 0 m 1,16,17
 101 0 101 0 66 39 c 0,18,19
 30 79 30 79 30 134 c 0,20,21
 30 184 30 184 69 220 c 0,22,23
 109 255 109 255 164 255 c 0,24,25
 225 255 225 255 261 225 c 0,26,27
 298 195 298 195 298 146 c 0,28,29
 298 111 298 111 323 86 c 256,30,31
 348 61 348 61 383 61 c 0,32,33
 425 61 425 61 456 104 c 0,34,35
 486 146 486 146 486 206 c 0,36,37
 486 271 486 271 451 318 c 0,38,39
 415 364 415 364 365 364 c 2,40,-1
 285 364 l 1,41,-1
 285 425 l 1,42,-1
 370 425 l 2,43,44
 443 425 443 425 495 361 c 0,45,46
 546 296 546 296 546 206 c 0,47,48
 546 121 546 121 496 60 c 0,49,50
 446 0 446 0 376 0 c 0,51,52
 319 0 319 0 279 38 c 0,53,54
 238 75 238 75 238 128 c 0,55,56
 238 155 238 155 218 174 c 0,57,58
 198 194 198 194 170 194 c 0,59,60
 138 194 138 194 114 176 c 0,61,62
 91 159 91 159 91 134 c 0,63,64
 91 104 91 104 109 83 c 0,65,66
 128 61 128 61 153 61 c 1,67,-1
 153 0 l 1,16,17
EndSplineSet
EndChar

StartChar: Ha
Encoding: 3129 3129 163
Width: 825
GlyphClass: 2
Flags: W
AnchorPoint: "Anchor-0" 0 0 basechar 0
LayerCount: 2
Back
Fore
SplineSet
211 76 m 0,0,1
 231 98 231 98 231 128 c 0,2,3
 231 155 231 155 211 174 c 0,4,5
 191 194 191 194 164 194 c 0,6,7
 134 194 134 194 113 174 c 0,8,9
 91 155 91 155 91 128 c 0,10,11
 91 98 91 98 113 76 c 0,12,13
 134 55 134 55 164 55 c 0,14,15
 191 55 191 55 211 76 c 0,0,1
728 160 m 0,16,17
 741 174 741 174 741 194 c 256,18,19
 741 214 741 214 728 229 c 0,20,21
 713 243 713 243 693 243 c 256,22,23
 673 243 673 243 658 229 c 0,24,25
 644 214 644 214 644 194 c 256,26,27
 644 174 644 174 658 160 c 0,28,29
 673 146 673 146 693 146 c 256,30,31
 713 146 713 146 728 160 c 0,16,17
31 364 m 1,32,-1
 31 425 l 1,33,-1
 104 425 l 1,34,-1
 104 498 l 2,35,36
 104 523 104 523 121 541 c 0,37,38
 140 559 140 559 165 559 c 2,39,-1
 333 559 l 1,40,-1
 333 498 l 1,41,-1
 189 498 l 2,42,43
 179 498 179 498 173 490 c 0,44,45
 165 484 165 484 165 474 c 2,46,-1
 165 364 l 1,47,-1
 31 364 l 1,32,-1
69 38 m 0,48,49
 30 75 30 75 30 128 c 0,50,51
 30 178 30 178 69 214 c 0,52,53
 109 249 109 249 164 249 c 0,54,55
 216 249 216 249 254 215 c 0,56,57
 291 181 291 181 291 134 c 0,58,59
 291 111 291 111 285 98 c 1,60,61
 295 81 295 81 316 71 c 0,62,63
 338 61 338 61 365 61 c 0,64,65
 413 61 413 61 446 105 c 0,66,67
 480 150 480 150 480 213 c 0,68,69
 480 275 480 275 445 320 c 0,70,71
 409 364 409 364 359 364 c 2,72,-1
 285 364 l 1,73,-1
 285 425 l 1,74,-1
 656 425 l 2,75,76
 719 425 719 425 764 366 c 0,77,78
 808 308 808 308 808 225 c 0,79,80
 808 168 808 168 776 126 c 0,81,82
 744 85 744 85 699 85 c 0,83,84
 650 85 650 85 616 119 c 0,85,86
 583 153 583 153 583 200 c 0,87,88
 583 243 583 243 613 274 c 0,89,90
 644 304 644 304 686 304 c 0,91,92
 708 304 708 304 729 291 c 1,93,94
 724 323 724 323 699 344 c 0,95,96
 675 364 675 364 644 364 c 2,97,-1
 486 364 l 1,98,99
 515 340 515 340 530 296 c 0,100,101
 546 254 546 254 546 200 c 0,102,103
 546 118 546 118 496 59 c 256,104,105
 446 0 446 0 376 0 c 0,106,107
 339 0 339 0 309 11 c 0,108,109
 279 23 279 23 261 43 c 1,110,111
 241 23 241 23 216 11 c 0,112,113
 191 0 191 0 164 0 c 0,114,115
 109 0 109 0 69 38 c 0,48,49
EndSplineSet
EndChar

StartChar: Avagraha
Encoding: 3133 3133 164
Width: 710
GlyphClass: 2
Flags: W
LayerCount: 2
Back
Fore
SplineSet
231 425 m 1,0,1
 231 452 231 452 211 472 c 0,2,3
 193 492 193 492 165 492 c 256,4,5
 137 492 137 492 120 472 c 0,6,7
 101 452 101 452 101 425 c 0,8,9
 101 399 101 399 120 380 c 0,10,11
 139 360 139 360 165 360 c 256,12,13
 191 360 191 360 211 380 c 0,14,15
 231 399 231 399 231 425 c 1,16,-1
 231 425 l 1,0,1
693 -12 m 2,17,18
 692 -13 692 -13 690 -13 c 2,19,-1
 184 -13 l 2,20,21
 120 -13 120 -13 76 31 c 0,22,23
 31 72 31 72 30 134 c 0,24,25
 30 191 30 191 74 227 c 0,26,27
 117 266 117 266 177 266 c 0,28,29
 245 266 245 266 293 293 c 0,30,31
 340 324 340 324 340 363 c 0,32,33
 340 394 340 394 323 419 c 0,34,35
 306 447 306 447 276 467 c 1,36,-1
 284 428 l 1,37,38
 284 378 284 378 247 344 c 1,39,40
 215 308 215 308 160 308 c 0,41,42
 112 308 112 308 77 339 c 0,43,44
 42 366 42 366 42 407 c 0,45,46
 42 464 42 464 86 502 c 0,47,48
 130 541 130 541 195 541 c 0,49,50
 276 541 276 541 339 488 c 1,51,52
 395 435 395 435 395 356 c 0,53,54
 395 293 395 293 330 249 c 0,55,56
 267 209 267 209 172 205 c 0,57,58
 137 205 137 205 117 185 c 0,59,60
 95 165 95 165 94 133 c 0,61,62
 94 110 94 110 122 94 c 0,63,64
 149 78 149 78 192 75 c 2,65,-1
 693 75 l 1,66,-1
 693 -12 l 2,17,18
EndSplineSet
EndChar

StartChar: AAMatra
Encoding: 3134 3134 165
Width: 604
GlyphClass: 4
Flags: W
LayerCount: 2
Back
Fore
SplineSet
347 194 m 1,0,1
 347 239 347 239 377 271 c 0,2,3
 407 304 407 304 450 304 c 0,4,5
 477 304 477 304 498 291 c 1,6,7
 498 321 498 321 472 343 c 0,8,9
 445 364 445 364 407 364 c 2,10,-1
 -248 364 l 1,11,-1
 -248 425 l 1,12,-1
 407 425 l 2,13,14
 477 425 477 425 527 366 c 0,15,16
 577 308 577 308 577 225 c 0,17,18
 577 168 577 168 542 126 c 0,19,20
 506 85 506 85 456 85 c 0,21,22
 411 85 411 85 378 116 c 0,23,24
 347 149 347 149 347 194 c 1,25,-1
 347 194 l 1,0,1
456 146 m 1,26,27
 476 146 476 146 491 160 c 0,28,29
 505 174 505 174 505 194 c 256,30,31
 505 214 505 214 491 229 c 0,32,33
 476 243 476 243 456 243 c 256,34,35
 436 243 436 243 421 229 c 0,36,37
 407 214 407 214 407 194 c 256,38,39
 407 174 407 174 421 160 c 0,40,41
 436 146 436 146 456 146 c 1,42,-1
 456 146 l 1,26,27
EndSplineSet
EndChar

StartChar: Imatra
Encoding: 3135 3135 166
Width: 0
GlyphClass: 4
Flags: W
LayerCount: 2
Back
Fore
SplineSet
0 364 m 1,0,-1
 -60 364 l 1,1,-1
 -60 425 l 1,2,-1
 0 425 l 2,3,4
 40 425 40 425 69 446 c 0,5,6
 98 468 98 468 98 498 c 0,7,8
 98 514 98 514 92 526 c 0,9,10
 84 540 84 540 73 546 c 1,11,12
 73 511 73 511 43 486 c 256,13,14
 13 461 13 461 -30 461 c 0,15,16
 -67 461 -67 461 -95 484 c 0,17,18
 -121 508 -121 508 -121 540 c 0,19,20
 -121 578 -121 578 -86 605 c 0,21,22
 -50 631 -50 631 0 631 c 0,23,24
 65 631 65 631 112 593 c 0,25,26
 158 553 158 553 158 498 c 256,27,28
 158 443 158 443 112 403 c 0,29,30
 65 364 65 364 0 364 c 1,31,-1
 0 364 l 1,0,-1
-23 510 m 1,32,33
 -6 510 -6 510 5 519 c 0,34,35
 18 528 18 528 18 540 c 0,36,37
 18 553 18 553 5 563 c 0,38,39
 -6 571 -6 571 -23 571 c 0,40,41
 -38 571 -38 571 -50 563 c 0,42,43
 -60 553 -60 553 -60 540 c 0,44,45
 -60 528 -60 528 -50 519 c 0,46,47
 -38 510 -38 510 -23 510 c 1,48,-1
 -23 510 l 1,32,33
EndSplineSet
EndChar

StartChar: IIMatra
Encoding: 3136 3136 167
Width: 0
GlyphClass: 4
Flags: W
LayerCount: 2
Back
Fore
SplineSet
1 364 m 1,0,-1
 -66 364 l 1,1,-1
 -66 425 l 1,2,-1
 1 425 l 2,3,4
 38 425 38 425 66 446 c 0,5,6
 92 468 92 468 92 498 c 0,7,8
 92 514 92 514 86 526 c 0,9,10
 78 540 78 540 67 546 c 1,11,12
 67 511 67 511 38 486 c 0,13,14
 11 461 11 461 -29 461 c 256,15,16
 -69 461 -69 461 -98 484 c 0,17,18
 -127 508 -127 508 -127 540 c 0,19,20
 -127 571 -127 571 -107 595 c 0,21,22
 -86 620 -86 620 -54 625 c 1,23,24
 -61 643 -61 643 -61 656 c 0,25,26
 -61 694 -61 694 -32 720 c 256,27,28
 -3 746 -3 746 37 746 c 0,29,30
 79 746 79 746 111 720 c 0,31,32
 141 694 141 694 141 656 c 1,33,-1
 79 656 l 1,34,35
 79 669 79 669 67 678 c 0,36,37
 54 686 54 686 37 686 c 0,38,39
 22 686 22 686 11 678 c 0,40,41
 1 669 1 669 1 656 c 256,42,43
 1 643 1 643 7 631 c 1,44,45
 67 631 67 631 109 593 c 0,46,47
 152 553 152 553 152 498 c 256,48,49
 152 443 152 443 108 403 c 0,50,51
 63 364 63 364 1 364 c 1,52,-1
 1 364 l 1,0,-1
-29 510 m 1,53,54
 -12 510 -12 510 -1 519 c 0,55,56
 12 528 12 528 12 540 c 0,57,58
 12 553 12 553 -1 563 c 0,59,60
 -12 571 -12 571 -29 571 c 0,61,62
 -44 571 -44 571 -56 563 c 0,63,64
 -66 553 -66 553 -66 540 c 0,65,66
 -66 528 -66 528 -56 519 c 0,67,68
 -44 510 -44 510 -29 510 c 1,69,-1
 -29 510 l 1,53,54
EndSplineSet
EndChar

StartChar: UMatra
Encoding: 3137 3137 168
Width: 300
GlyphClass: 4
Flags: W
LayerCount: 2
Back
Fore
SplineSet
75 0 m 1,0,1
 20 0 20 0 -26 31 c 0,2,3
 -71 64 -71 64 -90 115 c 1,4,-1
 -90 184 l 1,5,-1
 -59 186 l 1,6,7
 -49 133 -49 133 -11 96 c 0,8,9
 26 61 26 61 75 61 c 0,10,11
 130 61 130 61 170 105 c 0,12,13
 209 150 209 150 209 213 c 0,14,15
 209 275 209 275 178 320 c 0,16,17
 145 364 145 364 100 364 c 2,18,-1
 76 364 l 1,19,-1
 76 425 l 1,20,-1
 94 425 l 2,21,22
 166 425 166 425 219 363 c 0,23,24
 270 300 270 300 270 213 c 0,25,26
 270 125 270 125 213 63 c 0,27,28
 156 0 156 0 75 0 c 1,29,-1
 75 0 l 1,0,1
EndSplineSet
EndChar

StartChar: UUMatra
Encoding: 3138 3138 169
Width: 575
GlyphClass: 4
Flags: W
LayerCount: 2
Back
Fore
SplineSet
75 0 m 1,0,1
 13 0 13 0 -35 34 c 0,2,3
 -82 68 -82 68 -96 121 c 1,4,-1
 -90 184 l 1,5,-1
 -58 186 l 1,6,7
 -51 133 -51 133 -12 96 c 0,8,9
 25 61 25 61 75 61 c 0,10,11
 130 61 130 61 170 104 c 0,12,13
 209 146 209 146 209 206 c 0,14,15
 209 271 209 271 179 318 c 0,16,17
 148 364 148 364 105 364 c 2,18,-1
 63 364 l 1,19,-1
 63 425 l 1,20,-1
 379 425 l 2,21,22
 449 425 449 425 499 366 c 0,23,24
 549 308 549 308 549 225 c 0,25,26
 549 168 549 168 518 126 c 0,27,28
 485 85 485 85 440 85 c 0,29,30
 389 85 389 85 354 119 c 0,31,32
 318 153 318 153 318 200 c 0,33,34
 318 243 318 243 348 274 c 0,35,36
 379 304 379 304 422 304 c 0,37,38
 452 304 452 304 470 291 c 1,39,40
 468 321 468 321 442 343 c 0,41,42
 415 364 415 364 379 364 c 2,43,-1
 215 364 l 1,44,45
 242 346 242 346 255 303 c 0,46,47
 270 260 270 260 270 200 c 0,48,49
 270 118 270 118 213 59 c 0,50,51
 157 0 157 0 75 0 c 1,52,-1
 75 0 l 1,0,1
428 146 m 1,53,54
 448 146 448 146 463 160 c 0,55,56
 477 174 477 174 477 194 c 256,57,58
 477 214 477 214 463 229 c 0,59,60
 448 243 448 243 428 243 c 256,61,62
 408 243 408 243 393 229 c 0,63,64
 379 214 379 214 379 194 c 256,65,66
 379 174 379 174 393 160 c 0,67,68
 408 146 408 146 428 146 c 1,69,-1
 428 146 l 1,53,54
EndSplineSet
EndChar

StartChar: RMatra
Encoding: 3139 3139 170
Width: 198
GlyphClass: 4
Flags: W
LayerCount: 2
Back
Fore
SplineSet
0 -195 m 256,0,1
 7 -184 7 -184 4 -173 c 0,2,3
 1 -159 1 -159 -10 -151 c 0,4,5
 -21 -145 -21 -145 -33 -149 c 0,6,7
 -46 -152 -46 -152 -53 -165 c 0,8,9
 -59 -177 -59 -177 -55 -190 c 0,10,11
 -53 -202 -53 -202 -43 -207 c 0,12,13
 -32 -213 -32 -213 -19 -209 c 0,14,15
 -7 -206 -7 -206 0 -195 c 256,0,1
5 149 m 1,16,17
 52 156 52 156 96 114 c 0,18,19
 149 65 149 65 170 -17 c 0,20,21
 191 -109 191 -109 160 -175 c 0,22,23
 129 -244 129 -244 54 -265 c 0,24,25
 2 -281 2 -281 -44 -263 c 0,26,27
 -89 -244 -89 -244 -98 -203 c 0,28,29
 -106 -170 -106 -170 -91 -142 c 0,30,31
 -75 -112 -75 -112 -46 -104 c 0,32,33
 -16 -95 -16 -95 9 -109 c 0,34,35
 36 -121 36 -121 43 -149 c 0,36,37
 49 -174 49 -174 44 -195 c 0,38,39
 41 -216 41 -216 29 -225 c 1,40,-1
 54 -218 l 2,41,42
 98 -206 98 -206 119 -151 c 0,43,44
 140 -99 140 -99 124 -35 c 0,45,46
 107 30 107 30 66 70 c 0,47,48
 36 97 36 97 5 98 c 1,49,-1
 5 149 l 1,16,17
EndSplineSet
EndChar

StartChar: RRMatra
Encoding: 3140 3140 171
Width: 396
GlyphClass: 4
Flags: W
LayerCount: 2
Back
Fore
SplineSet
319 -17 m 0,0,1
 326 -8 326 -8 326 3 c 0,2,3
 326 16 326 16 319 24 c 0,4,5
 310 32 310 32 298 32 c 0,6,7
 284 32 284 32 273 24 c 0,8,9
 264 16 264 16 264 3 c 0,10,11
 264 -8 264 -8 273 -17 c 0,12,13
 284 -25 284 -25 298 -25 c 0,14,15
 310 -25 310 -25 319 -17 c 0,0,1
9 -196 m 256,16,17
 17 -185 17 -185 14 -174 c 0,18,19
 10 -160 10 -160 -2 -152 c 0,20,21
 -15 -146 -15 -146 -28 -150 c 0,22,23
 -42 -153 -42 -153 -50 -166 c 0,24,25
 -57 -178 -57 -178 -53 -191 c 0,26,27
 -50 -203 -50 -203 -39 -208 c 0,28,29
 -26 -214 -26 -214 -12 -210 c 0,30,31
 1 -207 1 -207 9 -196 c 256,16,17
258 148 m 2,32,33
 307 148 307 148 343 111 c 0,34,35
 379 73 379 73 379 21 c 0,36,37
 379 -20 379 -20 355 -49 c 0,38,39
 331 -77 331 -77 298 -77 c 256,40,41
 265 -77 265 -77 241 -52 c 0,42,43
 217 -26 217 -26 217 10 c 0,44,45
 217 39 217 39 239 59 c 0,46,47
 262 78 262 78 292 78 c 2,48,-1
 310 78 l 1,49,50
 303 89 303 89 287 96 c 0,51,52
 272 101 272 101 252 101 c 2,53,-1
 126 101 l 1,54,55
 173 55 173 55 193 -18 c 0,56,57
 217 -110 217 -110 183 -176 c 0,58,59
 150 -245 150 -245 68 -266 c 0,60,61
 11 -282 11 -282 -39 -264 c 0,62,63
 -87 -245 -87 -245 -97 -204 c 0,64,65
 -106 -171 -106 -171 -90 -143 c 0,66,67
 -73 -113 -73 -113 -40 -105 c 0,68,69
 -8 -96 -8 -96 19 -110 c 0,70,71
 48 -122 48 -122 56 -150 c 0,72,73
 62 -175 62 -175 57 -196 c 0,74,75
 54 -217 54 -217 40 -226 c 1,76,-1
 68 -219 l 2,77,78
 115 -207 115 -207 138 -152 c 0,79,80
 161 -100 161 -100 144 -36 c 0,81,82
 126 29 126 29 81 69 c 0,83,84
 48 96 48 96 15 97 c 1,85,-1
 15 148 l 1,86,-1
 258 148 l 2,32,33
EndSplineSet
EndChar

StartChar: uni0C46
Encoding: 3142 3142 172
Width: 0
GlyphClass: 4
Flags: W
LayerCount: 2
Back
Fore
SplineSet
226 461 m 1,0,1
 226 421 226 421 201 393 c 0,2,3
 176 364 176 364 141 364 c 2,4,-1
 -140 364 l 1,5,-1
 -140 425 l 1,6,-1
 129 425 l 2,7,8
 144 425 144 425 155 435 c 0,9,10
 165 446 165 446 165 461 c 256,11,12
 165 476 165 476 155 488 c 0,13,14
 144 498 144 498 129 498 c 2,15,-1
 -250 498 l 1,16,-1
 -250 559 l 1,17,-1
 141 559 l 2,18,19
 176 559 176 559 201 530 c 256,20,21
 226 501 226 501 226 461 c 1,22,-1
 226 461 l 1,0,1
EndSplineSet
EndChar

StartChar: EEMatra
Encoding: 3143 3143 173
Width: 0
GlyphClass: 4
Flags: W
LayerCount: 2
Back
Fore
SplineSet
226 461 m 1,0,1
 226 421 226 421 201 393 c 0,2,3
 176 364 176 364 141 364 c 2,4,-1
 -140 364 l 1,5,-1
 -140 425 l 1,6,-1
 129 425 l 2,7,8
 144 425 144 425 155 435 c 0,9,10
 165 446 165 446 165 461 c 256,11,12
 165 476 165 476 155 488 c 0,13,14
 144 498 144 498 129 498 c 2,15,-1
 -250 498 l 1,16,-1
 -250 559 l 1,17,-1
 80 559 l 1,18,-1
 80 608 l 2,19,20
 80 633 80 633 98 650 c 0,21,22
 116 668 116 668 141 668 c 2,23,-1
 214 668 l 1,24,-1
 214 608 l 1,25,-1
 165 608 l 2,26,27
 155 608 155 608 149 600 c 0,28,29
 141 593 141 593 141 583 c 2,30,-1
 141 559 l 1,31,32
 176 559 176 559 201 530 c 256,33,34
 226 501 226 501 226 461 c 1,35,-1
 226 461 l 1,0,1
EndSplineSet
EndChar

StartChar: AIMatra
Encoding: 3144 3144 174
Width: 540
GlyphClass: 4
Flags: W
LayerCount: 2
Back
Fore
SplineSet
135 364 m 1,0,-1
 135 425 l 1,1,-1
 366 425 l 2,2,3
 381 425 381 425 392 435 c 0,4,5
 402 446 402 446 402 461 c 256,6,7
 402 476 402 476 392 488 c 0,8,9
 381 498 381 498 366 498 c 2,10,-1
 62 498 l 1,11,-1
 62 559 l 1,12,-1
 378 559 l 2,13,14
 413 559 413 559 438 530 c 256,15,16
 463 501 463 501 463 461 c 256,17,18
 463 421 463 421 438 393 c 0,19,20
 413 364 413 364 378 364 c 2,21,-1
 135 364 l 1,22,-1
 135 364 l 1,0,-1
481 -255 m 1,23,-1
 166 -255 l 2,24,25
 123 -255 123 -255 92 -226 c 0,26,27
 62 -197 62 -197 62 -157 c 256,28,29
 62 -117 62 -117 91 -90 c 0,30,31
 120 -61 120 -61 160 -61 c 0,32,33
 202 -61 202 -61 232 -87 c 0,34,35
 262 -114 262 -114 262 -151 c 0,36,37
 262 -172 262 -172 260 -187 c 0,38,39
 256 -201 256 -201 251 -206 c 1,40,-1
 481 -206 l 1,41,-1
 481 -255 l 1,42,-1
 481 -255 l 1,23,-1
171 -206 m 1,43,44
 188 -206 188 -206 201 -194 c 0,45,46
 213 -181 213 -181 213 -164 c 0,47,48
 213 -141 213 -141 200 -125 c 0,49,50
 186 -109 186 -109 166 -109 c 256,51,52
 146 -109 146 -109 131 -125 c 0,53,54
 117 -141 117 -141 117 -164 c 0,55,56
 117 -181 117 -181 133 -194 c 0,57,58
 148 -206 148 -206 171 -206 c 1,59,-1
 171 -206 l 1,43,44
EndSplineSet
EndChar

StartChar: OMatra
Encoding: 3146 3146 175
Width: 604
GlyphClass: 4
Flags: W
LayerCount: 2
Back
Fore
SplineSet
347 291 m 1,0,1
 347 336 347 336 377 369 c 0,2,3
 407 401 407 401 449 401 c 0,4,5
 466 401 466 401 479 396 c 0,6,7
 493 391 493 391 504 383 c 1,8,9
 504 418 504 418 466 443 c 0,10,11
 426 468 426 468 371 468 c 0,12,13
 338 468 338 468 314 450 c 0,14,15
 292 431 292 431 292 406 c 2,16,-1
 292 376 l 1,17,-1
 231 376 l 1,18,-1
 231 395 l 2,19,20
 231 436 231 436 196 461 c 256,21,22
 161 486 161 486 103 486 c 2,23,-1
 -42 486 l 2,24,25
 -77 486 -77 486 -102 475 c 256,26,27
 -127 464 -127 464 -127 449 c 0,28,29
 -127 439 -127 439 -118 433 c 0,30,31
 -108 425 -108 425 -96 425 c 2,32,-1
 24 425 l 1,33,-1
 24 364 l 1,34,-1
 -96 364 l 2,35,36
 -133 364 -133 364 -161 389 c 0,37,38
 -187 414 -187 414 -187 449 c 0,39,40
 -187 489 -187 489 -144 518 c 0,41,42
 -102 546 -102 546 -42 546 c 2,43,-1
 103 546 l 2,44,45
 152 546 152 546 193 529 c 0,46,47
 233 511 233 511 256 480 c 1,48,49
 268 503 268 503 299 516 c 0,50,51
 331 529 331 529 371 529 c 0,52,53
 456 529 456 529 517 471 c 0,54,55
 577 415 577 415 577 334 c 0,56,57
 577 271 577 271 543 226 c 0,58,59
 509 183 509 183 462 183 c 0,60,61
 414 183 414 183 381 214 c 0,62,63
 347 246 347 246 347 291 c 1,64,-1
 347 291 l 1,0,1
456 236 m 1,65,66
 476 236 476 236 491 253 c 0,67,68
 504 269 504 269 504 291 c 0,69,70
 504 311 504 311 491 326 c 0,71,72
 476 340 476 340 456 340 c 256,73,74
 436 340 436 340 421 326 c 0,75,76
 407 311 407 311 407 291 c 0,77,78
 407 269 407 269 421 253 c 0,79,80
 436 236 436 236 456 236 c 1,81,-1
 456 236 l 1,65,66
EndSplineSet
EndChar

StartChar: OOMatra
Encoding: 3147 3147 176
Width: 604
GlyphClass: 4
Flags: W
LayerCount: 2
Back
Fore
SplineSet
347 291 m 1,0,1
 347 336 347 336 377 369 c 0,2,3
 407 401 407 401 450 401 c 0,4,5
 466 401 466 401 480 396 c 0,6,7
 493 391 493 391 505 383 c 1,8,9
 498 419 498 419 463 444 c 0,10,11
 430 468 430 468 383 468 c 0,12,13
 346 468 346 468 318 450 c 0,14,15
 292 431 292 431 292 406 c 2,16,-1
 292 376 l 1,17,-1
 231 376 l 1,18,-1
 231 406 l 2,19,20
 231 443 231 443 196 465 c 0,21,22
 161 486 161 486 103 486 c 2,23,-1
 -47 486 l 2,24,25
 -82 486 -82 486 -107 475 c 256,26,27
 -132 464 -132 464 -132 449 c 0,28,29
 -132 439 -132 439 -122 433 c 0,30,31
 -110 425 -110 425 -95 425 c 2,32,-1
 31 425 l 1,33,-1
 31 364 l 1,34,-1
 -95 364 l 2,35,36
 -135 364 -135 364 -164 389 c 256,37,38
 -193 414 -193 414 -193 449 c 0,39,40
 -193 489 -193 489 -150 518 c 0,41,42
 -107 546 -107 546 -47 546 c 2,43,-1
 103 546 l 2,44,45
 152 546 152 546 193 529 c 0,46,47
 233 511 233 511 256 480 c 1,48,49
 268 503 268 503 303 516 c 0,50,51
 337 529 337 529 383 529 c 1,52,-1
 383 559 l 2,53,54
 383 594 383 594 412 619 c 256,55,56
 441 644 441 644 481 644 c 256,57,58
 521 644 521 644 548 619 c 0,59,60
 577 594 577 594 577 559 c 1,61,-1
 517 559 l 1,62,63
 517 569 517 569 507 575 c 0,64,65
 496 583 496 583 481 583 c 256,66,67
 466 583 466 583 455 573 c 0,68,69
 443 561 443 561 443 546 c 2,70,-1
 443 523 l 1,71,72
 502 508 502 508 540 455 c 0,73,74
 577 403 577 403 577 334 c 256,75,76
 577 265 577 265 545 224 c 0,77,78
 511 183 511 183 456 183 c 0,79,80
 411 183 411 183 378 214 c 0,81,82
 347 246 347 246 347 291 c 1,83,-1
 347 291 l 1,0,1
456 236 m 1,84,85
 476 236 476 236 491 253 c 0,86,87
 505 269 505 269 505 291 c 0,88,89
 505 311 505 311 491 326 c 0,90,91
 476 340 476 340 456 340 c 256,92,93
 436 340 436 340 421 326 c 0,94,95
 407 311 407 311 407 291 c 0,96,97
 407 269 407 269 421 253 c 0,98,99
 436 236 436 236 456 236 c 1,100,-1
 456 236 l 1,84,85
EndSplineSet
EndChar

StartChar: AuMatra
Encoding: 3148 3148 177
Width: 604
GlyphClass: 4
Flags: W
LayerCount: 2
Back
Fore
SplineSet
347 298 m 1,0,1
 347 340 347 340 377 371 c 0,2,3
 407 401 407 401 450 401 c 0,4,5
 468 401 468 401 481 400 c 0,6,7
 493 398 493 398 498 395 c 1,8,9
 498 423 498 423 468 441 c 0,10,11
 438 461 438 461 396 461 c 2,12,-1
 183 461 l 1,13,14
 190 456 190 456 192 450 c 0,15,16
 196 444 196 444 196 438 c 0,17,18
 196 408 196 408 170 385 c 0,19,20
 142 364 142 364 105 364 c 2,21,-1
 -104 364 l 1,22,-1
 -104 425 l 1,23,-1
 105 425 l 2,24,25
 115 425 115 425 122 430 c 0,26,27
 130 436 130 436 130 444 c 0,28,29
 130 451 130 451 125 456 c 0,30,31
 118 461 118 461 111 461 c 2,32,-1
 -168 461 l 1,33,-1
 -168 523 l 1,34,-1
 396 523 l 2,35,36
 471 523 471 523 525 463 c 0,37,38
 577 401 577 401 577 316 c 0,39,40
 577 264 577 264 542 226 c 0,41,42
 506 189 506 189 456 189 c 0,43,44
 411 189 411 189 378 220 c 0,45,46
 347 253 347 253 347 298 c 1,47,-1
 347 298 l 1,0,1
456 243 m 1,48,49
 476 243 476 243 491 259 c 0,50,51
 505 275 505 275 505 298 c 0,52,53
 505 318 505 318 491 333 c 0,54,55
 476 346 476 346 456 346 c 256,56,57
 436 346 436 346 421 333 c 0,58,59
 407 318 407 318 407 298 c 0,60,61
 407 275 407 275 421 259 c 0,62,63
 436 243 436 243 456 243 c 1,64,-1
 456 243 l 1,48,49
EndSplineSet
EndChar

StartChar: Halanth
Encoding: 3149 3149 178
Width: 0
GlyphClass: 4
Flags: W
LayerCount: 2
Back
Fore
SplineSet
-138 571 m 1,0,1
 -138 601 -138 601 -118 623 c 0,2,3
 -99 644 -99 644 -72 644 c 2,4,-1
 238 644 l 1,5,-1
 238 583 l 1,6,-1
 -47 583 l 2,7,8
 -59 583 -59 583 -68 575 c 0,9,10
 -77 569 -77 569 -77 559 c 256,11,12
 -77 549 -77 549 -68 541 c 0,13,14
 -59 534 -59 534 -47 534 c 2,15,-1
 153 534 l 1,16,-1
 153 474 l 1,17,-1
 -47 474 l 2,18,19
 -59 474 -59 474 -68 465 c 256,20,21
 -77 456 -77 456 -77 444 c 0,22,23
 -77 436 -77 436 -72 430 c 0,24,25
 -67 425 -67 425 -59 425 c 2,26,-1
 87 425 l 1,27,-1
 87 370 l 1,28,-1
 -59 370 l 2,29,30
 -92 370 -92 370 -115 391 c 0,31,32
 -138 414 -138 414 -138 444 c 0,33,34
 -138 464 -138 464 -128 481 c 0,35,36
 -119 499 -119 499 -102 510 c 1,37,38
 -119 523 -119 523 -128 539 c 0,39,40
 -138 555 -138 555 -138 571 c 1,41,-1
 -138 571 l 1,0,1
EndSplineSet
EndChar

StartChar: uni0C55
Encoding: 3157 3157 179
Width: 130
GlyphClass: 2
Flags: W
LayerCount: 2
Back
Fore
SplineSet
0 546 m 1,0,-1
 0 619 l 2,1,2
 0 644 0 644 18 663 c 0,3,4
 35 680 35 680 60 680 c 2,5,-1
 134 680 l 1,6,-1
 134 619 l 1,7,-1
 85 619 l 2,8,9
 75 619 75 619 68 611 c 0,10,11
 60 605 60 605 60 595 c 2,12,-1
 60 546 l 1,13,-1
 0 546 l 1,14,-1
 0 546 l 1,0,-1
EndSplineSet
EndChar

StartChar: tvam
Encoding: 3158 3158 180
Width: 0
GlyphClass: 4
Flags: W
LayerCount: 2
Back
Fore
SplineSet
828 -230 m 1,0,-1
 404 -230 l 2,1,2
 360 -230 360 -230 329 -200 c 0,3,4
 298 -171 298 -171 298 -130 c 256,5,6
 298 -89 298 -89 328 -62 c 0,7,8
 357 -32 357 -32 398 -32 c 0,9,10
 441 -32 441 -32 471 -59 c 0,11,12
 502 -86 502 -86 502 -124 c 0,13,14
 502 -145 502 -145 500 -160 c 0,15,16
 496 -175 496 -175 494 -177 c 2,17,-1
 830 -177 l 1,18,-1
 828 -228 l 1,19,-1
 828 -230 l 1,0,-1
407 -177 m 1,20,21
 425 -177 425 -177 438 -166 c 0,22,23
 449 -153 449 -153 449 -137 c 0,24,25
 449 -115 449 -115 436 -99 c 0,26,27
 423 -84 423 -84 404 -84 c 256,28,29
 385 -84 385 -84 370 -99 c 0,30,31
 357 -115 357 -115 357 -137 c 0,32,33
 357 -153 357 -153 372 -165 c 256,34,35
 387 -177 387 -177 407 -177 c 1,36,-1
 407 -177 l 1,20,21
EndSplineSet
Substitution2: "Single Substitution lookup 26 subtable" LowItvam
EndChar

StartChar: CaNukta
Encoding: 3160 3160 181
Width: 655
GlyphClass: 3
Flags: W
AnchorPoint: "Anchor-0" 0 0 basechar 0
LayerCount: 2
Back
Fore
SplineSet
455 417 m 1,0,1
 505 403 505 403 544 363 c 0,2,3
 605 300 605 300 605 213 c 0,4,5
 605 125 605 125 558 63 c 0,6,7
 509 0 509 0 441 0 c 0,8,9
 404 0 404 0 374 15 c 0,10,11
 343 29 343 29 325 55 c 1,12,13
 308 29 308 29 278 15 c 0,14,15
 246 0 246 0 210 0 c 0,16,17
 153 0 153 0 111 39 c 0,18,19
 70 79 70 79 70 134 c 0,20,21
 70 158 70 158 78 179 c 0,22,23
 86 201 86 201 101 219 c 1,24,-1
 10 219 l 1,25,-1
 10 279 l 1,26,-1
 253 279 l 1,27,-1
 253 219 l 1,28,-1
 191 219 l 2,29,30
 166 219 166 219 149 196 c 0,31,32
 131 173 131 173 131 140 c 0,33,34
 131 108 131 108 156 84 c 0,35,36
 181 61 181 61 216 61 c 256,37,38
 251 61 251 61 276 88 c 0,39,40
 301 114 301 114 301 151 c 2,41,-1
 301 183 l 1,42,-1
 361 183 l 1,43,-1
 361 151 l 2,44,45
 361 114 361 114 385 88 c 0,46,47
 408 61 408 61 441 61 c 0,48,49
 484 61 484 61 514 105 c 0,50,51
 544 150 544 150 544 213 c 0,52,53
 544 275 544 275 501 320 c 0,54,55
 458 364 458 364 398 364 c 2,56,-1
 266 364 l 2,57,58
 241 364 241 364 223 385 c 1,59,60
 205 415 205 415 205 438 c 2,61,-1
 205 498 l 1,62,-1
 266 498 l 1,63,-1
 266 444 l 2,64,65
 266 438 266 438 271 431 c 0,66,67
 276 426 276 426 284 425 c 2,68,-1
 395 425 l 1,69,-1
 395 498 l 2,70,71
 395 523 395 523 413 541 c 0,72,73
 430 559 430 559 455 559 c 2,74,-1
 638 559 l 1,75,-1
 638 498 l 1,76,-1
 480 498 l 2,77,78
 470 498 470 498 463 490 c 0,79,80
 455 484 455 484 455 474 c 2,81,-1
 455 417 l 1,0,1
17 595 m 1,82,-1
 17 643 l 1,83,-1
 358 643 l 1,84,85
 352 648 352 648 350 663 c 0,86,87
 346 677 346 677 346 698 c 0,88,89
 346 736 346 736 376 763 c 256,90,91
 406 790 406 790 448 790 c 0,92,93
 488 790 488 790 517 761 c 256,94,95
 546 732 546 732 546 692 c 256,96,97
 546 652 546 652 516 623 c 0,98,99
 486 595 486 595 443 595 c 2,100,-1
 17 595 l 1,101,-1
 17 595 l 1,82,-1
437 643 m 1,102,103
 460 643 460 643 475 656 c 0,104,105
 491 668 491 668 491 686 c 0,106,107
 491 708 491 708 477 725 c 0,108,109
 463 741 463 741 443 741 c 256,110,111
 423 741 423 741 408 725 c 0,112,113
 395 708 395 708 395 686 c 0,114,115
 395 668 395 668 407 656 c 0,116,117
 420 643 420 643 437 643 c 1,118,-1
 437 643 l 1,102,103
EndSplineSet
Ligature2: "'nukt' Nukta Forms in Telugu lookup 0 subtable" Ca Nukta
EndChar

StartChar: JaNukta
Encoding: 3161 3161 182
Width: 593
GlyphClass: 3
Flags: W
AnchorPoint: "Anchor-0" 0 0 basechar 0
LayerCount: 2
Back
Fore
SplineSet
78 39 m 0,0,1
 30 79 30 79 30 134 c 0,2,3
 30 181 30 181 59 218 c 0,4,5
 89 254 89 254 134 261 c 0,6,7
 163 266 163 266 181 285 c 0,8,9
 200 304 200 304 200 328 c 0,10,11
 200 345 200 345 186 358 c 0,12,13
 171 370 171 370 151 370 c 256,14,15
 131 370 131 370 116 356 c 0,16,17
 103 341 103 341 103 321 c 2,18,-1
 103 304 l 1,19,-1
 43 304 l 1,20,-1
 43 328 l 2,21,22
 43 368 43 368 74 396 c 0,23,24
 106 425 106 425 151 425 c 256,25,26
 196 425 196 425 229 396 c 0,27,28
 261 368 261 368 261 328 c 1,29,30
 274 305 274 305 304 291 c 0,31,32
 333 279 333 279 370 279 c 0,33,34
 405 279 405 279 430 293 c 0,35,36
 455 308 455 308 455 328 c 0,37,38
 455 343 455 343 443 354 c 0,39,40
 430 364 430 364 413 364 c 2,41,-1
 383 364 l 1,42,-1
 383 425 l 1,43,-1
 425 425 l 2,44,45
 463 425 463 425 490 396 c 0,46,47
 516 368 516 368 516 328 c 0,48,49
 516 283 516 283 478 250 c 0,50,51
 438 219 438 219 383 219 c 0,52,53
 343 219 343 219 306 231 c 0,54,55
 271 244 271 244 243 268 c 1,56,57
 231 251 231 251 213 239 c 0,58,59
 194 225 194 225 170 219 c 0,60,61
 135 209 135 209 114 185 c 0,62,63
 91 161 91 161 91 134 c 0,64,65
 91 104 91 104 120 83 c 0,66,67
 148 61 148 61 188 61 c 256,68,69
 228 61 228 61 256 88 c 0,70,71
 285 114 285 114 285 151 c 2,72,-1
 285 183 l 1,73,-1
 346 183 l 1,74,-1
 346 134 l 2,75,76
 346 104 346 104 371 83 c 0,77,78
 396 61 396 61 431 61 c 256,79,80
 466 61 466 61 491 84 c 0,81,82
 516 108 516 108 516 140 c 0,83,84
 516 158 516 158 510 175 c 0,85,86
 504 191 504 191 491 206 c 1,87,-1
 559 206 l 1,88,89
 568 196 568 196 571 179 c 0,90,91
 576 163 576 163 576 140 c 0,92,93
 576 74 576 74 539 36 c 0,94,95
 500 0 500 0 431 0 c 0,96,97
 391 0 391 0 360 15 c 0,98,99
 328 29 328 29 310 55 c 1,100,101
 293 29 293 29 261 15 c 0,102,103
 231 0 231 0 194 0 c 0,104,105
 126 0 126 0 78 39 c 0,0,1
37 513 m 1,106,-1
 37 561 l 1,107,-1
 378 561 l 1,108,109
 372 566 372 566 370 581 c 0,110,111
 366 595 366 595 366 616 c 0,112,113
 366 654 366 654 396 681 c 256,114,115
 426 708 426 708 468 708 c 0,116,117
 508 708 508 708 537 679 c 256,118,119
 566 650 566 650 566 610 c 256,120,121
 566 570 566 570 536 541 c 0,122,123
 506 513 506 513 463 513 c 2,124,-1
 37 513 l 1,125,-1
 37 513 l 1,106,-1
457 561 m 1,126,127
 480 561 480 561 495 574 c 0,128,129
 511 586 511 586 511 604 c 0,130,131
 511 626 511 626 497 643 c 0,132,133
 483 659 483 659 463 659 c 256,134,135
 443 659 443 659 428 643 c 0,136,137
 415 626 415 626 415 604 c 0,138,139
 415 586 415 586 427 574 c 0,140,141
 440 561 440 561 457 561 c 1,142,-1
 457 561 l 1,126,127
EndSplineSet
Ligature2: "'nukt' Nukta Forms in Telugu lookup 0 subtable" Ja Nukta
EndChar

StartChar: RRu
Encoding: 3168 3168 183
Width: 1490
GlyphClass: 2
Flags: W
LayerCount: 2
Back
Fore
SplineSet
188 0 m 1,0,1
 123 0 123 0 76 39 c 0,2,3
 30 79 30 79 30 134 c 0,4,5
 30 181 30 181 59 218 c 0,6,7
 89 254 89 254 134 261 c 0,8,9
 163 266 163 266 181 285 c 0,10,11
 200 304 200 304 200 328 c 0,12,13
 200 345 200 345 186 358 c 0,14,15
 171 370 171 370 151 370 c 256,16,17
 131 370 131 370 116 356 c 0,18,19
 103 341 103 341 103 321 c 2,20,-1
 103 304 l 1,21,-1
 43 304 l 1,22,-1
 43 328 l 2,23,24
 43 368 43 368 74 396 c 0,25,26
 106 425 106 425 151 425 c 256,27,28
 196 425 196 425 229 396 c 0,29,30
 261 368 261 368 261 328 c 0,31,32
 261 291 261 291 236 260 c 0,33,34
 210 230 210 230 170 219 c 0,35,36
 135 209 135 209 114 185 c 0,37,38
 91 161 91 161 91 134 c 0,39,40
 91 104 91 104 120 83 c 0,41,42
 148 61 148 61 188 61 c 256,43,44
 228 61 228 61 256 88 c 0,45,46
 285 114 285 114 285 151 c 2,47,-1
 285 183 l 1,48,-1
 346 183 l 1,49,-1
 346 134 l 2,50,51
 346 104 346 104 368 83 c 0,52,53
 389 61 389 61 419 61 c 0,54,55
 463 61 463 61 490 103 c 0,56,57
 516 144 516 144 516 213 c 0,58,59
 516 275 516 275 486 320 c 0,60,61
 455 364 455 364 413 364 c 2,62,-1
 364 364 l 1,63,-1
 364 425 l 1,64,-1
 413 425 l 2,65,66
 480 425 480 425 529 361 c 0,67,68
 576 296 576 296 576 206 c 2,69,-1
 576 191 l 1,70,71
 605 131 605 131 640 96 c 0,72,73
 674 61 674 61 704 61 c 0,74,75
 754 61 754 61 790 105 c 0,76,77
 825 150 825 150 825 213 c 0,78,79
 825 275 825 275 786 320 c 0,80,81
 746 364 746 364 691 364 c 2,82,-1
 668 364 l 1,83,-1
 668 425 l 1,84,-1
 710 425 l 2,85,86
 783 425 783 425 835 363 c 0,87,88
 886 300 886 300 886 213 c 2,89,-1
 885 185 l 1,90,91
 910 129 910 129 943 95 c 0,92,93
 975 61 975 61 1005 61 c 0,94,95
 1058 61 1058 61 1095 104 c 0,96,97
 1133 146 1133 146 1133 206 c 0,98,99
 1133 271 1133 271 1103 318 c 0,100,101
 1071 364 1071 364 1029 364 c 2,102,-1
 986 364 l 1,103,-1
 986 425 l 1,104,-1
 1303 425 l 2,105,106
 1373 425 1373 425 1423 366 c 0,107,108
 1473 308 1473 308 1473 225 c 0,109,110
 1473 168 1473 168 1441 126 c 0,111,112
 1409 85 1409 85 1364 85 c 0,113,114
 1313 85 1313 85 1278 119 c 0,115,116
 1241 153 1241 153 1241 200 c 0,117,118
 1241 243 1241 243 1271 274 c 0,119,120
 1303 304 1303 304 1345 304 c 0,121,122
 1375 304 1375 304 1394 291 c 1,123,124
 1391 321 1391 321 1365 343 c 0,125,126
 1339 364 1339 364 1303 364 c 2,127,-1
 1139 364 l 1,128,129
 1165 346 1165 346 1179 303 c 0,130,131
 1194 260 1194 260 1194 200 c 0,132,133
 1194 118 1194 118 1140 59 c 256,134,135
 1086 0 1086 0 1011 0 c 0,136,137
 961 0 961 0 920 33 c 0,138,139
 880 65 880 65 868 116 c 1,140,141
 846 64 846 64 804 31 c 0,142,143
 760 0 760 0 710 0 c 0,144,145
 655 0 655 0 613 33 c 0,146,147
 571 65 571 65 560 115 c 1,148,149
 541 64 541 64 504 31 c 0,150,151
 468 0 468 0 425 0 c 0,152,153
 389 0 389 0 358 15 c 0,154,155
 328 29 328 29 310 55 c 1,156,157
 293 29 293 29 260 15 c 0,158,159
 228 0 228 0 188 0 c 1,160,-1
 188 0 l 1,0,1
1351 146 m 1,161,162
 1371 146 1371 146 1386 160 c 0,163,164
 1400 174 1400 174 1400 194 c 256,165,166
 1400 214 1400 214 1386 229 c 0,167,168
 1371 243 1371 243 1351 243 c 256,169,170
 1331 243 1331 243 1316 229 c 0,171,172
 1303 214 1303 214 1303 194 c 256,173,174
 1303 174 1303 174 1316 160 c 0,175,176
 1331 146 1331 146 1351 146 c 1,177,-1
 1351 146 l 1,161,162
EndSplineSet
EndChar

StartChar: LLu
Encoding: 3169 3169 184
Width: 1086
GlyphClass: 2
Flags: W
LayerCount: 2
Back
Fore
SplineSet
30 298 m 1,0,1
 30 359 30 359 70 398 c 0,2,3
 109 438 109 438 170 438 c 0,4,5
 218 438 218 438 254 423 c 0,6,7
 289 408 289 408 304 383 c 1,8,9
 319 408 319 408 351 423 c 0,10,11
 384 438 384 438 425 438 c 0,12,13
 490 438 490 438 536 396 c 0,14,15
 583 355 583 355 583 298 c 0,16,17
 583 259 583 259 559 219 c 0,18,19
 535 180 535 180 493 146 c 0,20,21
 449 113 449 113 425 76 c 256,22,23
 401 39 401 39 401 6 c 0,24,25
 401 -34 401 -34 431 -62 c 0,26,27
 461 -91 461 -91 504 -91 c 0,28,29
 574 -91 574 -91 624 -4 c 256,30,31
 674 83 674 83 674 206 c 0,32,33
 674 304 674 304 620 425 c 1,34,-1
 899 425 l 2,35,36
 969 425 969 425 1019 366 c 0,37,38
 1069 308 1069 308 1069 225 c 0,39,40
 1069 170 1069 170 1034 130 c 0,41,42
 998 91 998 91 948 91 c 0,43,44
 903 91 903 91 870 123 c 0,45,46
 838 155 838 155 838 200 c 0,47,48
 838 243 838 243 868 274 c 0,49,50
 899 304 899 304 941 304 c 0,51,52
 969 304 969 304 990 291 c 1,53,54
 985 323 985 323 959 344 c 0,55,56
 933 364 933 364 899 364 c 2,57,-1
 711 364 l 1,58,59
 735 281 735 281 735 206 c 0,60,61
 735 59 735 59 668 -46 c 0,62,63
 600 -151 600 -151 504 -151 c 0,64,65
 436 -151 436 -151 388 -104 c 0,66,67
 340 -55 340 -55 340 13 c 0,68,69
 340 54 340 54 364 95 c 256,70,71
 388 136 388 136 431 170 c 0,72,73
 475 204 475 204 499 239 c 256,74,75
 523 274 523 274 523 304 c 256,76,77
 523 334 523 334 494 355 c 256,78,79
 465 376 465 376 425 376 c 256,80,81
 385 376 385 376 356 351 c 0,82,83
 328 326 328 326 328 291 c 2,84,-1
 328 255 l 1,85,-1
 268 255 l 1,86,-1
 268 291 l 2,87,88
 268 326 268 326 243 351 c 256,89,90
 218 376 218 376 183 376 c 0,91,92
 145 376 145 376 118 354 c 0,93,94
 91 330 91 330 91 298 c 0,95,96
 91 276 91 276 98 260 c 0,97,98
 104 243 104 243 115 231 c 1,99,-1
 49 231 l 1,100,101
 30 259 30 259 30 298 c 1,102,-1
 30 298 l 1,0,1
948 146 m 1,103,104
 968 146 968 146 983 160 c 0,105,106
 996 174 996 174 996 194 c 256,107,108
 996 214 996 214 983 229 c 0,109,110
 968 243 968 243 948 243 c 256,111,112
 928 243 928 243 913 229 c 0,113,114
 899 214 899 214 899 194 c 256,115,116
 899 174 899 174 913 160 c 0,117,118
 928 146 928 146 948 146 c 1,119,-1
 948 146 l 1,103,104
EndSplineSet
EndChar

StartChar: uni0C62
Encoding: 3170 3170 185
Width: 0
GlyphClass: 2
Flags: W
LayerCount: 2
Back
Fore
SplineSet
-581 -105 m 1,0,1
 -581 -66 -581 -66 -550 -40 c 0,2,3
 -521 -15 -521 -15 -475 -15 c 0,4,5
 -440 -15 -440 -15 -413 -24 c 0,6,7
 -387 -33 -387 -33 -376 -47 c 1,8,9
 -366 -33 -366 -33 -342 -24 c 0,10,11
 -319 -15 -319 -15 -288 -15 c 0,12,13
 -239 -15 -239 -15 -205 -42 c 0,14,15
 -171 -68 -171 -68 -171 -105 c 0,16,17
 -171 -136 -171 -136 -188 -163 c 0,18,19
 -207 -191 -207 -191 -237 -211 c 0,20,21
 -268 -231 -268 -231 -286 -252 c 0,22,23
 -303 -275 -303 -275 -303 -294 c 0,24,25
 -303 -320 -303 -320 -282 -338 c 0,26,27
 -259 -358 -259 -358 -229 -358 c 0,28,29
 -179 -358 -179 -358 -143 -301 c 0,30,31
 -107 -243 -107 -243 -107 -162 c 0,32,33
 -107 -84 -107 -84 -134 -23 c 1,34,-1
 -85 -23 l 1,35,36
 -58 -79 -58 -79 -58 -162 c 0,37,38
 -58 -260 -58 -260 -108 -328 c 0,39,40
 -158 -398 -158 -398 -229 -398 c 0,41,42
 -280 -398 -280 -398 -315 -366 c 0,43,44
 -351 -335 -351 -335 -351 -289 c 0,45,46
 -351 -261 -351 -261 -333 -235 c 0,47,48
 -315 -208 -315 -208 -284 -188 c 0,49,50
 -254 -170 -254 -170 -237 -146 c 0,51,52
 -220 -123 -220 -123 -220 -101 c 0,53,54
 -220 -82 -220 -82 -239 -69 c 0,55,56
 -260 -56 -260 -56 -288 -56 c 0,57,58
 -317 -56 -317 -56 -337 -72 c 0,59,60
 -357 -87 -357 -87 -357 -109 c 2,61,-1
 -357 -137 l 1,62,-1
 -405 -137 l 1,63,-1
 -405 -109 l 2,64,65
 -405 -87 -405 -87 -422 -71 c 0,66,67
 -440 -56 -440 -56 -465 -56 c 0,68,69
 -492 -56 -492 -56 -512 -71 c 0,70,71
 -531 -85 -531 -85 -531 -105 c 0,72,73
 -531 -120 -531 -120 -526 -130 c 0,74,75
 -522 -143 -522 -143 -508 -152 c 1,76,-1
 -564 -152 l 1,77,78
 -572 -141 -572 -141 -577 -130 c 0,79,80
 -581 -117 -581 -117 -581 -105 c 1,81,-1
 -581 -105 l 1,0,1
EndSplineSet
EndChar

StartChar: uni0C63
Encoding: 3171 3171 186
Width: 0
GlyphClass: 2
Flags: W
LayerCount: 2
Back
Fore
SplineSet
-828 -105 m 1,0,1
 -828 -66 -828 -66 -797 -40 c 0,2,3
 -768 -15 -768 -15 -722 -15 c 0,4,5
 -687 -15 -687 -15 -660 -24 c 0,6,7
 -634 -33 -634 -33 -623 -47 c 1,8,9
 -613 -33 -613 -33 -589 -24 c 0,10,11
 -566 -15 -566 -15 -535 -15 c 0,12,13
 -486 -15 -486 -15 -452 -42 c 0,14,15
 -418 -68 -418 -68 -418 -105 c 0,16,17
 -418 -136 -418 -136 -435 -163 c 0,18,19
 -454 -191 -454 -191 -484 -211 c 0,20,21
 -515 -231 -515 -231 -533 -252 c 0,22,23
 -550 -275 -550 -275 -550 -294 c 0,24,25
 -550 -320 -550 -320 -529 -338 c 0,26,27
 -506 -358 -506 -358 -476 -358 c 0,28,29
 -426 -358 -426 -358 -390 -301 c 0,30,31
 -354 -243 -354 -243 -354 -162 c 0,32,33
 -354 -112 -354 -112 -394 -23 c 1,34,-1
 -187 -23 l 2,35,36
 -134 -23 -134 -23 -96 -61 c 256,37,38
 -58 -99 -58 -99 -58 -154 c 0,39,40
 -58 -191 -58 -191 -85 -216 c 0,41,42
 -112 -242 -112 -242 -151 -242 c 0,43,44
 -186 -242 -186 -242 -208 -220 c 0,45,46
 -233 -200 -233 -200 -233 -169 c 0,47,48
 -233 -140 -233 -140 -209 -120 c 0,49,50
 -187 -99 -187 -99 -155 -99 c 0,51,52
 -130 -99 -130 -99 -121 -105 c 1,53,54
 -124 -90 -124 -90 -142 -77 c 0,55,56
 -162 -64 -162 -64 -187 -64 c 2,57,-1
 -320 -64 l 1,58,59
 -305 -119 -305 -119 -305 -162 c 0,60,61
 -305 -260 -305 -260 -355 -328 c 0,62,63
 -405 -398 -405 -398 -476 -398 c 0,64,65
 -527 -398 -527 -398 -562 -366 c 0,66,67
 -598 -335 -598 -335 -598 -289 c 0,68,69
 -598 -261 -598 -261 -580 -235 c 0,70,71
 -562 -208 -562 -208 -531 -188 c 0,72,73
 -501 -170 -501 -170 -484 -146 c 0,74,75
 -467 -123 -467 -123 -467 -101 c 0,76,77
 -467 -82 -467 -82 -486 -69 c 0,78,79
 -507 -56 -507 -56 -535 -56 c 0,80,81
 -564 -56 -564 -56 -584 -72 c 0,82,83
 -604 -87 -604 -87 -604 -109 c 2,84,-1
 -604 -137 l 1,85,-1
 -652 -137 l 1,86,-1
 -652 -109 l 2,87,88
 -652 -87 -652 -87 -669 -71 c 0,89,90
 -687 -56 -687 -56 -712 -56 c 0,91,92
 -739 -56 -739 -56 -759 -71 c 0,93,94
 -778 -85 -778 -85 -778 -105 c 0,95,96
 -778 -120 -778 -120 -773 -130 c 0,97,98
 -769 -143 -769 -143 -755 -152 c 1,99,-1
 -811 -152 l 1,100,101
 -819 -141 -819 -141 -824 -130 c 0,102,103
 -828 -117 -828 -117 -828 -105 c 1,104,-1
 -828 -105 l 1,0,1
-153 -207 m 1,105,106
 -137 -207 -137 -207 -127 -198 c 0,107,108
 -118 -186 -118 -186 -118 -172 c 0,109,110
 -118 -162 -118 -162 -127 -154 c 0,111,112
 -137 -147 -137 -147 -151 -147 c 256,113,114
 -165 -147 -165 -147 -176 -154 c 0,115,116
 -185 -162 -185 -162 -185 -172 c 0,117,118
 -185 -186 -185 -186 -176 -198 c 0,119,120
 -165 -207 -165 -207 -153 -207 c 1,121,-1
 -153 -207 l 1,105,106
EndSplineSet
EndChar

StartChar: Telugu0
Encoding: 3174 3174 187
Width: 629
GlyphClass: 2
Flags: W
LayerCount: 2
Back
Fore
SplineSet
322 -7 m 1,0,1
 210 -7 210 -7 142 63 c 0,2,3
 73 130 73 130 73 245 c 256,4,5
 73 360 73 360 142 429 c 0,6,7
 210 498 210 498 324 498 c 0,8,9
 432 498 432 498 496 429 c 0,10,11
 562 360 562 360 562 245 c 256,12,13
 562 130 562 130 496 63 c 0,14,15
 432 -7 432 -7 322 -7 c 1,16,-1
 322 -7 l 1,0,1
322 42 m 1,17,18
 403 42 403 42 449 97 c 0,19,20
 498 154 498 154 498 245 c 0,21,22
 498 338 498 338 449 394 c 0,23,24
 399 449 399 449 318 449 c 0,25,26
 234 449 234 449 182 394 c 0,27,28
 132 338 132 338 132 245 c 0,29,30
 132 154 132 154 184 97 c 0,31,32
 237 42 237 42 322 42 c 1,33,-1
 322 42 l 1,17,18
EndSplineSet
EndChar

StartChar: Telugu1
Encoding: 3175 3175 188
Width: 628
GlyphClass: 2
Flags: W
LayerCount: 2
Back
Fore
SplineSet
248 -2 m 1,0,1
 179 -2 179 -2 128 65 c 0,2,3
 78 133 78 133 78 228 c 0,4,5
 78 350 78 350 144 424 c 0,6,7
 208 497 208 497 316 497 c 0,8,9
 425 497 425 497 490 424 c 0,10,11
 556 350 556 350 556 228 c 0,12,13
 556 133 556 133 506 65 c 0,14,15
 455 -2 455 -2 382 -2 c 1,16,-1
 382 52 l 1,17,18
 428 52 428 52 459 105 c 0,19,20
 491 159 491 159 491 233 c 0,21,22
 491 328 491 328 442 387 c 0,23,24
 395 443 395 443 316 443 c 256,25,26
 237 443 237 443 191 384 c 0,27,28
 142 325 142 325 142 228 c 0,29,30
 142 155 142 155 175 104 c 0,31,32
 206 52 206 52 252 52 c 1,33,-1
 248 0 l 1,34,-1
 248 -2 l 1,0,1
EndSplineSet
EndChar

StartChar: Telugu2
Encoding: 3176 3176 189
Width: 628
GlyphClass: 2
Flags: W
LayerCount: 2
Back
Fore
SplineSet
279 -2 m 1,0,-1
 85 -2 l 1,1,-1
 85 52 l 1,2,-1
 257 52 l 2,3,4
 351 52 351 52 419 115 c 0,5,6
 485 177 485 177 485 266 c 0,7,8
 485 342 485 342 441 395 c 256,9,10
 397 448 397 448 336 448 c 0,11,12
 312 448 312 448 299 441 c 1,13,14
 316 437 316 437 330 420 c 0,15,16
 344 402 344 402 344 381 c 0,17,18
 344 353 344 353 313 333 c 0,19,20
 282 314 282 314 238 314 c 0,21,22
 195 314 195 314 164 337 c 0,23,24
 133 359 133 359 133 391 c 0,25,26
 133 435 133 435 189 467 c 0,27,28
 244 497 244 497 323 497 c 0,29,30
 418 497 418 497 483 429 c 0,31,32
 550 362 550 362 550 266 c 0,33,34
 550 155 550 155 471 77 c 0,35,36
 393 -2 393 -2 279 -2 c 1,37,-1
 279 -2 l 1,0,-1
236 363 m 1,38,39
 255 363 255 363 267 371 c 0,40,41
 279 377 279 377 279 386 c 0,42,43
 279 398 279 398 267 404 c 0,44,45
 255 413 255 413 238 413 c 0,46,47
 222 413 222 413 209 404 c 0,48,49
 198 398 198 398 198 386 c 0,50,51
 198 377 198 377 209 371 c 0,52,53
 222 363 222 363 236 363 c 1,54,-1
 236 363 l 1,38,39
EndSplineSet
EndChar

StartChar: Telugu3
Encoding: 3177 3177 190
Width: 629
GlyphClass: 2
Flags: W
LayerCount: 2
Back
Fore
SplineSet
225 -2 m 1,0,-1
 91 -2 l 1,1,-1
 91 51 l 1,2,-1
 209 51 l 2,3,4
 322 51 322 51 401 91 c 0,5,6
 480 130 480 130 480 186 c 0,7,8
 480 218 480 218 452 239 c 0,9,10
 425 262 425 262 386 262 c 2,11,-1
 216 262 l 2,12,13
 196 262 196 262 180 269 c 0,14,15
 165 278 165 278 165 289 c 256,16,17
 165 300 165 300 181 314 c 0,18,19
 195 328 195 328 222 347 c 2,20,-1
 366 438 l 1,21,-1
 91 438 l 1,22,-1
 91 491 l 1,23,-1
 422 491 l 2,24,25
 443 491 443 491 458 483 c 256,26,27
 473 475 473 475 473 464 c 256,28,29
 473 453 473 453 457 438 c 0,30,31
 442 422 442 422 415 407 c 2,32,-1
 270 315 l 1,33,-1
 397 315 l 2,34,35
 458 315 458 315 502 277 c 0,36,37
 545 240 545 240 545 186 c 0,38,39
 545 108 545 108 452 53 c 256,40,41
 359 -2 359 -2 225 -2 c 1,42,-1
 225 -2 l 1,0,-1
EndSplineSet
EndChar

StartChar: Telugu4
Encoding: 3178 3178 191
Width: 629
GlyphClass: 2
Flags: W
LayerCount: 2
Back
Fore
SplineSet
310 -7 m 1,0,1
 217 -7 217 -7 161 23 c 0,2,3
 104 54 104 54 104 104 c 0,4,5
 104 141 104 141 145 180 c 0,6,7
 185 220 185 220 246 248 c 1,8,9
 153 273 153 273 93 314 c 0,10,11
 31 357 31 357 31 396 c 0,12,13
 31 442 31 442 72 471 c 0,14,15
 111 498 111 498 180 498 c 1,16,-1
 180 449 l 1,17,18
 144 449 144 449 119 434 c 0,19,20
 95 422 95 422 95 401 c 0,21,22
 95 382 95 382 130 357 c 0,23,24
 168 332 168 332 228 310 c 2,25,-1
 324 280 l 1,26,27
 438 322 438 322 477 341 c 0,28,29
 535 370 535 370 535 396 c 0,30,31
 535 418 535 418 516 433 c 0,32,33
 497 449 497 449 469 449 c 1,34,-1
 469 493 l 1,35,36
 525 497 525 497 564 468 c 0,37,38
 605 437 605 437 605 393 c 0,39,40
 605 359 605 359 544 317 c 0,41,42
 485 277 485 277 391 243 c 1,43,44
 447 217 447 217 483 180 c 0,45,46
 520 144 520 144 520 109 c 0,47,48
 520 57 520 57 463 24 c 0,49,50
 407 -7 407 -7 310 -7 c 1,51,-1
 310 -7 l 1,0,1
310 47 m 1,52,53
 369 47 369 47 410 65 c 0,54,55
 450 81 450 81 450 104 c 0,56,57
 450 133 450 133 415 163 c 0,58,59
 377 194 377 194 318 217 c 1,60,61
 254 193 254 193 214 162 c 0,62,63
 175 130 175 130 175 104 c 0,64,65
 175 81 175 81 215 65 c 0,66,67
 254 47 254 47 310 47 c 1,68,-1
 310 47 l 1,52,53
EndSplineSet
EndChar

StartChar: Telugu5
Encoding: 3179 3179 192
Width: 628
GlyphClass: 2
Flags: W
LayerCount: 2
Back
Fore
SplineSet
94 -2 m 1,0,-1
 58 -2 l 1,1,-1
 58 51 l 1,2,-1
 90 51 l 2,3,4
 157 51 157 51 205 99 c 0,5,6
 252 147 252 147 252 215 c 0,7,8
 252 308 252 308 202 373 c 0,9,10
 153 438 153 438 84 438 c 2,11,-1
 58 438 l 1,12,-1
 58 491 l 1,13,-1
 84 491 l 2,14,15
 169 491 169 491 235 421 c 0,16,17
 303 351 303 351 322 246 c 1,18,19
 374 246 374 246 402 256 c 1,20,21
 382 290 382 290 372 320 c 0,22,23
 361 350 361 350 361 371 c 0,24,25
 361 421 361 421 389 455 c 0,26,27
 418 491 418 491 459 491 c 0,28,29
 507 491 507 491 541 459 c 0,30,31
 576 427 576 427 576 381 c 0,32,33
 576 334 576 334 553 295 c 0,34,35
 530 255 530 255 493 234 c 1,36,37
 530 199 530 199 551 166 c 0,38,39
 571 132 571 132 571 108 c 0,40,41
 571 62 571 62 526 29 c 0,42,43
 481 -2 481 -2 418 -2 c 2,44,-1
 348 -2 l 1,45,-1
 348 51 l 1,46,-1
 399 51 l 2,47,48
 443 51 443 51 475 71 c 0,49,50
 507 90 507 90 507 118 c 0,51,52
 507 130 507 130 488 154 c 2,53,-1
 434 213 l 1,54,55
 394 198 394 198 322 198 c 1,56,57
 316 114 316 114 251 57 c 0,58,59
 186 -2 186 -2 94 -2 c 1,60,-1
 94 -2 l 1,0,-1
458 275 m 1,61,62
 483 290 483 290 497 319 c 0,63,64
 512 347 512 347 512 381 c 0,65,66
 512 404 512 404 498 422 c 0,67,68
 484 438 484 438 465 438 c 0,69,70
 449 438 449 438 438 418 c 0,71,72
 426 396 426 396 426 366 c 0,73,74
 426 343 426 343 435 320 c 0,75,76
 445 296 445 296 458 280 c 1,77,-1
 458 275 l 1,61,62
EndSplineSet
EndChar

StartChar: Telugu6
Encoding: 3180 3180 193
Width: 628
GlyphClass: 2
Flags: W
LayerCount: 2
Back
Fore
SplineSet
266 -2 m 1,0,1
 192 -2 192 -2 139 37 c 0,2,3
 85 77 85 77 85 131 c 0,4,5
 85 169 85 169 113 201 c 0,6,7
 142 236 142 236 185 255 c 1,8,9
 142 269 142 269 115 300 c 0,10,11
 85 329 85 329 85 361 c 0,12,13
 85 415 85 415 137 453 c 256,14,15
 189 491 189 491 262 491 c 2,16,-1
 355 491 l 1,17,-1
 355 438 l 1,18,-1
 287 438 l 2,19,20
 230 438 230 438 189 416 c 0,21,22
 149 393 149 393 149 361 c 0,23,24
 149 330 149 330 194 308 c 0,25,26
 240 286 240 286 305 286 c 2,27,-1
 404 286 l 1,28,-1
 404 232 l 1,29,-1
 311 232 l 2,30,31
 244 232 244 232 196 203 c 0,32,33
 149 175 149 175 149 136 c 0,34,35
 149 101 149 101 193 77 c 0,36,37
 237 51 237 51 300 51 c 2,38,-1
 550 51 l 1,39,-1
 550 -2 l 1,40,-1
 266 -2 l 1,41,-1
 266 -2 l 1,0,1
EndSplineSet
EndChar

StartChar: Telugu7
Encoding: 3181 3181 194
Width: 628
GlyphClass: 2
Flags: W
LayerCount: 2
Back
Fore
SplineSet
291 -7 m 1,0,1
 199 -7 199 -7 142 33 c 256,2,3
 85 73 85 73 85 140 c 0,4,5
 85 204 85 204 146 250 c 0,6,7
 207 293 207 293 293 293 c 0,8,9
 356 293 356 293 400 316 c 0,10,11
 443 339 443 339 443 370 c 0,12,13
 443 403 443 403 407 423 c 256,14,15
 371 443 371 443 311 443 c 0,16,17
 250 443 250 443 206 426 c 0,18,19
 162 408 162 408 148 377 c 1,20,-1
 103 409 l 1,21,22
 122 452 122 452 180 475 c 256,23,24
 238 498 238 498 317 498 c 0,25,26
 399 498 399 498 456 461 c 0,27,28
 514 424 514 424 514 370 c 0,29,30
 514 318 514 318 462 279 c 0,31,32
 409 243 409 243 336 243 c 0,33,34
 257 243 257 243 203 214 c 256,35,36
 149 185 149 185 149 145 c 0,37,38
 149 101 149 101 188 75 c 0,39,40
 228 47 228 47 293 47 c 0,41,42
 368 47 368 47 424 77 c 0,43,44
 480 106 480 106 499 158 c 1,45,-1
 550 121 l 1,46,47
 530 63 530 63 459 27 c 0,48,49
 387 -7 387 -7 291 -7 c 1,50,-1
 291 -7 l 1,0,1
EndSplineSet
EndChar

StartChar: Telugu8
Encoding: 3182 3182 195
Width: 628
GlyphClass: 2
Flags: W
LayerCount: 2
Back
Fore
SplineSet
282 -7 m 1,0,1
 184 -7 184 -7 123 67 c 0,2,3
 63 139 63 139 63 261 c 0,4,5
 63 357 63 357 113 424 c 0,6,7
 164 492 164 492 237 492 c 1,8,-1
 237 438 l 1,9,10
 191 438 191 438 160 387 c 0,11,12
 128 334 128 334 128 261 c 0,13,14
 128 165 128 165 171 105 c 0,15,16
 214 47 214 47 284 47 c 0,17,18
 363 47 363 47 409 104 c 0,19,20
 458 161 458 161 458 256 c 0,21,22
 458 332 458 332 426 385 c 256,23,24
 394 438 394 438 348 438 c 1,25,-1
 348 492 l 1,26,-1
 571 492 l 1,27,-1
 571 438 l 1,28,-1
 459 438 l 1,29,30
 487 410 487 410 505 364 c 0,31,32
 522 316 522 316 522 261 c 0,33,34
 522 139 522 139 456 67 c 0,35,36
 392 -7 392 -7 282 -7 c 1,37,-1
 282 -7 l 1,0,1
EndSplineSet
EndChar

StartChar: Telugu9
Encoding: 3183 3183 196
Width: 629
GlyphClass: 2
Flags: W
LayerCount: 2
Back
Fore
SplineSet
287 -2 m 1,0,1
 199 -2 199 -2 137 37 c 0,2,3
 73 77 73 77 73 131 c 0,4,5
 73 169 73 169 101 201 c 0,6,7
 130 236 130 236 173 255 c 1,8,9
 130 269 130 269 103 300 c 0,10,11
 73 329 73 329 73 361 c 0,12,13
 73 415 73 415 125 453 c 0,14,15
 178 491 178 491 251 491 c 2,16,-1
 562 491 l 1,17,-1
 562 438 l 1,18,-1
 275 438 l 2,19,20
 218 438 218 438 177 416 c 0,21,22
 137 393 137 393 137 361 c 0,23,24
 137 330 137 330 182 308 c 0,25,26
 228 286 228 286 294 286 c 2,27,-1
 392 286 l 1,28,-1
 392 232 l 1,29,-1
 300 232 l 2,30,31
 232 232 232 232 185 203 c 0,32,33
 137 175 137 175 137 136 c 0,34,35
 137 101 137 101 181 77 c 0,36,37
 225 51 225 51 288 51 c 2,38,-1
 345 51 l 1,39,-1
 345 -2 l 1,40,-1
 287 -2 l 1,41,-1
 287 -2 l 1,0,1
EndSplineSet
EndChar

StartChar: uni0C78
Encoding: 3192 3192 197
Width: 434
GlyphClass: 2
Flags: W
LayerCount: 2
Back
Fore
SplineSet
190 530 m 2,0,-1
 217 530 l 2,1,2
 292 530 292 530 359 453 c 1,3,4
 396 402 396 402 396 346 c 2,5,-1
 396 326 l 2,6,7
 396 250 396 250 332 190 c 1,8,9
 378 165 378 165 378 124 c 2,10,-1
 378 121 l 2,11,12
 378 56 378 56 204 -44 c 0,13,14
 200 -46 200 -46 192 -46 c 2,15,-1
 190 -46 l 1,16,17
 166 -42 166 -42 166 -14 c 0,18,19
 166 -1 166 -1 230 35 c 1,20,21
 327 99 327 99 327 129 c 0,22,23
 327 153 327 153 276 153 c 2,24,-1
 270 153 l 1,25,26
 233 144 233 144 214 144 c 2,27,-1
 195 144 l 2,28,29
 93 144 93 144 30 249 c 0,30,31
 11 288 11 288 10 323 c 2,32,-1
 10 350 l 2,33,34
 10 427 10 427 90 496 c 1,35,36
 147 530 147 530 190 530 c 2,0,-1
60 335 m 0,37,38
 60 243 60 243 157 201 c 0,39,40
 178 193 178 193 205 193 c 0,41,42
 291 193 291 193 336 279 c 0,43,44
 348 307 348 307 348 338 c 0,45,46
 348 430 348 430 251 471 c 0,47,48
 229 481 229 481 203 481 c 0,49,50
 119 481 119 481 72 394 c 1,51,52
 60 363 60 363 60 335 c 0,37,38
EndSplineSet
EndChar

StartChar: uni0C79
Encoding: 3193 3193 198
Width: 180
GlyphClass: 2
Flags: W
LayerCount: 2
Back
Fore
SplineSet
76 528 m 2,0,-1
 86 528 l 2,1,2
 106 528 106 528 106 510 c 2,3,-1
 106 14 l 2,4,5
 106 -6 106 -6 86 -6 c 2,6,-1
 76 -6 l 2,7,8
 57 -6 57 -6 57 14 c 2,9,-1
 57 510 l 2,10,11
 57 528 57 528 76 528 c 2,0,-1
EndSplineSet
EndChar

StartChar: uni0C7A
Encoding: 3194 3194 199
Width: 337
GlyphClass: 2
Flags: W
LayerCount: 2
Back
Fore
SplineSet
54 528 m 2,0,1
 75 528 75 528 75 502 c 1,2,3
 59 468 59 468 59 417 c 0,4,5
 59 300 59 300 145 271 c 0,6,7
 157 267 157 267 173 267 c 0,8,9
 228 267 228 267 250 326 c 1,10,-1
 250 510 l 2,11,12
 250 528 250 528 270 528 c 2,13,-1
 280 528 l 2,14,15
 299 528 299 528 299 510 c 2,16,-1
 299 14 l 2,17,18
 299 -6 299 -6 280 -6 c 2,19,-1
 270 -6 l 2,20,21
 250 -6 250 -6 250 14 c 2,22,-1
 250 237 l 1,23,24
 225 215 225 215 192 212 c 2,25,-1
 165 212 l 2,26,27
 96 212 96 212 44 278 c 1,28,29
 10 333 10 333 10 396 c 2,30,-1
 10 430 l 1,31,32
 18 526 18 526 45 528 c 2,33,-1
 54 528 l 2,0,1
EndSplineSet
EndChar

StartChar: uni0C7B
Encoding: 3195 3195 200
Width: 615
GlyphClass: 2
Flags: W
LayerCount: 2
Back
Fore
SplineSet
291 294 m 1,0,1
 267 240 267 240 225 221 c 0,2,3
 200 212 200 212 192 212 c 2,4,-1
 165 212 l 2,5,6
 96 212 96 212 44 278 c 1,7,8
 10 333 10 333 10 396 c 2,9,-1
 10 430 l 1,10,11
 18 526 18 526 45 528 c 2,12,-1
 54 528 l 2,13,14
 75 528 75 528 75 502 c 1,15,16
 59 468 59 468 59 417 c 0,17,18
 59 300 59 300 145 271 c 0,19,20
 157 267 157 267 173 267 c 0,21,22
 240 267 240 267 260 363 c 0,23,24
 263 382 263 382 263 396 c 2,25,-1
 263 408 l 1,26,27
 271 491 271 491 284 517 c 1,28,29
 285 528 285 528 302 528 c 2,30,-1
 310 528 l 2,31,32
 328 528 328 528 331 505 c 1,33,34
 315 466 315 466 315 417 c 0,35,36
 315 305 315 305 395 272 c 0,37,38
 411 267 411 267 424 267 c 2,39,-1
 427 267 l 2,40,41
 502 267 502 267 525 369 c 1,42,43
 526 416 526 416 530 430 c 1,44,-1
 530 510 l 2,45,46
 530 528 530 528 548 528 c 2,47,-1
 560 528 l 2,48,49
 578 528 578 528 578 510 c 2,50,-1
 578 14 l 2,51,52
 578 -6 578 -6 560 -6 c 2,53,-1
 548 -6 l 2,54,55
 530 -6 530 -6 530 14 c 2,56,-1
 530 256 l 1,57,58
 489 212 489 212 449 212 c 2,59,-1
 423 212 l 2,60,61
 353 212 353 212 300 278 c 0,62,63
 294 287 294 287 291 294 c 1,0,1
EndSplineSet
EndChar

StartChar: uni0C7C
Encoding: 3196 3196 201
Width: 584
GlyphClass: 2
Flags: W
LayerCount: 2
Back
Fore
SplineSet
21 284 m 1,0,-1
 535 284 l 1,1,2
 546 280 546 280 546 267 c 2,3,-1
 546 257 l 2,4,5
 546 244 546 244 529 237 c 1,6,-1
 27 237 l 1,7,8
 10 244 10 244 10 257 c 2,9,-1
 10 267 l 2,10,11
 10 280 10 280 21 284 c 1,0,-1
EndSplineSet
EndChar

StartChar: uni0C7D
Encoding: 3197 3197 202
Width: 599
GlyphClass: 2
Flags: W
LayerCount: 2
Back
Fore
SplineSet
143 436 m 2,0,-1
 168 436 l 2,1,2
 257 436 257 436 323 407 c 1,3,4
 368 371 368 371 368 333 c 2,5,-1
 368 332 l 2,6,7
 368 249 368 249 198 213 c 1,8,9
 62 177 62 177 62 111 c 0,10,11
 62 82 62 82 104 60 c 1,12,13
 156 46 156 46 242 46 c 0,14,15
 350 46 350 46 522 62 c 0,16,17
 562 62 562 62 562 31 c 0,18,19
 562 16 562 16 543 6 c 1,20,21
 251 -3 251 -3 164 -3 c 0,22,23
 52 1 52 1 19 68 c 0,24,25
 10 93 10 93 10 111 c 0,26,27
 10 210 10 210 121 246 c 0,28,29
 153 260 153 260 246 275 c 1,30,31
 315 300 315 300 315 333 c 0,32,33
 315 367 315 367 255 379 c 0,34,35
 206 386 206 386 149 386 c 0,36,37
 96 386 96 386 34 381 c 1,38,39
 20 394 20 394 20 405 c 0,40,41
 20 433 20 433 84 433 c 0,42,43
 95 436 95 436 143 436 c 2,0,-1
EndSplineSet
EndChar

StartChar: uni0C7E
Encoding: 3198 3198 203
Width: 639
GlyphClass: 2
Flags: W
LayerCount: 2
Back
Fore
SplineSet
36 445 m 1,0,1
 259 442 259 442 259 423 c 1,2,3
 287 407 287 407 287 373 c 2,4,-1
 287 369 l 2,5,6
 287 313 287 313 134 303 c 1,7,8
 62 288 62 288 62 267 c 0,9,10
 62 256 62 256 145 256 c 2,11,-1
 170 256 l 2,12,13
 172 256 172 256 177 258 c 0,14,15
 181 256 181 256 183 256 c 2,16,-1
 187 256 l 2,17,18
 273 256 273 256 298 211 c 0,19,20
 302 198 302 198 302 193 c 2,21,-1
 302 188 l 2,22,23
 302 138 302 138 207 116 c 1,24,25
 63 99 63 99 63 63 c 2,26,-1
 63 61 l 2,27,28
 63 46 63 46 89 43 c 0,29,30
 136 37 136 37 205 35 c 0,31,32
 508 41 508 41 576 44 c 1,33,34
 602 37 602 37 602 20 c 2,35,-1
 602 18 l 2,36,37
 602 9 602 9 588 -6 c 1,38,39
 419 -9 419 -9 296 -9 c 0,40,41
 42 -9 42 -9 42 9 c 1,42,43
 10 24 10 24 10 63 c 2,44,-1
 10 68 l 2,45,46
 10 126 10 126 115 151 c 1,47,48
 250 165 250 165 250 189 c 0,49,50
 250 204 250 204 186 210 c 1,51,-1
 177 210 l 2,52,53
 170 210 170 210 170 212 c 2,54,-1
 170 210 l 1,55,-1
 154 210 l 2,56,57
 16 210 16 210 16 264 c 2,58,-1
 16 271 l 2,59,60
 16 325 16 325 90 340 c 1,61,62
 238 355 238 355 238 379 c 0,63,64
 238 399 238 399 86 399 c 2,65,-1
 59 399 l 2,66,67
 24 399 24 399 13 423 c 1,68,69
 16 433 16 433 36 445 c 1,0,1
EndSplineSet
EndChar

StartChar: uni0C7F
Encoding: 3199 3199 204
Width: 637
GlyphClass: 2
Flags: W
LayerCount: 2
Back
Fore
SplineSet
85 282 m 0,0,1
 85 248 85 248 134 238 c 1,2,3
 185 247 185 247 185 282 c 0,4,5
 185 316 185 316 136 325 c 1,6,7
 85 317 85 317 85 282 c 0,0,1
134 371 m 2,8,-1
 141 371 l 2,9,10
 196 371 196 371 225 304 c 0,11,12
 228 287 228 287 228 279 c 0,13,14
 228 249 228 249 204 222 c 0,15,16
 175 194 175 194 148 194 c 2,17,-1
 132 194 l 2,18,19
 85 194 85 194 58 230 c 1,20,-1
 58 193 l 2,21,22
 59 108 59 108 171 63 c 1,23,24
 234 48 234 48 287 48 c 2,25,-1
 296 48 l 2,26,27
 453 48 453 48 559 193 c 0,28,29
 562 193 562 193 572 194 c 1,30,31
 599 182 599 182 599 168 c 2,32,-1
 599 162 l 1,33,34
 566 82 566 82 447 27 c 0,35,36
 367 -6 367 -6 280 -6 c 0,37,38
 111 -6 111 -6 35 112 c 1,39,40
 10 159 10 159 10 205 c 0,41,42
 16 275 16 275 51 328 c 0,43,44
 70 355 70 355 112 366 c 0,45,46
 120 371 120 371 134 371 c 2,8,-1
EndSplineSet
EndChar

StartChar: KshNnaAI
Encoding: 8204 8204 205
Width: 235
GlyphClass: 2
Flags: W
LayerCount: 2
Back
Fore
SplineSet
177 -11 m 1,0,-1
 177 668 l 1,1,-1
 238 668 l 1,2,-1
 238 -11 l 1,3,-1
 177 -11 l 1,0,-1
EndSplineSet
EndChar

StartChar: afii301
Encoding: 8205 8205 206
Width: 745
GlyphClass: 2
Flags: W
LayerCount: 2
Back
Fore
SplineSet
689 398 m 1,0,-1
 748 447 l 1,1,-1
 507 661 l 1,2,-1
 737 888 l 1,3,-1
 685 942 l 1,4,-1
 454 717 l 1,5,-1
 227 933 l 1,6,-1
 169 881 l 1,7,-1
 395 666 l 1,8,-1
 162 457 l 1,9,-1
 211 397 l 1,10,-1
 415 576 l 1,11,-1
 415 -11 l 1,12,-1
 488 -11 l 1,13,-1
 488 576 l 1,14,-1
 689 398 l 1,0,-1
EndSplineSet
EndChar

StartChar: uni2018
Encoding: 8216 8216 207
Width: 320
GlyphClass: 2
Flags: W
LayerCount: 2
Back
Fore
SplineSet
246 554 m 1,0,1
 246 519 246 519 227 498 c 0,2,3
 205 475 205 475 168 475 c 0,4,5
 124 475 124 475 98 505 c 0,6,7
 75 532 75 532 75 572 c 0,8,9
 75 631 75 631 104 674 c 0,10,11
 139 724 139 724 204 736 c 1,12,-1
 219 707 l 1,13,14
 180 698 180 698 152 667 c 0,15,16
 127 637 127 637 127 607 c 1,17,18
 136 614 136 614 151 620 c 0,19,20
 166 625 166 625 181 625 c 0,21,22
 208 625 208 625 228 604 c 0,23,24
 246 583 246 583 246 554 c 1,25,-1
 246 554 l 1,0,1
EndSplineSet
EndChar

StartChar: uni2019
Encoding: 8217 8217 208
Width: 320
GlyphClass: 2
Flags: W
LayerCount: 2
Back
Fore
SplineSet
75 657 m 1,0,1
 75 692 75 692 95 713 c 0,2,3
 116 736 116 736 154 736 c 0,4,5
 198 736 198 736 224 705 c 0,6,7
 246 678 246 678 246 639 c 0,8,9
 246 579 246 579 218 537 c 0,10,11
 183 487 183 487 117 475 c 1,12,-1
 102 504 l 1,13,14
 142 513 142 513 169 543 c 0,15,16
 195 573 195 573 195 604 c 1,17,18
 186 596 186 596 171 590 c 0,19,20
 155 586 155 586 140 586 c 0,21,22
 113 586 113 586 93 607 c 0,23,24
 75 628 75 628 75 657 c 1,25,-1
 75 657 l 1,0,1
EndSplineSet
EndChar

StartChar: uni201C
Encoding: 8220 8220 209
Width: 497
GlyphClass: 2
Flags: W
LayerCount: 2
Back
Fore
SplineSet
196 470 m 1,0,1
 196 452 196 452 178 438 c 0,2,3
 161 425 161 425 136 425 c 0,4,5
 110 425 110 425 93 457 c 0,6,7
 75 487 75 487 75 531 c 0,8,9
 75 581 75 581 99 630 c 0,10,11
 122 677 122 677 166 713 c 1,12,-1
 196 698 l 1,13,14
 174 672 174 672 163 636 c 0,15,16
 151 601 151 601 151 561 c 0,17,18
 151 543 151 543 174 516 c 0,19,20
 196 488 196 488 196 470 c 1,21,-1
 196 470 l 1,0,1
424 470 m 1,22,23
 424 452 424 452 406 438 c 0,24,25
 389 425 389 425 363 425 c 256,26,27
 337 425 337 425 321 457 c 0,28,29
 303 487 303 487 303 531 c 0,30,31
 303 581 303 581 327 630 c 0,32,33
 350 677 350 677 394 713 c 1,34,-1
 424 698 l 1,35,36
 401 672 401 672 391 636 c 0,37,38
 378 601 378 601 378 561 c 0,39,40
 378 543 378 543 401 516 c 0,41,42
 424 488 424 488 424 470 c 1,43,-1
 424 470 l 1,22,23
EndSplineSet
EndChar

StartChar: uni201D
Encoding: 8221 8221 210
Width: 497
GlyphClass: 2
Flags: W
LayerCount: 2
Back
Fore
SplineSet
75 592 m 1,0,1
 75 610 75 610 93 623 c 0,2,3
 110 637 110 637 136 637 c 0,4,5
 161 637 161 637 178 605 c 0,6,7
 196 575 196 575 196 531 c 0,8,9
 196 481 196 481 172 432 c 0,10,11
 149 385 149 385 105 349 c 1,12,-1
 75 364 l 1,13,14
 98 390 98 390 108 426 c 0,15,16
 121 461 121 461 121 501 c 0,17,18
 121 519 121 519 98 546 c 256,19,20
 75 573 75 573 75 592 c 1,21,-1
 75 592 l 1,0,1
303 592 m 1,22,23
 303 610 303 610 321 623 c 0,24,25
 337 637 337 637 363 637 c 256,26,27
 389 637 389 637 406 605 c 0,28,29
 424 575 424 575 424 531 c 0,30,31
 424 481 424 481 400 432 c 0,32,33
 377 385 377 385 333 349 c 1,34,-1
 303 364 l 1,35,36
 325 390 325 390 336 426 c 0,37,38
 348 461 348 461 348 501 c 0,39,40
 348 519 348 519 325 546 c 0,41,42
 303 573 303 573 303 592 c 1,43,-1
 303 592 l 1,22,23
EndSplineSet
EndChar

StartChar: uni20B9
Encoding: 8377 8377 212
Width: 693
GlyphClass: 2
Flags: W
LayerCount: 2
Back
Fore
SplineSet
479 2 m 1,0,-1
 100 259 l 1,1,-1
 90 268 l 2,2,3
 80 277 80 277 80 280 c 0,4,5
 80 293 80 293 91 302 c 0,6,7
 103 311 103 311 118 311 c 0,8,9
 123 311 123 311 132 305 c 0,10,11
 146 297 146 297 157 291 c 0,12,13
 219 261 219 261 266 261 c 0,14,15
 329 261 329 261 374 299 c 0,16,17
 418 337 418 337 418 391 c 1,18,-1
 91 391 l 2,19,20
 74 391 74 391 62 398 c 0,21,22
 50 404 50 404 50 413 c 0,23,24
 50 420 50 420 62 425 c 0,25,26
 74 429 74 429 91 429 c 2,27,-1
 418 429 l 1,28,29
 408 463 408 463 379 495 c 0,30,31
 351 527 351 527 309 553 c 1,32,-1
 83 553 l 2,33,34
 71 553 71 553 62 559 c 256,35,36
 53 565 53 565 53 574 c 256,37,38
 53 583 53 583 62 591 c 0,39,40
 71 597 71 597 83 597 c 2,41,-1
 634 597 l 2,42,43
 644 597 644 597 651 591 c 0,44,45
 657 583 657 583 657 574 c 256,46,47
 657 565 657 565 651 559 c 0,48,49
 644 553 644 553 634 553 c 2,50,-1
 402 553 l 1,51,52
 430 531 430 531 452 499 c 0,53,54
 473 469 473 469 484 429 c 1,55,-1
 625 429 l 2,56,57
 639 429 639 429 648 425 c 0,58,59
 657 420 657 420 657 413 c 0,60,61
 657 404 657 404 648 398 c 0,62,63
 639 391 639 391 625 391 c 2,64,-1
 484 391 l 1,65,66
 484 314 484 314 424 259 c 0,67,68
 367 204 367 204 283 204 c 1,69,-1
 488 69 l 2,70,71
 505 58 505 58 514 49 c 0,72,73
 523 38 523 38 523 31 c 0,74,75
 523 14 523 14 510 5 c 0,76,77
 496 -4 496 -4 479 2 c 1,78,-1
 479 2 l 1,0,-1
EndSplineSet
EndChar

StartChar: Ksha
Encoding: 65539 -1 218
Width: 576
GlyphClass: 3
Flags: W
AnchorPoint: "Anchor-0" 0 0 basechar 0
LayerCount: 2
Back
Fore
SplineSet
261 0 m 1,0,1
 154 0 154 0 90 40 c 0,2,3
 25 80 25 80 25 146 c 1,4,-1
 85 146 l 1,5,6
 85 111 85 111 136 86 c 0,7,8
 189 61 189 61 261 61 c 0,9,10
 335 61 335 61 380 85 c 0,11,12
 425 108 425 108 425 146 c 0,13,14
 425 171 425 171 400 189 c 0,15,16
 375 206 375 206 340 206 c 2,17,-1
 189 206 l 2,18,19
 136 206 136 206 99 235 c 0,20,21
 61 264 61 264 61 304 c 0,22,23
 61 335 61 335 88 364 c 0,24,25
 114 393 114 393 156 408 c 1,26,27
 146 421 146 421 146 438 c 2,28,-1
 146 498 l 1,29,-1
 208 498 l 1,30,-1
 208 444 l 2,31,32
 208 438 208 438 216 433 c 0,33,34
 225 428 225 428 238 425 c 2,35,-1
 293 425 l 1,36,-1
 293 498 l 2,37,38
 293 523 293 523 310 541 c 0,39,40
 328 559 328 559 353 559 c 2,41,-1
 535 559 l 1,42,-1
 535 498 l 1,43,-1
 378 498 l 2,44,45
 368 498 368 498 360 490 c 0,46,47
 353 484 353 484 353 474 c 2,48,-1
 353 410 l 1,49,50
 396 394 396 394 424 365 c 0,51,52
 450 335 450 335 450 304 c 1,53,-1
 389 304 l 1,54,55
 384 330 384 330 348 346 c 0,56,57
 313 364 313 364 261 364 c 0,58,59
 204 364 204 364 163 348 c 0,60,61
 121 333 121 333 121 310 c 0,62,63
 121 293 121 293 143 280 c 0,64,65
 165 268 165 268 195 268 c 2,66,-1
 346 268 l 2,67,68
 410 268 410 268 448 235 c 0,69,70
 486 201 486 201 486 146 c 0,71,72
 486 76 486 76 428 39 c 0,73,74
 368 0 368 0 261 0 c 1,75,-1
 261 0 l 1,0,1
140 -206 m 1,76,77
 83 -206 83 -206 41 -169 c 0,78,79
 0 -131 0 -131 0 -79 c 0,80,81
 0 -59 0 -59 8 -39 c 0,82,83
 16 -17 16 -17 31 0 c 1,84,-1
 104 0 l 1,85,86
 84 -15 84 -15 73 -35 c 0,87,88
 61 -56 61 -56 61 -79 c 0,89,90
 61 -106 61 -106 86 -126 c 256,91,92
 111 -146 111 -146 146 -146 c 256,93,94
 181 -146 181 -146 206 -121 c 256,95,96
 231 -96 231 -96 231 -61 c 2,97,-1
 231 -36 l 1,98,-1
 291 -36 l 1,99,-1
 291 -61 l 2,100,101
 291 -96 291 -96 320 -121 c 256,102,103
 349 -146 349 -146 389 -146 c 0,104,105
 421 -146 421 -146 445 -126 c 0,106,107
 468 -106 468 -106 468 -79 c 0,108,109
 468 -56 468 -56 460 -35 c 0,110,111
 453 -15 453 -15 438 0 c 1,112,-1
 504 0 l 1,113,114
 516 -11 516 -11 523 -30 c 0,115,116
 529 -49 529 -49 529 -72 c 0,117,118
 529 -96 529 -96 525 -114 c 0,119,120
 523 -131 523 -131 516 -140 c 0,121,122
 499 -166 499 -166 499 -189 c 0,123,124
 499 -211 499 -211 516 -226 c 0,125,126
 534 -242 534 -242 559 -242 c 1,127,-1
 559 -310 l 1,128,129
 515 -310 515 -310 480 -279 c 0,130,131
 446 -247 446 -247 438 -200 c 1,132,133
 420 -206 420 -206 395 -206 c 0,134,135
 351 -206 351 -206 316 -190 c 0,136,137
 280 -175 280 -175 261 -146 c 1,138,139
 243 -175 243 -175 210 -190 c 0,140,141
 178 -206 178 -206 140 -206 c 1,142,-1
 140 -206 l 1,76,77
EndSplineSet
Ligature2: "'akhn' Akhand in Telugu lookup 1 subtable" Ka SSa Halanth
EndChar

StartChar: Kaottu
Encoding: 65540 -1 219
Width: 357
GlyphClass: 4
Flags: W
LayerCount: 2
Back
Fore
SplineSet
140 -195 m 1,0,1
 84 -195 84 -195 41 -157 c 0,2,3
 0 -119 0 -119 0 -66 c 0,4,5
 0 -32 0 -32 19 4 c 0,6,7
 38 41 38 41 73 75 c 0,8,9
 101 104 101 104 118 130 c 0,10,11
 134 155 134 155 134 176 c 0,12,13
 134 189 134 189 125 198 c 0,14,15
 117 207 117 207 105 207 c 0,16,17
 92 207 92 207 83 198 c 0,18,19
 75 189 75 189 75 176 c 2,20,-1
 75 164 l 1,21,-1
 24 164 l 1,22,-1
 24 176 l 2,23,24
 24 210 24 210 48 234 c 0,25,26
 71 257 71 257 105 257 c 0,27,28
 137 257 137 257 162 234 c 0,29,30
 185 210 185 210 185 176 c 0,31,32
 185 149 185 149 167 115 c 0,33,34
 150 82 150 82 117 48 c 0,35,36
 88 18 88 18 72 -9 c 0,37,38
 57 -37 57 -37 57 -60 c 0,39,40
 57 -95 57 -95 82 -119 c 0,41,42
 106 -144 106 -144 141 -144 c 0,43,44
 179 -144 179 -144 205 -123 c 256,45,46
 231 -102 231 -102 231 -72 c 256,47,48
 231 -42 231 -42 210 -21 c 256,49,50
 189 0 189 0 158 0 c 1,51,-1
 158 50 l 1,52,-1
 330 50 l 1,53,-1
 330 0 l 1,54,-1
 253 0 l 1,55,56
 266 -11 266 -11 273 -31 c 0,57,58
 281 -51 281 -51 281 -72 c 0,59,60
 281 -122 281 -122 240 -160 c 0,61,62
 199 -195 199 -195 140 -195 c 1,63,-1
 140 -195 l 1,0,1
EndSplineSet
Ligature2: "'blwf' Below Base Forms in Telugu lookup 2 subtable" Ka Halanth
EndChar

StartChar: KhaOttu
Encoding: 65541 -1 220
Width: 27
GlyphClass: 4
Flags: W
AnchorPoint: "Anchor-0" -30 9 mark 0
LayerCount: 2
Back
Fore
SplineSet
158 -277 m 1,0,1
 125 -277 125 -277 102 -254 c 0,2,3
 79 -230 79 -230 79 -198 c 0,4,5
 79 -165 79 -165 105 -142 c 0,6,7
 133 -119 133 -119 170 -119 c 0,8,9
 178 -119 178 -119 187 -122 c 0,10,11
 194 -125 194 -125 200 -130 c 1,12,13
 197 -110 197 -110 184 -97 c 0,14,15
 173 -83 173 -83 158 -83 c 0,16,17
 145 -83 145 -83 137 -90 c 0,18,19
 128 -97 128 -97 128 -107 c 1,20,-1
 79 -107 l 1,21,-1
 79 -88 l 2,22,23
 79 -65 79 -65 102 -50 c 0,24,25
 125 -34 125 -34 158 -34 c 0,26,27
 200 -34 200 -34 232 -72 c 0,28,29
 262 -109 262 -109 262 -162 c 0,30,31
 264 -190 264 -190 282 -209 c 0,32,33
 299 -228 299 -228 322 -228 c 0,34,35
 347 -228 347 -228 365 -207 c 0,36,37
 383 -185 383 -185 383 -155 c 256,38,39
 383 -125 383 -125 363 -104 c 256,40,41
 343 -83 343 -83 315 -83 c 2,42,-1
 298 -83 l 1,43,-1
 298 -34 l 1,44,-1
 322 -34 l 2,45,46
 370 -34 370 -34 404 -72 c 0,47,48
 438 -109 438 -109 438 -162 c 0,49,50
 438 -209 438 -209 405 -243 c 0,51,52
 373 -277 373 -277 328 -277 c 0,53,54
 302 -277 302 -277 280 -267 c 0,55,56
 259 -257 259 -257 249 -240 c 1,57,58
 238 -258 238 -258 213 -267 c 0,59,60
 189 -277 189 -277 158 -277 c 1,61,-1
 158 -277 l 1,0,1
164 -234 m 1,62,63
 179 -234 179 -234 190 -225 c 0,64,65
 200 -217 200 -217 200 -204 c 0,66,67
 200 -189 200 -189 190 -178 c 0,68,69
 179 -168 179 -168 164 -168 c 256,70,71
 149 -168 149 -168 138 -178 c 0,72,73
 128 -189 128 -189 128 -204 c 0,74,75
 128 -217 128 -217 138 -225 c 0,76,77
 149 -234 149 -234 164 -234 c 1,78,-1
 164 -234 l 1,62,63
225 -362 m 1,79,-1
 225 -289 l 1,80,-1
 273 -289 l 1,81,-1
 273 -362 l 1,82,-1
 225 -362 l 1,83,-1
 225 -362 l 1,79,-1
EndSplineSet
Ligature2: "'blwf' Below Base Forms in Telugu lookup 2 subtable" Kha Halanth
EndChar

StartChar: GaOttu
Encoding: 65542 -1 221
Width: 27
GlyphClass: 4
Flags: W
AnchorPoint: "Anchor-0" -48 13 mark 0
LayerCount: 2
Back
Fore
SplineSet
357 -279 m 1,0,-1
 357 -228 l 1,1,2
 376 -223 376 -223 387 -205 c 0,3,4
 399 -188 399 -188 399 -164 c 0,5,6
 399 -132 399 -132 370 -109 c 0,7,8
 339 -87 339 -87 297 -87 c 0,9,10
 256 -87 256 -87 226 -109 c 0,11,12
 197 -132 197 -132 197 -164 c 0,13,14
 197 -188 197 -188 209 -206 c 0,15,16
 220 -224 220 -224 239 -228 c 1,17,-1
 239 -281 l 1,18,19
 199 -281 199 -281 170 -246 c 0,20,21
 144 -212 144 -212 144 -164 c 0,22,23
 144 -110 144 -110 189 -72 c 256,24,25
 234 -34 234 -34 297 -34 c 0,26,27
 362 -34 362 -34 406 -72 c 0,28,29
 452 -110 452 -110 452 -164 c 0,30,31
 452 -212 452 -212 426 -246 c 0,32,33
 397 -281 397 -281 357 -281 c 1,34,-1
 357 -279 l 1,0,-1
EndSplineSet
Ligature2: "'blwf' Below Base Forms in Telugu lookup 2 subtable" Ga Halanth
EndChar

StartChar: GhaOttu
Encoding: 65543 -1 222
Width: 27
GlyphClass: 4
Flags: W
AnchorPoint: "Anchor-0" -5 18 mark 0
LayerCount: 2
Back
Fore
SplineSet
163 -281 m 1,0,1
 129 -281 129 -281 104 -257 c 0,2,3
 78 -233 78 -233 78 -200 c 0,4,5
 78 -166 78 -166 102 -143 c 0,6,7
 125 -119 125 -119 159 -119 c 0,8,9
 197 -119 197 -119 225 -145 c 0,10,11
 252 -170 252 -170 252 -205 c 1,12,13
 261 -215 261 -215 276 -222 c 0,14,15
 291 -228 291 -228 311 -228 c 0,16,17
 338 -228 338 -228 360 -206 c 256,18,19
 382 -184 382 -184 382 -157 c 0,20,21
 382 -131 382 -131 362 -108 c 0,22,23
 340 -87 340 -87 316 -87 c 2,24,-1
 284 -87 l 1,25,-1
 284 -34 l 1,26,-1
 311 -34 l 2,27,28
 362 -34 362 -34 399 -69 c 0,29,30
 435 -103 435 -103 435 -151 c 0,31,32
 435 -179 435 -179 422 -206 c 1,33,34
 432 -215 432 -215 452 -222 c 0,35,36
 470 -228 470 -228 493 -228 c 0,37,38
 514 -228 514 -228 534 -208 c 0,39,40
 552 -188 552 -188 552 -164 c 0,41,42
 552 -136 552 -136 531 -111 c 0,43,44
 510 -87 510 -87 486 -87 c 2,45,-1
 454 -87 l 1,46,-1
 454 -34 l 1,47,-1
 486 -34 l 2,48,49
 536 -34 536 -34 570 -73 c 0,50,51
 605 -110 605 -110 605 -164 c 0,52,53
 605 -212 605 -212 570 -246 c 0,54,55
 536 -281 536 -281 486 -281 c 0,56,57
 464 -281 464 -281 439 -272 c 0,58,59
 417 -262 417 -262 396 -245 c 1,60,61
 382 -262 382 -262 357 -271 c 0,62,63
 331 -281 331 -281 299 -281 c 0,64,65
 278 -281 278 -281 258 -274 c 0,66,67
 239 -268 239 -268 226 -258 c 1,68,69
 216 -268 216 -268 200 -274 c 0,70,71
 184 -281 184 -281 163 -281 c 1,72,-1
 163 -281 l 1,0,1
163 -228 m 1,73,74
 179 -228 179 -228 190 -219 c 0,75,76
 199 -211 199 -211 199 -200 c 0,77,78
 199 -188 199 -188 190 -181 c 0,79,80
 179 -172 179 -172 165 -172 c 256,81,82
 151 -172 151 -172 140 -181 c 0,83,84
 131 -188 131 -188 131 -200 c 0,85,86
 131 -211 131 -211 140 -219 c 0,87,88
 151 -228 151 -228 163 -228 c 1,89,-1
 163 -228 l 1,73,74
212 -364 m 1,90,-1
 212 -289 l 1,91,-1
 265 -289 l 1,92,-1
 265 -366 l 1,93,-1
 212 -366 l 1,94,-1
 212 -364 l 1,90,-1
EndSplineSet
Ligature2: "'blwf' Below Base Forms in Telugu lookup 2 subtable" Gha Halanth
EndChar

StartChar: NgaOttu
Encoding: 65544 -1 223
Width: 27
GlyphClass: 4
Flags: W
AnchorPoint: "Anchor-0" -20 10 mark 0
LayerCount: 2
Back
Fore
SplineSet
170 -289 m 1,0,1
 133 -289 133 -289 105 -265 c 0,2,3
 79 -242 79 -242 79 -209 c 0,4,5
 79 -184 79 -184 97 -164 c 0,6,7
 113 -142 113 -142 140 -136 c 0,8,9
 157 -132 157 -132 167 -126 c 0,10,11
 177 -119 177 -119 177 -112 c 256,12,13
 177 -105 177 -105 172 -99 c 0,14,15
 165 -94 165 -94 158 -94 c 0,16,17
 145 -94 145 -94 137 -101 c 0,18,19
 128 -109 128 -109 128 -119 c 1,20,-1
 79 -119 l 1,21,-1
 79 -106 l 2,22,23
 79 -79 79 -79 102 -59 c 256,24,25
 125 -39 125 -39 158 -39 c 0,26,27
 182 -39 182 -39 200 -50 c 0,28,29
 218 -62 218 -62 225 -81 c 1,30,-1
 273 -81 l 1,31,-1
 273 -34 l 1,32,-1
 322 -34 l 1,33,-1
 322 -81 l 1,34,-1
 395 -81 l 1,35,-1
 395 -130 l 1,36,-1
 225 -130 l 1,37,38
 218 -146 218 -146 203 -157 c 0,39,40
 189 -169 189 -169 170 -172 c 0,41,42
 154 -175 154 -175 144 -185 c 0,43,44
 134 -196 134 -196 134 -209 c 0,45,46
 134 -221 134 -221 147 -231 c 0,47,48
 159 -240 159 -240 177 -240 c 0,49,50
 197 -240 197 -240 212 -226 c 0,51,52
 225 -211 225 -211 225 -191 c 2,53,-1
 225 -179 l 1,54,-1
 273 -179 l 1,55,-1
 273 -191 l 2,56,57
 273 -211 273 -211 285 -226 c 0,58,59
 298 -240 298 -240 315 -240 c 0,60,61
 333 -240 333 -240 345 -230 c 0,62,63
 358 -219 358 -219 358 -204 c 0,64,65
 358 -191 358 -191 355 -181 c 256,66,67
 352 -171 352 -171 347 -166 c 1,68,-1
 407 -166 l 1,69,70
 413 -172 413 -172 415 -182 c 0,71,72
 419 -194 419 -194 419 -209 c 0,73,74
 419 -242 419 -242 394 -265 c 0,75,76
 369 -289 369 -289 334 -289 c 0,77,78
 304 -289 304 -289 282 -280 c 0,79,80
 259 -272 259 -272 249 -257 c 1,81,82
 239 -272 239 -272 218 -280 c 0,83,84
 198 -289 198 -289 170 -289 c 1,85,-1
 170 -289 l 1,0,1
EndSplineSet
Ligature2: "'blwf' Below Base Forms in Telugu lookup 2 subtable" uni0C19 Halanth
EndChar

StartChar: CaOttu
Encoding: 65545 -1 224
Width: 223
GlyphClass: 4
Flags: W
LayerCount: 2
Back
Fore
SplineSet
-87 -296 m 1,0,1
 -126 -296 -126 -296 -154 -271 c 0,2,3
 -184 -245 -184 -245 -184 -209 c 0,4,5
 -184 -190 -184 -190 -178 -174 c 256,6,7
 -172 -158 -172 -158 -163 -149 c 1,8,-1
 -233 -149 l 1,9,-1
 -233 -97 l 1,10,-1
 -59 -97 l 1,11,-1
 -59 -149 l 1,12,13
 -90 -149 -90 -149 -111 -166 c 0,14,15
 -131 -181 -131 -181 -131 -202 c 0,16,17
 -131 -219 -131 -219 -119 -231 c 0,18,19
 -104 -243 -104 -243 -85 -243 c 256,20,21
 -66 -243 -66 -243 -52 -230 c 0,22,23
 -39 -215 -39 -215 -39 -196 c 2,24,-1
 -39 -182 l 1,25,-1
 14 -182 l 1,26,-1
 14 -196 l 2,27,28
 14 -215 14 -215 30 -229 c 0,29,30
 49 -243 49 -243 73 -243 c 0,31,32
 102 -243 102 -243 122 -211 c 0,33,34
 143 -179 143 -179 143 -135 c 0,35,36
 143 -71 143 -71 105 -25 c 0,37,38
 66 21 66 21 10 21 c 1,39,-1
 10 73 l 1,40,41
 88 73 88 73 141 12 c 0,42,43
 196 -49 196 -49 196 -135 c 0,44,45
 196 -202 196 -202 161 -248 c 0,46,47
 124 -296 124 -296 73 -296 c 0,48,49
 42 -296 42 -296 17 -286 c 0,50,51
 -7 -276 -7 -276 -12 -261 c 1,52,53
 -21 -276 -21 -276 -40 -286 c 0,54,55
 -61 -296 -61 -296 -87 -296 c 1,56,-1
 -87 -296 l 1,0,1
EndSplineSet
Ligature2: "'blwf' Below Base Forms in Telugu lookup 2 subtable" CaNukta Halanth
Ligature2: "'blwf' Below Base Forms in Telugu lookup 2 subtable" Ca Halanth
EndChar

StartChar: ChaOttu
Encoding: 65546 -1 225
Width: 223
GlyphClass: 4
Flags: W
LayerCount: 2
Back
Fore
SplineSet
-87 -296 m 1,0,1
 -126 -296 -126 -296 -154 -271 c 0,2,3
 -184 -245 -184 -245 -184 -209 c 0,4,5
 -184 -190 -184 -190 -178 -174 c 256,6,7
 -172 -158 -172 -158 -163 -149 c 1,8,-1
 -233 -149 l 1,9,-1
 -233 -97 l 1,10,-1
 -59 -97 l 1,11,-1
 -59 -149 l 1,12,13
 -90 -149 -90 -149 -111 -166 c 0,14,15
 -131 -181 -131 -181 -131 -202 c 0,16,17
 -131 -219 -131 -219 -119 -231 c 0,18,19
 -104 -243 -104 -243 -85 -243 c 256,20,21
 -66 -243 -66 -243 -52 -230 c 0,22,23
 -39 -215 -39 -215 -39 -196 c 2,24,-1
 -39 -182 l 1,25,-1
 14 -182 l 1,26,-1
 14 -196 l 2,27,28
 14 -215 14 -215 30 -229 c 0,29,30
 49 -243 49 -243 73 -243 c 0,31,32
 102 -243 102 -243 122 -211 c 0,33,34
 143 -179 143 -179 143 -135 c 0,35,36
 143 -71 143 -71 105 -25 c 0,37,38
 66 21 66 21 10 21 c 1,39,-1
 10 73 l 1,40,41
 88 73 88 73 141 12 c 0,42,43
 196 -49 196 -49 196 -135 c 0,44,45
 196 -202 196 -202 161 -248 c 0,46,47
 124 -296 124 -296 73 -296 c 0,48,49
 42 -296 42 -296 17 -286 c 0,50,51
 -7 -276 -7 -276 -12 -261 c 1,52,53
 -21 -276 -21 -276 -40 -286 c 0,54,55
 -61 -296 -61 -296 -87 -296 c 1,56,-1
 -87 -296 l 1,0,1
-39 -379 m 1,57,-1
 -39 -303 l 1,58,-1
 14 -303 l 1,59,-1
 14 -381 l 1,60,-1
 -39 -381 l 1,61,-1
 -39 -379 l 1,57,-1
EndSplineSet
Ligature2: "'blwf' Below Base Forms in Telugu lookup 2 subtable" Cha Halanth
EndChar

StartChar: JaOttu
Encoding: 65547 -1 226
Width: 27
GlyphClass: 4
Flags: W
AnchorPoint: "Anchor-0" -42 46 mark 0
LayerCount: 2
Back
Fore
SplineSet
170 -285 m 1,0,1
 133 -285 133 -285 105 -262 c 0,2,3
 79 -238 79 -238 79 -206 c 0,4,5
 79 -181 79 -181 98 -160 c 0,6,7
 117 -140 117 -140 145 -132 c 0,8,9
 159 -128 159 -128 168 -122 c 256,10,11
 177 -116 177 -116 177 -108 c 0,12,13
 177 -101 177 -101 172 -95 c 0,14,15
 165 -90 165 -90 158 -90 c 0,16,17
 145 -90 145 -90 137 -97 c 0,18,19
 128 -105 128 -105 128 -115 c 1,20,-1
 79 -115 l 1,21,-1
 79 -102 l 2,22,23
 79 -75 79 -75 104 -56 c 0,24,25
 129 -36 129 -36 164 -36 c 0,26,27
 187 -36 187 -36 205 -47 c 0,28,29
 223 -60 223 -60 230 -78 c 1,30,31
 240 -90 240 -90 254 -96 c 0,32,33
 269 -102 269 -102 285 -102 c 0,34,35
 308 -102 308 -102 324 -92 c 0,36,37
 340 -81 340 -81 340 -66 c 0,38,39
 340 -57 340 -57 339 -51 c 0,40,41
 337 -45 337 -45 334 -41 c 1,42,-1
 389 -41 l 1,43,44
 395 -58 395 -58 395 -72 c 0,45,46
 395 -105 395 -105 369 -128 c 0,47,48
 342 -151 342 -151 304 -151 c 0,49,50
 277 -151 277 -151 257 -145 c 0,51,52
 235 -138 235 -138 225 -126 c 1,53,54
 218 -142 218 -142 203 -153 c 0,55,56
 189 -165 189 -165 170 -168 c 0,57,58
 154 -171 154 -171 144 -182 c 0,59,60
 134 -192 134 -192 134 -206 c 0,61,62
 134 -218 134 -218 147 -227 c 0,63,64
 159 -236 159 -236 177 -236 c 0,65,66
 197 -236 197 -236 212 -222 c 0,67,68
 225 -207 225 -207 225 -187 c 2,69,-1
 225 -175 l 1,70,-1
 273 -175 l 1,71,-1
 273 -187 l 2,72,73
 273 -207 273 -207 287 -222 c 0,74,75
 302 -236 302 -236 322 -236 c 0,76,77
 339 -236 339 -236 352 -226 c 0,78,79
 364 -215 364 -215 364 -200 c 0,80,81
 364 -188 364 -188 362 -180 c 0,82,83
 358 -170 358 -170 353 -163 c 1,84,-1
 407 -163 l 1,85,86
 413 -170 413 -170 415 -180 c 0,87,88
 419 -191 419 -191 419 -206 c 0,89,90
 419 -238 419 -238 394 -262 c 0,91,92
 369 -285 369 -285 334 -285 c 0,93,94
 303 -285 303 -285 279 -275 c 0,95,96
 257 -265 257 -265 249 -248 c 1,97,98
 242 -265 242 -265 220 -275 c 0,99,100
 199 -285 199 -285 170 -285 c 1,101,-1
 170 -285 l 1,0,1
EndSplineSet
Ligature2: "'blwf' Below Base Forms in Telugu lookup 2 subtable" JaNukta Halanth
Ligature2: "'blwf' Below Base Forms in Telugu lookup 2 subtable" Ja Halanth
EndChar

StartChar: JhaOttu
Encoding: 65548 -1 227
Width: 27
GlyphClass: 4
Flags: W
AnchorPoint: "Anchor-0" 65 19 mark 0
LayerCount: 2
Back
Fore
SplineSet
213 -277 m 1,0,1
 158 -277 158 -277 118 -242 c 0,2,3
 79 -205 79 -205 79 -155 c 256,4,5
 79 -105 79 -105 117 -69 c 0,6,7
 154 -34 154 -34 207 -34 c 0,8,9
 259 -34 259 -34 297 -69 c 0,10,11
 334 -105 334 -105 334 -155 c 0,12,13
 334 -177 334 -177 322 -204 c 1,14,15
 330 -215 330 -215 345 -222 c 0,16,17
 362 -228 362 -228 383 -228 c 0,18,19
 413 -228 413 -228 434 -207 c 0,20,21
 455 -185 455 -185 455 -155 c 256,22,23
 455 -125 455 -125 435 -104 c 0,24,25
 417 -83 417 -83 389 -83 c 2,26,-1
 358 -83 l 1,27,-1
 358 -34 l 1,28,-1
 383 -34 l 2,29,30
 433 -34 433 -34 469 -68 c 0,31,32
 504 -102 504 -102 504 -149 c 0,33,34
 504 -177 504 -177 492 -204 c 1,35,36
 502 -215 502 -215 520 -222 c 0,37,38
 540 -228 540 -228 565 -228 c 256,39,40
 590 -228 590 -228 608 -208 c 0,41,42
 625 -189 625 -189 625 -162 c 0,43,44
 625 -129 625 -129 605 -105 c 0,45,46
 587 -83 587 -83 559 -83 c 2,47,-1
 528 -83 l 1,48,-1
 528 -34 l 1,49,-1
 559 -34 l 2,50,51
 607 -34 607 -34 640 -72 c 0,52,53
 674 -109 674 -109 674 -162 c 0,54,55
 674 -209 674 -209 640 -243 c 0,56,57
 607 -277 607 -277 559 -277 c 0,58,59
 529 -277 529 -277 504 -269 c 0,60,61
 479 -262 479 -262 462 -247 c 1,62,63
 448 -262 448 -262 424 -269 c 0,64,65
 400 -277 400 -277 370 -277 c 0,66,67
 349 -277 349 -277 329 -269 c 0,68,69
 309 -262 309 -262 292 -247 c 1,70,71
 274 -262 274 -262 254 -269 c 0,72,73
 234 -277 234 -277 213 -277 c 1,74,-1
 213 -277 l 1,0,1
207 -228 m 1,75,76
 239 -228 239 -228 263 -207 c 0,77,78
 285 -185 285 -185 285 -155 c 256,79,80
 285 -125 285 -125 263 -104 c 0,81,82
 239 -83 239 -83 207 -83 c 0,83,84
 174 -83 174 -83 150 -104 c 0,85,86
 128 -125 128 -125 128 -155 c 256,87,88
 128 -185 128 -185 150 -207 c 0,89,90
 174 -228 174 -228 207 -228 c 1,91,-1
 207 -228 l 1,75,76
443 -362 m 1,92,-1
 443 -289 l 1,93,-1
 492 -289 l 1,94,-1
 492 -362 l 1,95,-1
 443 -362 l 1,96,-1
 443 -362 l 1,92,-1
EndSplineSet
Ligature2: "'blwf' Below Base Forms in Telugu lookup 2 subtable" Jha Halanth
EndChar

StartChar: NyaOttu
Encoding: 65549 -1 228
Width: 27
GlyphClass: 4
Flags: W
AnchorPoint: "Anchor-0" -40 25 mark 0
LayerCount: 2
Back
Fore
SplineSet
213 -285 m 1,0,1
 165 -285 165 -285 132 -264 c 0,2,3
 98 -241 98 -241 98 -211 c 0,4,5
 98 -184 98 -184 127 -165 c 0,6,7
 154 -145 154 -145 194 -145 c 2,8,-1
 243 -145 l 2,9,10
 280 -145 280 -145 308 -162 c 0,11,12
 334 -181 334 -181 334 -206 c 1,13,14
 350 -200 350 -200 360 -184 c 0,15,16
 370 -166 370 -166 370 -145 c 0,17,18
 370 -120 370 -120 354 -101 c 0,19,20
 338 -84 338 -84 315 -84 c 0,21,22
 298 -84 298 -84 285 -90 c 0,23,24
 272 -97 272 -97 268 -109 c 1,25,-1
 213 -109 l 1,26,27
 207 -97 207 -97 195 -90 c 0,28,29
 183 -84 183 -84 170 -84 c 0,30,31
 153 -84 153 -84 140 -91 c 0,32,33
 128 -99 128 -99 128 -109 c 1,34,-1
 79 -109 l 1,35,36
 79 -79 79 -79 102 -57 c 0,37,38
 125 -36 125 -36 158 -36 c 0,39,40
 184 -36 184 -36 203 -42 c 0,41,42
 222 -49 222 -49 230 -60 c 1,43,44
 239 -49 239 -49 259 -42 c 0,45,46
 280 -36 280 -36 310 -36 c 0,47,48
 352 -36 352 -36 383 -56 c 0,49,50
 414 -77 414 -77 419 -109 c 1,51,-1
 455 -109 l 1,52,-1
 455 -36 l 1,53,-1
 504 -36 l 1,54,-1
 504 -109 l 1,55,-1
 577 -109 l 1,56,-1
 577 -157 l 1,57,-1
 419 -157 l 1,58,59
 419 -195 419 -195 395 -225 c 0,60,61
 372 -255 372 -255 334 -266 c 1,62,-1
 334 -315 l 1,63,-1
 285 -315 l 1,64,-1
 285 -279 l 1,65,66
 264 -285 264 -285 213 -285 c 1,67,-1
 213 -285 l 1,0,1
188 -230 m 1,68,-1
 243 -230 l 2,69,70
 260 -230 260 -230 273 -226 c 0,71,72
 285 -222 285 -222 285 -217 c 0,73,74
 285 -207 285 -207 273 -201 c 0,75,76
 260 -194 260 -194 243 -194 c 2,77,-1
 200 -194 l 2,78,79
 183 -194 183 -194 170 -199 c 0,80,81
 158 -204 158 -204 158 -211 c 0,82,83
 158 -219 158 -219 167 -225 c 0,84,85
 175 -230 175 -230 188 -230 c 1,86,-1
 188 -230 l 1,68,-1
EndSplineSet
Ligature2: "'blwf' Below Base Forms in Telugu lookup 2 subtable" Nya Halanth
EndChar

StartChar: TTaOttu
Encoding: 65550 -1 229
Width: 26
GlyphClass: 4
Flags: W
AnchorPoint: "Anchor-0" -35 25 mark 0
LayerCount: 2
Back
Fore
SplineSet
183 -278 m 1,0,1
 140 -278 140 -278 109 -244 c 0,2,3
 79 -210 79 -210 79 -163 c 0,4,5
 79 -103 79 -103 108 -69 c 256,6,7
 137 -35 137 -35 188 -35 c 0,8,9
 210 -35 210 -35 227 -55 c 0,10,11
 243 -74 243 -74 243 -101 c 0,12,13
 243 -124 243 -124 225 -140 c 0,14,15
 208 -156 208 -156 183 -156 c 0,16,17
 170 -156 170 -156 158 -151 c 0,18,19
 145 -146 145 -146 134 -138 c 1,20,21
 132 -143 132 -143 129 -150 c 0,22,23
 128 -158 128 -158 128 -169 c 0,24,25
 128 -194 128 -194 145 -211 c 0,26,27
 163 -229 163 -229 188 -229 c 0,28,29
 210 -229 210 -229 227 -216 c 0,30,31
 243 -204 243 -204 243 -186 c 2,32,-1
 243 -169 l 1,33,-1
 292 -169 l 1,34,-1
 292 -180 l 2,35,36
 292 -200 292 -200 308 -215 c 0,37,38
 324 -229 324 -229 347 -229 c 0,39,40
 369 -229 369 -229 384 -208 c 0,41,42
 400 -186 400 -186 400 -156 c 256,43,44
 400 -126 400 -126 383 -105 c 0,45,46
 365 -84 365 -84 340 -84 c 2,47,-1
 304 -84 l 1,48,-1
 304 -35 l 1,49,-1
 340 -35 l 2,50,51
 385 -35 385 -35 418 -70 c 0,52,53
 449 -106 449 -106 449 -156 c 256,54,55
 449 -206 449 -206 419 -243 c 0,56,57
 389 -278 389 -278 347 -278 c 0,58,59
 320 -278 320 -278 300 -270 c 0,60,61
 280 -261 280 -261 273 -248 c 1,62,63
 260 -261 260 -261 238 -270 c 0,64,65
 214 -278 214 -278 183 -278 c 1,66,-1
 183 -278 l 1,0,1
170 -120 m 1,67,68
 180 -120 180 -120 187 -113 c 0,69,70
 194 -105 194 -105 194 -95 c 0,71,72
 194 -88 194 -88 187 -83 c 256,73,74
 180 -78 180 -78 170 -78 c 256,75,76
 160 -78 160 -78 153 -83 c 0,77,78
 145 -88 145 -88 145 -95 c 0,79,80
 145 -105 145 -105 153 -113 c 0,81,82
 160 -120 160 -120 170 -120 c 1,83,-1
 170 -120 l 1,67,68
EndSplineSet
Ligature2: "'blwf' Below Base Forms in Telugu lookup 2 subtable" Lla Halanth
EndChar

StartChar: TTHaOttu
Encoding: 65551 -1 230
Width: 27
GlyphClass: 4
Flags: W
AnchorPoint: "Anchor-0" -55 30 mark 0
LayerCount: 2
Back
Fore
SplineSet
220 -305 m 1,0,1
 162 -305 162 -305 120 -266 c 0,2,3
 79 -226 79 -226 79 -171 c 0,4,5
 79 -115 79 -115 120 -76 c 0,6,7
 162 -36 162 -36 220 -36 c 256,8,9
 278 -36 278 -36 319 -76 c 0,10,11
 360 -115 360 -115 360 -171 c 0,12,13
 360 -226 360 -226 319 -266 c 0,14,15
 278 -305 278 -305 220 -305 c 1,16,-1
 220 -305 l 1,0,1
220 -251 m 1,17,18
 257 -251 257 -251 282 -227 c 0,19,20
 308 -205 308 -205 308 -171 c 256,21,22
 308 -137 308 -137 282 -115 c 0,23,24
 257 -91 257 -91 220 -91 c 0,25,26
 184 -91 184 -91 159 -115 c 0,27,28
 133 -137 133 -137 133 -171 c 256,29,30
 133 -205 133 -205 159 -227 c 0,31,32
 184 -251 184 -251 220 -251 c 1,33,-1
 220 -251 l 1,17,18
220 -198 m 1,34,35
 205 -198 205 -198 195 -191 c 0,36,37
 185 -182 185 -182 185 -171 c 256,38,39
 185 -160 185 -160 195 -152 c 0,40,41
 205 -145 205 -145 220 -145 c 0,42,43
 234 -145 234 -145 244 -152 c 0,44,45
 254 -160 254 -160 254 -171 c 256,46,47
 254 -182 254 -182 244 -191 c 0,48,49
 234 -198 234 -198 220 -198 c 1,50,-1
 220 -198 l 1,34,35
EndSplineSet
Ligature2: "'blwf' Below Base Forms in Telugu lookup 2 subtable" TTha Halanth
EndChar

StartChar: DDaOttu
Encoding: 65552 -1 231
Width: 27
GlyphClass: 4
Flags: W
AnchorPoint: "Anchor-0" -47 30 mark 0
LayerCount: 2
Back
Fore
SplineSet
192 -303 m 1,0,1
 145 -303 145 -303 112 -265 c 0,2,3
 79 -228 79 -228 79 -175 c 0,4,5
 79 -118 79 -118 123 -78 c 0,6,7
 167 -36 167 -36 228 -36 c 2,8,-1
 400 -36 l 1,9,-1
 400 -89 l 1,10,-1
 228 -89 l 2,11,12
 189 -89 189 -89 160 -114 c 0,13,14
 133 -139 133 -139 133 -175 c 0,15,16
 133 -209 133 -209 153 -233 c 0,17,18
 173 -256 173 -256 200 -256 c 0,19,20
 223 -256 223 -256 238 -239 c 0,21,22
 254 -221 254 -221 254 -196 c 2,23,-1
 254 -183 l 1,24,-1
 308 -183 l 1,25,-1
 308 -204 l 2,26,27
 308 -223 308 -223 322 -236 c 0,28,29
 335 -250 335 -250 354 -250 c 0,30,31
 370 -250 370 -250 383 -240 c 0,32,33
 394 -230 394 -230 394 -216 c 0,34,35
 394 -203 394 -203 384 -193 c 256,36,37
 374 -183 374 -183 360 -183 c 2,38,-1
 348 -183 l 1,39,-1
 348 -129 l 1,40,-1
 367 -129 l 2,41,42
 403 -129 403 -129 428 -155 c 0,43,44
 454 -180 454 -180 454 -216 c 0,45,46
 454 -253 454 -253 428 -278 c 0,47,48
 403 -303 403 -303 367 -303 c 0,49,50
 339 -303 339 -303 315 -294 c 0,51,52
 293 -285 293 -285 280 -270 c 1,53,54
 268 -285 268 -285 244 -294 c 256,55,56
 220 -303 220 -303 192 -303 c 1,57,-1
 192 -303 l 1,0,1
EndSplineSet
Ligature2: "'blwf' Below Base Forms in Telugu lookup 2 subtable" DDa Halanth
EndChar

StartChar: DDhaOttu
Encoding: 65553 -1 232
Width: 26
GlyphClass: 4
Flags: W
AnchorPoint: "Anchor-0" -47 30 mark 0
LayerCount: 2
Back
Fore
SplineSet
192 -303 m 1,0,1
 145 -303 145 -303 112 -265 c 0,2,3
 79 -228 79 -228 79 -175 c 0,4,5
 79 -118 79 -118 123 -78 c 0,6,7
 167 -36 167 -36 228 -36 c 2,8,-1
 400 -36 l 1,9,-1
 400 -90 l 1,10,-1
 228 -90 l 2,11,12
 189 -90 189 -90 160 -115 c 0,13,14
 133 -140 133 -140 133 -175 c 0,15,16
 133 -209 133 -209 153 -233 c 0,17,18
 173 -256 173 -256 200 -256 c 0,19,20
 223 -256 223 -256 238 -239 c 0,21,22
 254 -221 254 -221 254 -196 c 2,23,-1
 254 -181 l 1,24,-1
 308 -181 l 1,25,-1
 308 -203 l 2,26,27
 308 -223 308 -223 322 -236 c 0,28,29
 335 -250 335 -250 354 -250 c 0,30,31
 370 -250 370 -250 383 -240 c 0,32,33
 394 -230 394 -230 394 -216 c 0,34,35
 394 -201 394 -201 384 -191 c 256,36,37
 374 -181 374 -181 360 -181 c 2,38,-1
 348 -181 l 1,39,-1
 348 -129 l 1,40,-1
 367 -129 l 2,41,42
 403 -129 403 -129 428 -155 c 0,43,44
 454 -180 454 -180 454 -216 c 0,45,46
 454 -253 454 -253 428 -278 c 0,47,48
 403 -303 403 -303 367 -303 c 0,49,50
 339 -303 339 -303 317 -294 c 0,51,52
 294 -285 294 -285 280 -269 c 1,53,54
 267 -285 267 -285 244 -294 c 0,55,56
 220 -303 220 -303 192 -303 c 1,57,-1
 192 -303 l 1,0,1
254 -396 m 1,58,-1
 254 -316 l 1,59,-1
 308 -316 l 1,60,-1
 308 -396 l 1,61,-1
 254 -396 l 1,62,-1
 254 -396 l 1,58,-1
EndSplineSet
Ligature2: "'blwf' Below Base Forms in Telugu lookup 2 subtable" DDha Halanth
EndChar

StartChar: NNaOttu
Encoding: 65554 -1 233
Width: 27
GlyphClass: 4
Flags: W
AnchorPoint: "Anchor-0" -35 25 mark 0
LayerCount: 2
Back
Fore
SplineSet
159 -301 m 1,0,1
 125 -301 125 -301 103 -279 c 0,2,3
 79 -258 79 -258 79 -228 c 0,4,5
 79 -207 79 -207 88 -191 c 0,6,7
 97 -173 97 -173 112 -167 c 1,8,9
 97 -163 97 -163 88 -147 c 256,10,11
 79 -131 79 -131 79 -108 c 0,12,13
 79 -78 79 -78 104 -56 c 256,14,15
 129 -34 129 -34 165 -34 c 0,16,17
 199 -34 199 -34 224 -46 c 0,18,19
 249 -57 249 -57 254 -74 c 1,20,21
 259 -57 259 -57 285 -46 c 0,22,23
 312 -34 312 -34 348 -34 c 0,24,25
 397 -34 397 -34 425 -71 c 0,26,27
 454 -107 454 -107 454 -167 c 0,28,29
 454 -228 454 -228 427 -264 c 0,30,31
 399 -301 399 -301 354 -301 c 0,32,33
 318 -301 318 -301 293 -279 c 0,34,35
 267 -258 267 -258 267 -228 c 256,36,37
 267 -198 267 -198 290 -176 c 0,38,39
 314 -154 314 -154 348 -154 c 0,40,41
 379 -154 379 -154 400 -167 c 1,42,43
 400 -133 400 -133 385 -111 c 0,44,45
 369 -87 369 -87 348 -87 c 0,46,47
 320 -87 320 -87 300 -103 c 0,48,49
 280 -118 280 -118 280 -141 c 2,50,-1
 280 -154 l 1,51,-1
 228 -154 l 1,52,-1
 228 -141 l 2,53,54
 228 -118 228 -118 212 -103 c 0,55,56
 197 -87 197 -87 174 -87 c 0,57,58
 157 -87 157 -87 145 -98 c 0,59,60
 133 -111 133 -111 133 -127 c 0,61,62
 133 -138 133 -138 143 -147 c 0,63,64
 152 -154 152 -154 165 -154 c 0,65,66
 169 -154 169 -154 183 -143 c 2,67,-1
 185 -141 l 1,68,-1
 185 -202 l 2,69,70
 182 -201 182 -201 178 -197 c 0,71,72
 175 -194 175 -194 174 -194 c 0,73,74
 159 -194 159 -194 149 -202 c 0,75,76
 139 -209 139 -209 139 -221 c 0,77,78
 139 -232 139 -232 149 -241 c 0,79,80
 159 -248 159 -248 174 -248 c 0,81,82
 187 -248 187 -248 197 -243 c 0,83,84
 208 -237 208 -237 213 -228 c 1,85,-1
 213 -288 l 1,86,87
 205 -294 205 -294 192 -297 c 0,88,89
 178 -301 178 -301 159 -301 c 1,90,-1
 159 -301 l 1,0,1
354 -248 m 1,91,92
 365 -248 365 -248 373 -242 c 0,93,94
 380 -237 380 -237 380 -228 c 256,95,96
 380 -219 380 -219 373 -214 c 0,97,98
 365 -208 365 -208 354 -208 c 256,99,100
 343 -208 343 -208 334 -214 c 0,101,102
 327 -219 327 -219 327 -228 c 256,103,104
 327 -237 327 -237 334 -242 c 0,105,106
 343 -248 343 -248 354 -248 c 1,107,-1
 354 -248 l 1,91,92
EndSplineSet
Ligature2: "'blwf' Below Base Forms in Telugu lookup 2 subtable" uni0C23 Halanth
EndChar

